<!-- sprite.svg -->
<svg xmlns="http://www.w3.org/2000/svg" style="display:none;">
  <symbol id="icon-address" viewBox="0 0 30 29" fill="none">
    <path d="M23.9626 14.6527C23.9626 20.6203 17.4357 24.6455 15.5486 25.6846C15.2298 25.8601 14.8568 25.8601 14.538 25.6846C12.6509 24.6455 6.12402 20.6203 6.12402 14.6527C6.12402 9.30112 10.4457 5.7334 15.0433 5.7334C19.8003 5.7334 23.9626 9.30112 23.9626 14.6527Z" stroke="#897CFF" stroke-width="2.46972"/>
    <circle cx="15.0433" cy="14.6525" r="3.5221" stroke="#897CFF" stroke-width="2.46972"/>
  </symbol>
  <symbol id="icon-booking" viewBox="0 0 36 35" fill="none">
    <rect x="1.3195" y="0.861001" width="33.5827" height="33.5827" rx="4.33885" stroke="#BCCAF4" stroke-width="0.964189"/>
    <path d="M28.9067 14.0537V12.9022C28.9067 11.2898 28.9067 10.4836 28.593 9.86781C28.317 9.32611 27.8765 8.88569 27.3348 8.60968C26.719 8.2959 25.9128 8.2959 24.3005 8.2959H11.9212C10.3089 8.2959 9.50268 8.2959 8.88685 8.60968C8.34515 8.88569 7.90473 9.32611 7.62872 9.86781C7.31494 10.4836 7.31494 11.2898 7.31494 12.9022V14.0537M28.9067 14.0537V23.842C28.9067 25.4543 28.9067 26.2605 28.593 26.8763C28.317 27.418 27.8765 27.8585 27.3348 28.1345C26.719 28.4483 25.9128 28.4483 24.3005 28.4483H11.9212C10.3089 28.4483 9.50268 28.4483 8.88685 28.1345C8.34515 27.8585 7.90473 27.418 7.62872 26.8763C7.31494 26.2605 7.31494 25.4543 7.31494 23.842V14.0537M28.9067 14.0537H7.31494" stroke="#897CFF" stroke-width="1.92838"/>
    <path d="M13.0728 5.41699L13.0728 11.1748M23.1489 5.41699L23.1489 11.1748" stroke="#897CFF" stroke-width="1.92838" stroke-linecap="round"/>
    <path d="M18.1108 24.8496L18.1108 17.6523" stroke="#897CFF" stroke-width="1.92838" stroke-linecap="round"/>
    <path d="M21.7095 21.251L14.5122 21.251" stroke="#897CFF" stroke-width="1.92838" stroke-linecap="round"/>
  </symbol>
  <symbol id="icon-medcard" viewBox="0 0 36 35" fill="none">
    <rect x="1.32731" y="0.861001" width="33.5827" height="33.5827" rx="4.33885" stroke="#BCCAF4" stroke-width="0.964189"/>
    <circle cx="18.1187" cy="11.8945" r="4.79363" stroke="#897CFF" stroke-width="1.92838" stroke-linecap="round"/>
    <path d="M7.82531 24.7747C8.74613 21.3998 12.2381 19.8115 15.7364 19.8115H20.501C23.9992 19.8115 27.4912 21.3998 28.412 24.7747C28.6008 25.4667 28.7516 26.2156 28.8371 27.011C28.922 27.8015 28.2701 28.4482 27.4751 28.4482H8.76221C7.96722 28.4482 7.3153 27.8015 7.40023 27.011C7.4857 26.2156 7.63649 25.4667 7.82531 24.7747Z" stroke="#897CFF" stroke-width="1.92838" stroke-linecap="round"/>
  </symbol>
  <symbol id="icon-dropdown-arrow" viewBox="0 0 9 7" fill="none">
    <path d="M3.96557 6.47631L0.67977 1.78231C0.219692 1.12506 0.689894 0.221964 1.49217 0.221964L7.59954 0.221964C8.40182 0.221964 8.87202 1.12506 8.41195 1.78231L5.12615 6.47631C4.84416 6.87915 4.24756 6.87915 3.96557 6.47631Z" fill="#897CFF" />
  </symbol>
  <symbol id="icon-button-arrow" viewBox="0 0 45 45" fill="none">
    <circle cx="22.399" cy="22.7616" r="21.8817" fill="white"/>
    <path d="M29.7828 26.8467V15.3781M29.7828 15.3781H18.3143M29.7828 15.3781L15.0165 30.1445" stroke="#535353" stroke-width="2.66" stroke-linecap="round" stroke-linejoin="round"/>
  </symbol>
  <symbol id="icon-health" viewBox="0 0 61 61" fill="none">
    <path d="M23.2639 22.7959H41.9305C44.8761 22.7959 47.2639 25.1837 47.2639 28.1292V38.7959C47.2639 41.7414 44.8761 44.1292 41.9305 44.1292H23.2639C20.3184 44.1292 17.9305 41.7414 17.9305 38.7959V28.1292C17.9305 25.1837 20.3184 22.7959 23.2639 22.7959Z" stroke="#897CFF" stroke-width="2.66667" stroke-linecap="round" stroke-linejoin="round"/>
    <path d="M17.9305 28.1289H13.4626C10.413 28.1289 8.25967 31.1165 9.22403 34.0096V34.0096C9.66874 35.3437 10.7156 36.3906 12.0497 36.8353L17.9305 38.7956" stroke="#897CFF" stroke-width="2.66667" stroke-linecap="round" stroke-linejoin="round"/>
    <path d="M47.2639 28.1289H51.7317C54.7813 28.1289 56.9347 31.1165 55.9703 34.0096V34.0096C55.5256 35.3437 54.4787 36.3906 53.1446 36.8353L47.2639 38.7956" stroke="#897CFF" stroke-width="2.66667" stroke-linecap="round" stroke-linejoin="round"/>
    <path d="M32.5972 28.1289V38.7956" stroke="#897CFF" stroke-width="2.66667" stroke-linecap="round" stroke-linejoin="round"/>
    <path d="M37.9305 33.4619L27.2639 33.4619" stroke="#897CFF" stroke-width="2.66667" stroke-linecap="round" stroke-linejoin="round"/>
  </symbol>
  <symbol id="icon-prevent" viewBox="0 0 61 61" fill="none">
    <circle cx="47.1104" cy="26.3789" r="5" stroke="#897CFF" stroke-width="2.5"/>
    <circle cx="47.1104" cy="26.3789" r="1.25" fill="#897CFF"/>
    <circle cx="22.1104" cy="33.8789" r="3.75" fill="#897CFF"/>
    <path d="M22.1104 33.8789C31.0941 33.8789 34.0248 21.7728 34.5276 13.8742C34.6154 12.4963 33.4911 11.3789 32.1104 11.3789H29.6104" stroke="#897CFF" stroke-width="2.5" stroke-linecap="round"/>
    <path d="M22.1104 33.8789C13.1266 33.8789 10.1959 21.7728 9.69306 13.8742C9.60533 12.4963 10.7296 11.3789 12.1104 11.3789H14.6104" stroke="#897CFF" stroke-width="2.5" stroke-linecap="round"/>
    <path d="M47.1104 31.3789V36.3789C47.1104 43.2825 41.5139 48.8789 34.6104 48.8789V48.8789C27.7068 48.8789 22.1104 43.2825 22.1104 36.3789V33.8789" stroke="#897CFF" stroke-width="2.5" stroke-linecap="round"/>
  </symbol>
  <symbol id="icon-pain" viewBox="0 0 61 61" fill="none">
    <path d="M22.5222 40.1289L40.0222 22.6289C43.474 19.1771 43.474 13.5807 40.0222 10.1289C36.5704 6.67713 30.974 6.67713 27.5222 10.1289L10.0222 27.6289C6.57044 31.0807 6.57044 36.6771 10.0222 40.1289C13.474 43.5807 19.0704 43.5807 22.5222 40.1289Z" stroke="#897CFF" stroke-width="2.5" stroke-linecap="round" stroke-linejoin="round"/>
    <path d="M31.2722 31.3789V31.3789C25.6552 28.9716 21.1795 24.4959 18.7722 18.8789V18.8789" stroke="#897CFF" stroke-width="2.5" stroke-linecap="round" stroke-linejoin="round"/>
    <circle cx="41.2722" cy="41.3789" r="10" stroke="#897CFF" stroke-width="2.5" stroke-linecap="round" stroke-linejoin="round"/>
    <path d="M47.5222 35.1289L35.0222 47.6289" stroke="#897CFF" stroke-width="2.5" stroke-linecap="round" stroke-linejoin="round"/>
  </symbol>
  <symbol id="icon-future" viewBox="0 0 53 42" fill="none">
    <path d="M51.4769 38.8191L45.0784 37.9361L46.5576 23.8363L51.3025 24.4907C51.6474 24.5385 51.9673 24.2933 52.015 23.9485C52.0628 23.6036 51.8177 23.2837 51.4728 23.2359L46.0796 22.4922C45.9092 22.4714 45.7389 22.513 45.6017 22.6189C45.4688 22.7249 45.3774 22.8786 45.3628 23.049L45.288 23.7615C39.039 20.2943 33.8744 20.1613 29.8756 23.3523L29.8735 16.8581L41.8126 9.64115C43.2107 8.79565 43.6636 6.96541 42.8181 5.561C41.9726 4.16288 40.1423 3.70997 38.7379 4.55553L26.7031 11.8432C24.5966 13.1146 22.1826 13.1146 20.076 11.8432L8.04123 4.55766C6.6431 3.71215 4.81286 4.15878 3.96108 5.56313C3.11765 6.96126 3.56844 8.7915 4.96656 9.64121L16.9014 16.8624V28.0622C16.7746 28.2741 16.6666 28.4985 16.5877 28.7332L6.53076 22.991C4.8189 22.0126 2.62723 22.6129 1.65286 24.3268C0.578834 26.209 1.07328 28.0289 2.96585 29.1922L20.3253 39.8602C21.8564 40.8013 23.5059 41.275 25.17 41.275C26.4892 41.275 27.8187 40.9779 29.1046 40.3817L37.3959 36.5571C37.8259 36.3597 38.2206 36.3078 38.6881 36.3929C39.1929 36.4844 39.7102 36.7066 40.3043 36.9663C41.2039 37.3548 42.2925 37.8285 43.7883 38.0196L43.7467 38.4122C43.7093 38.7529 43.9545 39.0604 44.2889 39.1082L51.2984 40.0763C51.3296 40.0825 51.3566 40.0825 51.3836 40.0825C51.6973 40.0825 51.9695 39.854 52.011 39.5341C52.0671 39.1851 51.8217 38.8669 51.4769 38.8191ZM5.6273 8.55689C4.82333 8.07284 4.56986 7.0258 5.05393 6.22184C5.538 5.41787 6.58502 5.1644 7.38898 5.64847L19.4238 12.9298C21.9084 14.4338 24.875 14.4338 27.3597 12.9298L39.3945 5.64847C40.1985 5.16442 41.2455 5.41995 41.7296 6.22184C42.2136 7.0258 41.9581 8.07287 41.1562 8.55689L28.922 15.961C28.7308 16.0774 28.6187 16.281 28.6187 16.5032V24.5222C28.3154 24.8421 28.0183 25.1807 27.7295 25.5443L19.7893 26.2506C19.1993 26.3046 18.6508 26.4895 18.173 26.7824V16.5032C18.173 16.2789 18.0567 16.0773 17.8697 15.961L5.6273 8.55689ZM40.8132 35.8025C40.1692 35.5262 39.5625 35.2603 38.9102 35.144C38.1977 35.0172 37.5266 35.1066 36.8681 35.4099L28.5769 39.2345C26.0507 40.3999 23.3604 40.24 20.9919 38.7816L3.63246 28.112C2.31325 27.3039 2.02037 26.2403 2.75579 24.9522C3.38941 23.847 4.79791 23.4585 5.90523 24.0901L16.3695 30.0646C16.3695 30.1436 16.3757 30.2288 16.3799 30.3139C16.5544 32.2605 18.1935 33.7293 20.1089 33.7293C20.2211 33.7293 20.3333 33.7231 20.4434 33.7127L34.2231 32.489C34.5742 32.4579 34.8297 32.1483 34.7965 31.8035C34.7653 31.4586 34.4558 31.1969 34.1109 31.2301L20.3312 32.4537C18.9705 32.5763 17.7635 31.5646 17.6409 30.2038C17.5183 28.8431 18.53 27.6361 19.8908 27.5135L28.1028 26.7843C28.2773 26.7677 28.4435 26.6784 28.5494 26.5392C32.48 21.4224 37.9043 20.9656 45.142 25.1452L43.9246 36.7604C42.6199 36.59 41.6684 36.1745 40.8125 35.8026L40.8132 35.8025ZM23.3894 11.1847C26.2023 11.1847 28.4895 8.89737 28.4895 6.08452C28.4895 3.27162 26.2022 0.984375 23.3894 0.984375C20.5765 0.984375 18.2892 3.27167 18.2892 6.08452C18.2892 8.89742 20.5827 11.1847 23.3894 11.1847ZM23.3894 2.25577C25.5001 2.25577 27.2181 3.97385 27.2181 6.08452C27.2181 8.19519 25.5 9.91327 23.3894 9.91327C21.2787 9.91327 19.5606 8.19519 19.5606 6.08452C19.5606 3.97172 21.2787 2.25577 23.3894 2.25577Z" fill="#897CFF" stroke="#897CFF" stroke-width="1.12877"/>
  </symbol>
  <symbol id="services__svg--cliniks"  viewBox="0 0 180 193" fill="none">
    <path d="M159.063 105.578C155.468 105.575 151.938 106.532 148.836 108.35C145.735 110.168 143.175 112.78 141.421 115.918C139.667 119.056 138.783 122.605 138.859 126.199C138.935 129.793 139.969 133.301 141.854 136.362C137.031 136.981 132.365 134.837 127.848 132.762C122.445 130.287 116.859 127.723 111.464 130.435C105.577 133.395 101.39 142.084 97.8827 158.61C93.1257 181.035 82.0173 187.933 73.9536 187.021C70.9638 186.688 68.2171 185.216 66.2833 182.911C64.3495 180.607 63.3768 177.646 63.5671 174.644L64.6604 114.462C66.1752 114.321 67.5829 113.62 68.6083 112.496C69.6338 111.372 70.2032 109.906 70.2054 108.385V97.5299C70.2034 97.5047 70.2064 97.4793 70.2143 97.4553C70.2222 97.4313 70.2347 97.409 70.2512 97.3899C70.2677 97.3707 70.2878 97.355 70.3104 97.3436C70.333 97.3322 70.3576 97.3254 70.3828 97.3236C78.8502 96.4372 87.0363 93.779 94.4091 89.5216C101.782 85.2643 108.176 79.5032 113.177 72.6127L114.266 71.0841C115.07 69.955 115.411 68.5611 115.219 67.1885C115.027 65.8158 114.317 64.5687 113.234 63.7032C118.487 53.6609 121.944 32.7779 123.45 21.5454C123.769 19.5218 123.646 17.4529 123.087 15.4818C122.528 13.5107 121.548 11.6846 120.214 10.1297C118.88 8.57493 117.224 7.32856 115.36 6.47691C113.497 5.62526 111.471 5.18867 109.422 5.19734H101.687C101.157 3.81096 100.22 2.61771 98.9981 1.77507C97.7765 0.932429 96.3281 0.480015 94.8441 0.477539H87.882C86.9192 0.477539 85.9658 0.667171 85.0764 1.03561C84.1869 1.40404 83.3787 1.94407 82.6979 2.62485C82.0171 3.30563 81.4771 4.11384 81.1086 5.00332C80.7402 5.8928 80.5506 6.84614 80.5506 7.80891C80.5506 8.77168 80.7402 9.72503 81.1086 10.6145C81.4771 11.504 82.0171 12.3122 82.6979 12.993C83.3787 13.6738 84.1869 14.2138 85.0764 14.5822C85.9658 14.9507 86.9192 15.1403 87.882 15.1403H94.8441C96.3278 15.1377 97.7759 14.6855 98.9974 13.8432C100.219 13.001 101.157 11.8084 101.687 10.4225H109.428C110.723 10.4153 112.003 10.6899 113.181 11.2274C114.359 11.7648 115.405 12.5522 116.248 13.5349C117.091 14.5175 117.709 15.6719 118.061 16.9177C118.413 18.1635 118.489 19.4709 118.284 20.7492C116.884 31.2145 113.704 51.3634 108.884 60.7575C107.748 60.283 106.485 60.2083 105.301 60.5456C104.117 60.8829 103.083 61.6122 102.367 62.6141L101.278 64.1426C92.8019 76.0453 78.1535 83.1518 62.0839 83.1518C46.0143 83.1518 31.3743 76.0473 22.8897 64.1426L21.8006 62.6141C21.0858 61.6116 20.0515 60.8818 18.8674 60.5445C17.6834 60.2071 16.4198 60.2822 15.284 60.7575C10.4697 51.3622 7.29603 31.2134 5.90009 20.7492C5.69555 19.4709 5.77175 18.1635 6.12339 16.9177C6.47503 15.6719 7.09369 14.5175 7.93638 13.5349C8.77907 12.5522 9.82559 11.7648 11.0032 11.2274C12.1809 10.6899 13.4614 10.4153 14.7559 10.4225H22.4999C23.029 11.8085 23.9661 13.0015 25.1874 13.8438C26.4087 14.6861 27.8567 15.1381 29.3403 15.1403H36.3024C38.2468 15.1403 40.1116 14.3679 41.4865 12.993C42.8614 11.6181 43.6338 9.75332 43.6338 7.80891C43.6338 5.86451 42.8614 3.99975 41.4865 2.62485C40.1116 1.24995 38.2468 0.477539 36.3024 0.477539H29.3403C27.8562 0.480015 26.4078 0.932429 25.1862 1.77507C23.9646 2.61771 23.0272 3.81096 22.4978 5.19734H14.7559C12.7072 5.18867 10.6811 5.62526 8.81773 6.47691C6.9544 7.32856 5.29838 8.57493 3.96427 10.1297C2.63017 11.6846 1.64984 13.5107 1.09114 15.4818C0.532446 17.4529 0.408718 19.5218 0.728524 21.5454C2.23706 32.7774 5.69768 53.6591 10.9541 63.6991C9.87117 64.5643 9.16079 65.8115 8.96896 67.1842C8.77713 68.557 9.1184 69.9511 9.92266 71.08L11.0118 72.6086C16.0101 79.5006 22.4026 85.2637 29.7739 89.5235C37.1452 93.7833 45.3304 96.4444 53.7975 97.3339C53.8227 97.3357 53.8473 97.3425 53.8699 97.3539C53.8924 97.3653 53.9126 97.381 53.9291 97.4002C53.9455 97.4193 53.9581 97.4416 53.9659 97.4656C53.9738 97.4896 53.9768 97.515 53.9749 97.5402V108.38C53.9781 109.887 54.5377 111.34 55.5462 112.459C56.5547 113.578 57.9412 114.286 59.4394 114.445L58.3564 174.557C58.1577 178.856 59.5984 183.07 62.3872 186.348C65.176 189.625 69.105 191.721 73.3801 192.213C74.0294 192.287 74.6823 192.323 75.3357 192.323C85.3178 192.323 97.862 183.931 103.003 159.693C106.021 145.459 109.659 137.195 113.82 135.103C116.97 133.519 121.005 135.369 125.678 137.511C131.264 140.073 138.125 143.215 145.642 140.867C148.086 143.043 151.023 144.593 154.199 145.383C157.375 146.173 160.695 146.18 163.874 145.402C167.054 144.625 169.996 143.087 172.449 140.92C174.902 138.753 176.792 136.023 177.956 132.964C179.12 129.905 179.523 126.61 179.132 123.36C178.74 120.111 177.564 117.005 175.706 114.311C173.848 111.617 171.363 109.414 168.466 107.893C165.568 106.372 162.344 105.577 159.071 105.578H159.063ZM94.8441 9.91509H87.882C87.3234 9.91509 86.7876 9.69319 86.3927 9.2982C85.9977 8.90322 85.7758 8.36751 85.7758 7.80891C85.7758 7.25032 85.9977 6.71461 86.3927 6.31963C86.7876 5.92464 87.3234 5.70274 87.882 5.70274H94.8441C95.4027 5.70274 95.9384 5.92464 96.3334 6.31963C96.7283 6.71461 96.9503 7.25032 96.9503 7.80891C96.9503 8.36751 96.7283 8.90322 96.3334 9.2982C95.9384 9.69319 95.4027 9.91509 94.8441 9.91509ZM29.3403 5.70274H36.3024C36.861 5.70274 37.3967 5.92464 37.7917 6.31963C38.1867 6.71461 38.4086 7.25032 38.4086 7.80891C38.4086 8.36751 38.1867 8.90322 37.7917 9.2982C37.3967 9.69319 36.861 9.91509 36.3024 9.91509H29.3403C28.7817 9.91509 28.246 9.69319 27.851 9.2982C27.456 8.90322 27.2341 8.36751 27.2341 7.80891C27.2341 7.25032 27.456 6.71461 27.851 6.31963C28.246 5.92464 28.7817 5.70274 29.3403 5.70274ZM54.4369 92.1479C46.6899 91.3445 39.1985 88.9202 32.4495 85.0326C25.7006 81.1449 19.8451 75.8808 15.2634 69.5824L14.1763 68.0538C14.1608 68.0323 14.1498 68.0078 14.1441 67.9819C14.1385 67.956 14.1382 67.9292 14.1433 67.9032C14.1463 67.8767 14.155 67.8511 14.1689 67.8283C14.1828 67.8055 14.2015 67.786 14.2237 67.7712L17.2788 65.5949C17.3117 65.5707 17.3514 65.5577 17.3922 65.5577H17.4294C17.4821 65.5664 17.5295 65.5953 17.5614 65.6382L18.6506 67.1668C28.1046 80.4433 44.3455 88.3708 62.0922 88.3708C79.8389 88.3708 96.0797 80.4474 105.534 67.1709L106.623 65.6423C106.655 65.5993 106.702 65.5704 106.755 65.5615C106.807 65.5527 106.862 65.5646 106.906 65.5949L109.963 67.7712C110.005 67.8029 110.034 67.8497 110.043 67.902C110.051 67.9542 110.04 68.0078 110.01 68.0517L108.921 69.5824C104.34 75.8806 98.4843 81.1445 91.7357 85.0322C84.9872 88.9198 77.4962 91.3442 69.7495 92.1479C68.4353 92.3108 67.2258 92.948 66.3483 93.9398C65.4709 94.9316 64.9858 96.2098 64.9843 97.534V108.38C64.9811 108.613 64.8872 108.835 64.7226 108.999C64.5581 109.163 64.3359 109.257 64.1035 109.259H60.0809C59.8485 109.257 59.6263 109.163 59.4617 108.999C59.2972 108.835 59.2033 108.613 59.2001 108.38V97.5299C59.1976 96.2067 58.7124 94.9298 57.8354 93.9389C56.9585 92.948 55.7501 92.3112 54.4369 92.1479ZM159.065 140.766C156.101 140.766 153.205 139.888 150.74 138.242C148.276 136.596 146.356 134.256 145.221 131.518C144.087 128.781 143.79 125.768 144.368 122.862C144.946 119.955 146.372 117.285 148.468 115.19C150.563 113.094 153.233 111.667 156.139 111.089C159.045 110.511 162.058 110.807 164.796 111.941C167.534 113.075 169.874 114.995 171.52 117.459C173.166 119.923 174.045 122.82 174.045 125.783C174.041 129.756 172.462 133.564 169.653 136.373C166.844 139.182 163.037 140.762 159.065 140.766ZM159.065 115.052C156.943 115.052 154.869 115.682 153.105 116.86C151.341 118.039 149.966 119.714 149.154 121.674C148.343 123.634 148.13 125.791 148.544 127.872C148.958 129.953 149.98 131.864 151.48 133.364C152.98 134.864 154.891 135.886 156.972 136.3C159.053 136.714 161.21 136.501 163.17 135.69C165.13 134.878 166.805 133.503 167.984 131.739C169.162 129.975 169.792 127.901 169.792 125.779C169.787 122.936 168.655 120.21 166.644 118.199C164.633 116.188 161.909 115.057 159.065 115.052ZM159.065 131.291C157.975 131.292 156.91 130.969 156.004 130.364C155.098 129.759 154.392 128.899 153.975 127.893C153.558 126.886 153.448 125.779 153.66 124.71C153.873 123.642 154.397 122.66 155.167 121.89C155.938 121.119 156.919 120.594 157.987 120.382C159.056 120.169 160.163 120.278 161.17 120.695C162.177 121.111 163.037 121.817 163.642 122.723C164.247 123.629 164.571 124.694 164.571 125.783C164.569 127.244 163.988 128.644 162.956 129.676C161.923 130.709 160.525 131.29 159.065 131.291Z" fill="#C9C3FF" />
  </symbol>
  <symbol id="services-svg"  viewBox="0 0 115 126" fill="none">
    <path d="M74.9613 125.142C66.52 125.142 64.284 117.342 64.284 113.209V89.342C64.284 85.5359 61.1813 82.4332 57.3752 82.4332C53.5691 82.4332 50.4664 85.5359 50.4664 89.342V113.209C50.4664 117.342 48.4942 125.142 41.0452 125.142C32.9054 125.142 21.8764 114.917 16.902 92.4573C15.8845 87.8724 15.357 83.011 15.269 77.597C15.0932 66.6936 13.9752 62.2846 2.53166 40.3271C1.84078 39.0081 1.376 37.7519 1.08709 36.4832C-3.14614 17.3646 6.62671 6.39843 17.1909 2.50436C22.5798 0.519645 28.6093 0.343784 34.6263 2.0019C38.2063 2.9817 41.2713 3.93637 43.8841 4.80312C44.4243 4.48908 45.1152 4.46396 45.7056 4.778C45.9317 4.89105 47.5019 5.66986 48.9339 6.37331C49.2981 6.54917 49.6624 6.73759 49.989 6.88833C52.2752 7.6797 54.172 8.32034 54.8629 8.32034H57.1616C58.4806 8.01886 66.3064 6.1472 75.6145 2.79328C81.4682 0.682945 87.5228 0.105116 93.1127 1.11004C106.717 3.57209 114.53 14.2117 114.53 30.303C114.53 36.634 111.716 42.2238 108.463 48.693C104.23 57.0715 99.4562 66.568 99.4562 80.549C99.4562 107.355 84.709 125.142 74.9613 125.142ZM57.3752 78.6648C63.2665 78.6648 68.0525 83.4507 68.0525 89.342V113.209C68.0525 114.038 68.2911 121.374 74.9613 121.374C82.0837 121.374 95.6878 105.471 95.6878 80.549C95.6878 65.6762 100.901 55.3255 105.096 46.9972C108.136 40.9551 110.762 35.7295 110.762 30.303C110.762 22.0249 108.375 7.70483 92.4343 4.81568C87.4977 3.92381 82.1214 4.4514 76.8958 6.33562C69.5599 8.9861 63.2414 10.6945 60.0382 11.4984C75.5266 17.3897 81.9329 13.144 82.0083 13.0937C82.8374 12.4656 84.0181 12.6415 84.6462 13.4706C85.2743 14.2996 85.0984 15.4804 84.2694 16.1085C83.8548 16.4225 73.8936 23.5449 49.7755 10.9834C49.675 10.9331 49.1977 10.6945 48.557 10.3804C48.356 10.3051 48.155 10.2423 47.9415 10.1669C44.5373 8.9861 39.877 7.3531 33.6465 5.64474C28.3958 4.20017 23.1577 4.33834 18.5099 6.05927C4.66712 11.1341 2.33068 24.688 4.76761 35.6542C4.98115 36.5963 5.33288 37.551 5.87302 38.5684C17.0025 59.8979 18.8491 65.3621 19.0375 77.5217C19.1128 82.6844 19.6279 87.3071 20.5825 91.6282C25.4187 113.448 35.4679 121.361 41.0452 121.361C46.5974 121.361 46.6979 113.523 46.6979 113.196V89.3295C46.6979 83.4507 51.4838 78.6648 57.3752 78.6648ZM16.5377 40.3522C15.985 40.3522 15.4449 40.1135 15.068 39.6487C14.8419 39.3598 9.44049 32.4761 12.2417 24.0599C15.5956 12.8802 25.8081 11.7748 30.7322 12.7546C31.7497 12.9555 32.4155 13.9479 32.2145 14.9654C32.0135 15.9829 31.0086 16.6486 30.0037 16.4476C29.564 16.3597 19.0626 14.4629 15.8469 25.1904C13.6863 31.6847 17.9823 37.2369 18.0326 37.2997C18.6732 38.1162 18.535 39.297 17.7311 39.9502C17.3668 40.214 16.9523 40.3522 16.5377 40.3522Z" fill="#A9B8FF" />
  </symbol>
  <symbol id="services__svg--koc"  viewBox="0 0 152 151" fill="none">
    <path d="M74.1593 45.4994C82.1396 50.9897 90.6874 55.164 97.0871 59.3484C102.376 62.9774 107.124 66.3054 107.46 72.4101C107.535 73.9053 108.353 74.5501 109.504 74.7108C111.677 75.0058 112.671 75.7178 113.265 76.9566C109.842 79.953 106.495 84.8067 105.171 93.2935L96.133 104.537C96.0679 104.61 96.0048 104.683 95.952 104.771C94.351 107.067 93.6431 109.325 93.6655 111.412C89.0681 116.762 78.9601 123.075 76.0145 122.684C73.0771 123.075 62.9446 116.75 58.3737 111.39C58.3961 109.272 57.5844 106.778 55.9062 104.537L46.858 93.2935C45.5418 84.8168 42.1955 79.9652 38.7719 76.9566C39.3659 75.7279 40.3607 75.018 42.5332 74.7108C44.185 74.4769 44.5675 73.3662 44.5776 72.284C45.1696 59.7959 62.2347 50.5219 74.1593 45.4994ZM98.2425 21.9451C115.167 30.3627 118.123 47.2305 108.924 63.5327C101.341 54.4113 89.7801 50.412 79.4463 43.4651C90.8745 40.0578 98.5497 32.6288 98.2527 21.9451H98.2425ZM92.6687 17.2867C95.8238 26.7357 90.9783 34.6773 79.9772 38.3918C65.4935 43.5912 50.8471 50.2838 42.7773 62.7394C41.4408 59.5538 39.8928 57.487 38.9306 53.5528V53.5305C34.3617 34.4901 46.382 23.2348 62.969 17.6467C65.6807 16.7659 64.5252 13.918 61.8563 14.3188C59.9279 14.6137 58.1276 15.1569 56.3476 15.8241C60.7009 1.54586 87.2394 1.53162 92.6687 17.2867ZM57.4095 6.10863C54.051 9.01147 51.6994 13.1308 51.3068 18.0475C37.6552 25.1042 30.4906 37.991 34.4533 54.631V54.6412C36.3899 62.1861 39.5795 63.6121 39.7077 71.1692C37.9501 71.8995 36.4672 72.9593 35.4053 74.2429C31.3369 71.3543 21.0396 60.8069 17.0464 56.9927C15.2645 55.2677 12.5854 58.3923 14.2697 60.0441L25.9869 71.5089C34.7177 80.4107 41.1886 79.9693 43.3001 95.4741L52.6881 107.118C54.883 110.285 54.6592 112.511 53.9818 113.56C53.1865 114.767 52.2751 115.149 51.1828 114.144L37.8464 101.906C37.0307 101.166 35.3646 102.118 36.6584 103.369L49.2034 115.469C49.9866 116.231 51.7767 117.025 53.217 116.781L61.5146 121.604C64.3971 123.288 64.7876 125.577 64.6941 127.145C64.631 128.258 63.8458 128.396 62.9874 127.918L33.4423 111.189C30.7307 109.651 28.8348 107.269 28.0089 104.459C26.3978 99.0239 22.4982 90.6245 21.6194 88.8344C19.7336 85.0081 18.8752 83.578 17.1685 82.1378L4.00095 71.2994C1.75517 69.4544 -0.724552 72.7498 1.2161 74.3508L14.5016 85.3173C15.6977 86.312 16.0578 86.9467 17.8927 90.6774C18.6433 92.2153 22.6182 100.838 24.0381 105.639C25.1711 109.474 27.8075 112.769 31.402 114.803L55.241 128.292L55.0274 135.729L27.7871 145.646C24.9616 146.724 26.4771 150.994 29.3576 149.991L53.5547 141.177C59.8506 139.038 59.8759 139.03 59.8506 130.908L60.9511 131.535C65.223 134.23 69.863 130.009 68.6649 125.271C73.8908 127.94 78.1566 127.936 83.3825 125.271C82.166 130.025 86.8264 134.224 91.0942 131.535L92.1988 130.908C92.1667 139.129 92.1582 139.133 98.4785 141.177L122.678 149.991C125.538 150.98 127.09 146.73 124.256 145.646L97.0159 135.719L96.8043 128.292L120.629 114.801C124.22 112.767 126.86 109.472 127.993 105.637C129.411 100.836 133.386 92.2133 134.147 90.6754C135.979 86.9467 136.329 86.312 137.538 85.3152L150.815 74.3487C152.766 72.7478 150.276 69.4523 148.03 71.2974L134.859 82.1357C133.164 83.576 132.295 85.006 130.408 88.8324C129.529 90.6225 125.631 99.0137 124.03 104.457C123.202 107.256 121.307 109.649 118.585 111.187L89.0458 127.906C88.1995 128.394 87.4041 128.256 87.3431 127.143C87.2455 125.564 87.6503 123.286 90.5307 121.602L98.8161 116.768C100.256 117.013 102.046 116.217 102.83 115.466L115.375 103.357C116.668 102.118 115.017 101.154 114.201 101.906L100.863 114.134C99.7621 115.141 98.8507 114.769 98.0553 113.55C97.378 112.511 97.1542 110.287 99.3572 107.12L108.733 95.466C108.849 95.3053 108.926 95.1161 108.945 94.9147C110.981 79.4221 117.555 80.5023 126.046 71.511L137.774 60.0359C139.458 58.3943 136.767 55.2596 134.999 56.9948C131.034 60.7784 120.808 71.2425 116.786 74.1168C115.714 72.5789 114.158 71.277 112.114 70.5874C112.551 63.368 115.78 62.0478 117.582 54.6412V54.6188C121.99 36.8803 112.952 22.8076 97.262 16.4242C97.1664 16.1618 97.0809 15.8953 96.9752 15.641C93.0776 5.34173 83.297 0.577573 74.6312 0.829817C66.3214 0.829817 61.1077 2.92914 57.4095 6.10863Z" fill="#E4BCF5" />
    <path d="M69.436 109.449C68.1747 109.701 68.6467 111.09 69.7533 112.205C72.5849 115.126 78.1404 115.118 80.9741 112.205C81.9363 111.272 82.2027 110.287 81.8956 109.778C81.6189 109.333 80.9008 109.272 79.8512 110.012C77.4345 111.668 73.2969 111.672 70.8762 110.012C70.2822 109.599 69.796 109.429 69.436 109.449Z" fill="#E4BCF5" />
    <path d="M71.2914 103.2C69.0761 103.271 67.9532 105.224 65.1785 104.618C62.8473 104.124 62.7741 107.159 64.733 107.393C67.0744 107.936 68.5472 107.659 70.7808 106.842C71.6372 106.524 72.1254 106.947 72.7092 107.403C73.2808 107.869 74.1718 108.516 75.3598 108.516C76.5559 108.516 77.4347 107.859 78.0185 107.403C78.6024 106.937 79.0784 106.524 79.947 106.842C81.6049 107.682 88.0025 108.619 87.3109 105.456C87.0993 104.787 86.5053 104.407 85.5513 104.618C83.1367 105.137 82.0036 103.762 80.2969 103.324C78.2281 102.645 76.8753 104.643 75.3598 105.031C74.123 104.785 72.8964 103.119 71.2914 103.2Z" fill="#E4BCF5" />
    <path d="M80.252 68.0248C75.3678 72.793 74.1392 81.054 77.5404 90.2731C78.706 93.4302 77.933 95.5153 75.4004 95.4644C73.2929 95.4095 73.3987 97.9218 75.3495 98.3672C81.0047 99.482 83.1284 93.4261 81.1247 88.9183C75.1502 74.5465 85.6814 61.9546 98.2346 69.7823C100.311 71.2144 101.552 68.755 100.035 67.3148C94.5404 61.8753 84.9877 62.6341 80.252 68.0248Z" fill="#E4BCF5" />
    <path d="M51.954 67.1758C50.4589 68.5754 51.9845 70.811 53.3942 69.7817C58.2683 66.2238 64.137 66.6245 68.1851 70.3024C68.9683 71.0002 70.1766 70.9371 70.8866 70.1641C71.6087 69.3809 71.5538 68.1624 70.7706 67.4403C65.5121 62.6436 57.1921 62.0048 51.954 67.1758Z" fill="#E4BCF5" />
    <path d="M51.8787 79.6909C50.5666 78.4602 51.9112 76.4911 53.1399 77.3902C57.4301 80.5148 62.6011 80.1649 66.1508 76.9447C66.8506 76.3182 67.9084 76.3731 68.5349 77.0607C69.1594 77.7503 69.1188 78.8182 68.4291 79.4448C63.8033 83.678 56.4903 84.2171 51.8787 79.6909Z" fill="#E4BCF5" />
    <path d="M98.847 79.6909C100.159 78.4602 98.8144 76.4911 97.5756 77.3902C93.2854 80.5148 88.1266 80.1649 84.5647 76.9447C83.8751 76.3182 82.8173 76.3731 82.1907 77.0607C81.5561 77.7503 81.5967 78.8182 82.2965 79.4448C86.9244 83.6821 94.2272 84.2171 98.847 79.6909Z" fill="#E4BCF5" />
  </symbol>
  <symbol id="icon-map-pin" viewBox="0 0 24 24" fill="none">
    <path d="M19.5526 12.0247C19.5526 16.8573 14.267 20.117 12.7388 20.9584C12.4807 21.1005 12.1786 21.1005 11.9204 20.9584C10.3922 20.117 5.10669 16.8573 5.10669 12.0247C5.10669 7.69093 8.60645 4.80176 12.3296 4.80176C16.1819 4.80176 19.5526 7.69093 19.5526 12.0247Z" stroke="#897CFF" stroke-width="2"/>
    <circle cx="12.3296" cy="12.0241" r="2.85223" stroke="#897CFF" stroke-width="2"/>
  </symbol>
  <symbol id="icon-clock" viewBox="0 0 24 24" fill="none">
    <circle cx="12.3296" cy="12.2406" r="8.70446" stroke="#897CFF" stroke-width="2"/>
    <path d="M16.6633 12.2398H12.5704C12.4374 12.2398 12.3296 12.132 12.3296 11.9991V8.86914" stroke="#897CFF" stroke-width="2" stroke-linecap="round"/>
  </symbol>
  <symbol id="icon-analysis" viewBox="0 0 25 25" fill="none">
    <path d="M15.7727 5.7002V12.3974C15.7727 12.5948 15.8311 12.7879 15.9407 12.9521L20.7362 20.1455C21.1793 20.81 20.7029 21.7002 19.9042 21.7002H5.64122C4.84253 21.7002 4.36614 20.81 4.80917 20.1455L9.60476 12.9521C9.71427 12.7879 9.77271 12.5948 9.77271 12.3974V5.7002" stroke="#897CFF" stroke-width="2" stroke-linejoin="round"/>
    <path d="M7.77271 5.7002H17.7727" stroke="#897CFF" stroke-width="2" stroke-linecap="round" stroke-linejoin="round"/>
  </symbol>
  <symbol id="icon-telegram" viewBox="0 0 24 24" fill="none">
    <path d="M4.61453 11.2239L18.6698 6.53885C18.7591 6.50907 18.8441 6.59406 18.8143 6.68341L14.1293 20.7386C14.0935 20.8459 13.9403 20.8417 13.9106 20.7326L11.937 13.4963C11.9264 13.4573 11.8959 13.4268 11.8569 13.4161L4.6206 11.4426C4.51151 11.4129 4.50726 11.2597 4.61453 11.2239Z" stroke="#897CFF" stroke-width="2" stroke-linecap="round"/>
  </symbol>
  <symbol id="icon-mail" viewBox="0 0 25 25" fill="none">
    <rect x="4.65332" y="6.43457" width="16" height="12" rx="2" stroke="#897CFF" stroke-width="2"/>
    <path d="M4.65332 9.43457L11.7589 12.9874C12.3219 13.2689 12.9847 13.2689 13.5477 12.9874L20.6533 9.43457" stroke="#897CFF" stroke-width="2"/>
  </symbol>
  <symbol id="icon-social-vk" viewBox="0 0 43 42" fill="none">
    <path d="M21.7177 3.4824C31.2433 3.4824 38.993 11.2321 38.993 20.7577C38.993 30.2833 31.2433 38.033 21.7177 38.033C12.1921 38.033 4.44236 30.2833 4.44236 20.7577C4.44236 11.2321 12.1921 3.4824 21.7177 3.4824ZM21.7177 0.0273438C10.2693 0.0273438 0.987305 9.30936 0.987305 20.7577C0.987305 32.206 10.2693 41.488 21.7177 41.488C33.166 41.488 42.448 32.206 42.448 20.7577C42.448 9.30936 33.166 0.0273438 21.7177 0.0273438ZM11.4026 31.1229L12.8606 25.8004C11.9623 24.2421 11.489 22.4749 11.489 20.6644C11.4907 14.9998 16.098 10.3925 21.7608 10.3925C24.5093 10.3942 27.0885 11.4636 29.0268 13.4053C30.9669 15.3471 32.0345 17.928 32.0327 20.673C32.031 26.3376 27.422 30.9449 21.7608 30.9449C20.042 30.9449 18.3472 30.5131 16.8478 29.6942L11.4026 31.1229ZM17.1 27.8354C18.5476 28.694 19.9297 29.2105 21.7574 29.2105C26.4632 29.2105 30.2966 25.3806 30.2983 20.673C30.3 15.9552 26.4839 12.1304 21.7643 12.1287C17.0551 12.1287 13.2251 15.9586 13.2234 20.6661C13.2234 22.5872 13.7866 24.0279 14.7315 25.5326L13.8695 28.6836L17.1 27.8354ZM26.9365 23.1158C26.8726 23.0087 26.7016 22.9447 26.4442 22.8152C26.1868 22.6873 24.9257 22.0654 24.6907 21.9808C24.4558 21.8944 24.2848 21.8529 24.1137 22.1086C23.9427 22.366 23.4504 22.943 23.3018 23.1158C23.1515 23.2868 23.0029 23.3093 22.7455 23.1797C22.4881 23.0519 21.6624 22.7806 20.6811 21.9065C19.9176 21.2259 19.4028 20.3846 19.2525 20.1289C19.1022 19.8715 19.2369 19.7333 19.3648 19.6054L19.75 19.1563L20.0074 18.7278C20.0938 18.5568 20.0506 18.4065 19.9867 18.2787L19.1955 16.3732C18.9864 15.8722 18.7757 15.9413 18.6185 15.9327L18.1244 15.9206C17.9534 15.9206 17.6752 15.9845 17.4403 16.2419C17.2054 16.4993 16.542 17.1195 16.542 18.3841C16.542 19.6469 17.461 20.8683 17.5906 21.0393C17.7184 21.2103 19.401 23.8033 21.9751 24.9141C22.5866 25.1784 23.0651 25.3374 23.4383 25.4548C24.0533 25.6501 24.613 25.6224 25.0552 25.5568C25.5476 25.4825 26.5737 24.9366 26.788 24.3371C27.0004 23.736 27.0004 23.2229 26.9365 23.1158Z" fill="#897CFF"/>
  </symbol>
  <symbol id="icon-social-telegram" viewBox="0 0 42 42" fill="none">
    <path fill-rule="evenodd" clip-rule="evenodd" d="M21.1786 0.0273438C9.73026 0.0273438 0.448242 9.30936 0.448242 20.7577C0.448242 32.206 9.73026 41.488 21.1786 41.488C32.6269 41.488 41.9089 32.206 41.9089 20.7577C41.9089 9.30936 32.6269 0.0273438 21.1786 0.0273438ZM21.1786 3.4824C30.7042 3.4824 38.4539 11.2321 38.4539 20.7577C38.4539 30.2833 30.7042 38.033 21.1786 38.033C11.653 38.033 3.9033 30.2833 3.9033 20.7577C3.9033 11.2321 11.653 3.4824 21.1786 3.4824ZM25.8291 29.2036C26.1072 29.4023 26.4648 29.4506 26.7844 29.3297C27.104 29.2088 27.3407 28.9358 27.4098 28.6041C28.1613 25.0765 29.9821 16.1469 30.6645 12.9389C30.7163 12.697 30.6316 12.4466 30.4416 12.2842C30.2516 12.1235 29.9873 12.0769 29.7523 12.1632C26.1314 13.5038 14.9768 17.6879 10.4178 19.3757C10.1276 19.4828 9.93929 19.7609 9.94965 20.0667C9.96002 20.3725 10.1656 20.6368 10.461 20.7249C12.5064 21.3364 15.191 22.1881 15.191 22.1881C15.191 22.1881 16.4434 25.9766 17.0982 27.9028C17.1794 28.1429 17.3694 28.3346 17.6182 28.3986C17.8686 28.4642 18.133 28.3968 18.3195 28.2206C19.3699 27.229 20.9937 25.6967 20.9937 25.6967C20.9937 25.6967 24.0791 27.958 25.8291 29.2036ZM16.3191 21.7096L17.7702 26.4931L18.0915 23.463C18.0915 23.463 23.6939 18.41 26.8881 15.5285C26.9831 15.4455 26.9952 15.3039 26.9174 15.2037C26.8397 15.1052 26.6998 15.081 26.5927 15.1484C22.8906 17.5117 16.3191 21.7096 16.3191 21.7096Z" fill="#897CFF"/>
  </symbol>
  <symbol id="icon-social-facebook" viewBox="0 0 43 42" fill="none">
    <path fill-rule="evenodd" clip-rule="evenodd" d="M21.6395 0.0273438C10.1912 0.0273438 0.90918 9.30936 0.90918 20.7577C0.90918 32.206 10.1912 41.488 21.6395 41.488C33.0879 41.488 42.3699 32.206 42.3699 20.7577C42.3699 9.30936 33.0879 0.0273438 21.6395 0.0273438ZM21.6395 3.4824C31.1651 3.4824 38.9148 11.2321 38.9148 20.7577C38.9148 30.2833 31.1651 38.033 21.6395 38.033C12.1139 38.033 4.36424 30.2833 4.36424 20.7577C4.36424 11.2321 12.1139 3.4824 21.6395 3.4824ZM29.6639 13.6852C29.1215 13.1859 26.9258 11.5932 22.0369 11.5707C22.0369 11.5707 16.2704 11.2235 13.4597 13.8027C11.8963 15.3661 11.3452 17.6551 11.2864 20.4951C11.2294 23.3352 11.1534 28.6542 16.2825 30.0967L16.2876 30.0984L16.2842 32.2993C16.2842 32.2993 16.2514 33.1907 16.8387 33.3738C17.5487 33.5932 17.9651 32.916 18.6423 32.1853C19.0154 31.7845 19.5285 31.1954 19.9155 30.7463C23.4223 31.04 26.1207 30.3662 26.4265 30.2677C27.1348 30.0363 31.1427 29.5232 31.794 24.2041C32.466 18.7192 31.4674 15.2503 29.6639 13.6852ZM30.2582 23.8085C29.7071 28.25 26.4593 28.5299 25.8599 28.7233C25.6042 28.8045 23.234 29.3936 20.2558 29.2001C20.2558 29.2001 18.0359 31.8778 17.3432 32.574C17.2343 32.6828 17.1065 32.7277 17.0218 32.707C16.9026 32.6777 16.8698 32.536 16.8716 32.3287L16.8906 28.6715H16.8888C12.551 27.4657 12.8049 22.9378 12.8533 20.5659C12.9034 18.1958 13.3491 16.2523 14.6724 14.9463C17.0495 12.7921 21.947 13.1151 21.947 13.1151C26.0827 13.1324 28.0642 14.3779 28.5237 14.796C30.0491 16.102 30.8265 19.2271 30.2582 23.8085ZM22.4515 24.0746C22.4515 24.0746 22.8402 24.1091 23.0492 23.85L23.4586 23.3369C23.6538 23.0812 24.1289 22.9188 24.5953 23.178C25.2103 23.5269 26.0067 24.0728 26.5526 24.5807C26.8532 24.8364 26.9223 25.2095 26.7185 25.6034L26.7167 25.6103C26.506 25.9835 26.2244 26.3307 25.8668 26.6572L25.8599 26.6624C25.4591 26.9975 24.9979 27.191 24.5055 27.0304L24.4951 27.0165C23.6106 26.7678 21.4875 25.6846 20.1331 24.6049C17.9184 22.8566 16.3447 19.9751 15.9093 18.4307L15.8955 18.4221C15.7348 17.928 15.93 17.4668 16.2635 17.0677L16.2704 17.0591C16.5951 16.7032 16.9441 16.4216 17.3155 16.2108L17.3242 16.2091C17.718 16.0035 18.0912 16.0726 18.3451 16.375C18.6785 16.7187 19.3074 17.5497 19.7479 18.3322C20.007 18.797 19.8446 19.272 19.5907 19.469L19.0759 19.8767C18.8167 20.0857 18.8513 20.4744 18.8513 20.4744C18.8513 20.4744 19.6114 23.349 22.4515 24.0746ZM26.924 21.6923H26.9206C26.7686 21.6923 26.6459 21.5696 26.6442 21.4176C26.6321 19.7505 26.1311 18.4221 25.1568 17.4702C24.179 16.5183 22.9455 16.0312 21.4875 16.0208C21.3355 16.0191 21.2128 15.8947 21.2146 15.7427C21.2146 15.5907 21.3389 15.468 21.491 15.468H21.4927C23.0976 15.4801 24.4606 16.0208 25.542 17.0746C26.6269 18.1336 27.1832 19.5933 27.197 21.4124C27.1987 21.5662 27.0761 21.6906 26.924 21.6923ZM25.4677 21.1239H25.4626C25.3088 21.1205 25.1879 20.9926 25.1913 20.8406C25.2138 19.8957 24.9426 19.1304 24.3673 18.5015C23.792 17.8727 23.0043 17.5307 21.9574 17.4547C21.8054 17.4426 21.6914 17.3113 21.7017 17.1593C21.7121 17.0055 21.8451 16.8915 21.9971 16.9036C23.1753 16.99 24.1099 17.4011 24.775 18.1284C25.4418 18.8574 25.7683 19.773 25.7441 20.8527C25.7407 21.003 25.618 21.1239 25.4677 21.1239ZM24.0494 20.6471C23.9026 20.6471 23.7817 20.5331 23.773 20.3846C23.7264 19.4465 23.2841 18.987 22.3824 18.9386C22.2303 18.93 22.1129 18.8004 22.1215 18.6484C22.1302 18.4946 22.2597 18.3789 22.4117 18.3858C23.6037 18.4514 24.2654 19.1321 24.3258 20.3569C24.3328 20.5107 24.2153 20.6402 24.0633 20.6471H24.0494Z" fill="#897CFF"/>
  </symbol>
  <symbol id="icon-footer-arrow" viewBox="0 0 35 36" fill="none">
    <circle cx="17.5138" cy="18.0416" r="17.1275" fill="white"/>
    <path d="M23.2933 21.239V12.2622M23.2933 12.2622H14.3165M23.2933 12.2622L11.7352 23.8203" stroke="#535353" stroke-width="2" stroke-linecap="round" stroke-linejoin="round"/>
  </symbol>
  <symbol id="icon-peco" viewBox="0 0 134 39" fill="none">
    <path d="M63.546 5.4262C62.6622 4.06026 61.457 3.01573 59.7696 2.29258C58.1627 1.56944 56.2343 1.24805 54.0649 1.24805H45.3068V26.3973H50.2885V19.2462H54.0649C56.2343 19.2462 58.1627 18.8445 59.7696 18.2017C61.3766 17.4786 62.6622 16.434 63.546 15.0681C64.4299 13.7021 64.8316 12.0952 64.8316 10.2471C64.8316 8.39911 64.3495 6.79213 63.546 5.4262ZM59.7696 10.2471C59.7696 11.7738 59.2876 12.8987 58.243 13.7825C57.2788 14.586 55.7522 14.9877 53.8238 14.9877H50.2081V5.50655H53.8238C55.7522 5.50655 57.2788 5.90829 58.243 6.71178C59.2876 7.51527 59.7696 8.72051 59.7696 10.2471Z" fill="#897CFF" />
    <path d="M72.1438 22.1388V15.7109H82.5088V11.5327H72.1438V5.4262H84.0354V1.24805H67.1621V26.3973H84.5175V22.1388H72.1438Z" fill="#897CFF" />
    <path d="M103.799 20.7725C102.353 21.7367 100.746 22.2992 98.8979 22.2992C97.2106 22.2992 95.7643 21.8974 94.3983 21.1743C93.1128 20.4511 92.0682 19.4066 91.3451 18.121C90.6219 16.8354 90.2202 15.3891 90.2202 13.7018C90.2202 12.0948 90.6219 10.5682 91.3451 9.28262C92.0682 7.99704 93.1128 6.9525 94.3983 6.22936C95.6839 5.50622 97.2106 5.10447 98.8979 5.10447C100.585 5.10447 102.192 5.58657 103.478 6.39006L106.37 2.93505C105.728 2.45295 105.004 2.13156 104.281 1.81016C102.594 1.08702 100.666 0.765625 98.6568 0.765625C96.166 0.765625 93.8359 1.32807 91.7468 2.45295C89.7381 3.57784 88.0508 5.10447 86.9259 7.03285C85.7206 8.96123 85.1582 11.211 85.1582 13.7018C85.1582 16.1926 85.7206 18.3621 86.9259 20.3708C88.0508 22.2992 89.7381 23.9061 91.7468 24.9507C93.7555 26.0756 96.0857 26.638 98.6568 26.638C100.666 26.638 102.594 26.2363 104.281 25.5935C105.085 25.2721 105.888 24.79 106.531 24.3079L103.799 20.7725Z" fill="#897CFF" />
    <path d="M131.603 7.11293C130.397 5.18455 128.79 3.57757 126.782 2.53303C124.773 1.40815 122.443 0.845703 119.872 0.845703C117.301 0.845703 114.97 1.40815 112.962 2.53303C110.953 3.65792 109.266 5.18455 108.141 7.19328C106.935 9.12165 106.373 11.3714 106.373 13.7819C106.373 16.1924 106.935 18.4421 108.141 20.3705C109.346 22.3792 110.953 23.9059 112.962 25.0308C114.97 26.1556 117.301 26.7181 119.872 26.7181C122.443 26.7181 124.773 26.1556 126.782 25.0308C128.871 23.9059 130.478 22.3792 131.603 20.4509C132.808 18.5225 133.37 16.2727 133.37 13.7819C133.37 11.3714 132.808 9.12165 131.603 7.11293ZM128.389 13.7819C128.389 15.3889 127.987 16.8352 127.264 18.2011C126.541 19.4867 125.496 20.5312 124.211 21.2544C122.925 21.9775 121.479 22.3792 119.872 22.3792C118.265 22.3792 116.818 21.9775 115.533 21.2544C114.247 20.5312 113.203 19.4867 112.48 18.2011C111.756 16.9155 111.355 15.4692 111.355 13.7819C111.355 12.1749 111.756 10.7286 112.48 9.3627C113.203 8.07712 114.247 7.03258 115.533 6.30944C116.818 5.5863 118.265 5.18455 119.872 5.18455C121.479 5.18455 122.925 5.5863 124.211 6.30944C125.496 7.03258 126.541 8.07712 127.264 9.3627C127.987 10.7286 128.389 12.1749 128.389 13.7819Z" fill="#897CFF" />
    <path d="M49.485 34.2719H46.9138V38.6911H45.3068V32.9863H49.485V34.2719Z" fill="#897CFF" />
    <path d="M59.449 37.5662H57.0386L56.5565 38.6911H54.8691L57.4403 32.9863H59.0473L61.6185 38.6911H59.9311L59.449 37.5662ZM58.9669 36.361L58.2438 34.513L57.5207 36.361H58.9669Z" fill="#897CFF" />
    <path d="M71.5836 33.2274C71.9853 33.3881 72.2264 33.6291 72.4674 33.9505C72.7085 34.2719 72.7888 34.6737 72.7888 35.0754C72.7888 35.4771 72.7085 35.8789 72.4674 36.2003C72.2264 36.5217 71.9853 36.7627 71.5836 36.9234C71.1818 37.0841 70.7801 37.1645 70.2177 37.1645H69.2535V38.6911H67.6465V32.9863H70.298C70.6998 32.9863 71.1818 33.0667 71.5836 33.2274ZM70.8604 35.7182C71.0211 35.5575 71.1015 35.3968 71.1015 35.0754C71.1015 34.8344 71.0211 34.5933 70.8604 34.4326C70.6997 34.2719 70.4587 34.1916 70.1373 34.1916H69.2535V35.8789H70.1373C70.4587 35.8789 70.6997 35.8789 70.8604 35.7182Z" fill="#897CFF" />
    <path d="M82.9881 37.5662H80.5776L80.0955 38.6911H78.4082L80.9794 32.9863H82.5864L85.1575 38.6911H83.4702L82.9881 37.5662ZM82.506 36.361L81.7829 34.513L81.0597 36.361H82.506Z" fill="#897CFF" />
    <path d="M97.2096 32.9863V38.6911H95.6026V36.4413H93.4332V38.6911H91.8262V32.9863H93.4332V35.0754H95.6026V32.9863H97.2096Z" fill="#897CFF" />
    <path d="M109.023 34.2719H107.256V38.6911H105.649V34.2719H103.881V32.9863H109.023V34.2719Z" fill="#897CFF" />
    <path d="M115.369 32.9863H116.896V36.361L119.306 32.9863H120.833V38.6911H119.226V35.3165L116.896 38.6911H115.369V32.9863Z" fill="#897CFF" />
    <path d="M131.518 32.9863V38.6911H129.911V37.2448H129.027L128.063 38.6911H126.375L127.5 37.0038C127.098 36.8431 126.857 36.602 126.616 36.2806C126.456 35.9592 126.295 35.5575 126.295 35.1558C126.295 34.6737 126.375 34.3523 126.616 34.0309C126.857 33.7095 127.098 33.4684 127.5 33.3077C127.902 33.147 128.304 33.0667 128.866 33.0667H131.518V32.9863ZM127.982 35.0754C127.982 35.3968 128.063 35.5575 128.223 35.7182C128.384 35.8789 128.625 35.9592 128.946 35.9592H129.911V34.1916H128.946C128.304 34.2719 127.982 34.513 127.982 35.0754Z" fill="#897CFF" />
    <path d="M37.7532 26.4779L37.5121 24.1478C37.0301 19.7286 35.5838 16.1932 33.4143 13.4614C31.4056 10.9706 28.8345 9.12252 25.6205 7.83694V1.16797L23.2904 1.40902C18.8712 1.89111 15.3358 3.33739 12.6039 5.50682C10.1131 7.51554 8.2651 10.0867 6.97952 13.3007H0.310547L0.551594 15.6308C1.03369 20.05 2.47997 23.5853 4.64939 26.3172C6.65812 28.808 9.22929 30.6561 12.4433 31.9416V38.6106L14.7734 38.3696C19.1926 37.8875 22.7279 36.4412 25.4598 34.2718C27.9506 32.263 29.7986 29.6919 31.0842 26.4779H37.7532ZM22.969 31.0578C21.2816 32.4237 19.1926 33.3879 16.6214 33.9504V20.291H12.4433V27.6028C10.5952 26.6386 9.06859 25.4334 7.86336 23.9067C6.49742 22.2194 5.53323 20.1303 4.97079 17.5592H18.7105V13.4614H11.3987C12.3629 11.6133 13.5681 10.0867 15.0948 8.88148C16.7821 7.51554 18.8712 6.55135 21.4423 5.98891V19.8893H25.5401V12.4168C27.3882 13.381 28.9148 14.5863 30.12 16.1129C31.486 17.8002 32.4502 19.8893 33.0126 22.4605H19.4336V26.5583H26.5847C25.7008 28.3259 24.4956 29.8526 22.969 31.0578Z" fill="#897CFF" />
  </symbol>
  <symbol id="icon-ingosstrax" viewBox="0 0 209 23" fill="none">
    <path d="M19.7563 22.6412H15.0802V8.38476L4.81556 22.6412H0.310547V0.914419H5.04367V15.1708L15.3653 0.914419H19.7563V22.6412ZM23.1778 0.971444H27.9679V9.52528H37.5482V0.971444H42.3384V22.6412H37.5482V13.9162H27.9679V22.6412H23.1778V0.971444ZM50.493 22.6412H45.7599V0.914419H60.4725V5.24836H50.493V22.6412ZM83.4538 11.8063C83.4538 5.19134 78.6636 0.686317 72.0487 0.572266H71.9346C65.3197 0.629291 60.5295 5.19133 60.5295 11.7493C60.5295 18.3642 65.3197 22.8693 71.9346 22.9263H72.0487C78.6636 22.9263 83.4538 18.3642 83.4538 11.8063ZM71.9916 18.5923C68.1709 18.5923 65.4907 15.9692 65.4907 11.8063C65.4907 7.58641 68.1709 5.02026 71.9916 5.02026C75.8123 5.02026 78.4925 7.64343 78.4925 11.8063C78.4925 15.9692 75.8123 18.5923 71.9916 18.5923ZM133.351 5.36241H126.337V0.971444H145.098V5.36241H138.141V22.6412H133.351V5.36241ZM148.007 0.971444H157.758C162.947 0.971444 166.084 4.05082 166.084 8.49882C166.084 13.5171 162.206 16.1402 157.302 16.1402H152.797V22.6412H148.007V0.971444ZM157.416 11.8633C159.811 11.8633 161.18 10.4377 161.18 8.49882C161.18 6.38887 159.697 5.19133 157.302 5.19133H152.74V11.8063H157.416V11.8633ZM208.796 22.6412L201.097 11.5212L208.454 0.914419H202.979L198.36 7.58641L193.741 0.914419H188.096L195.509 11.6352L187.81 22.6412H193.285L198.246 15.513L203.15 22.6412H208.796ZM182.45 22.6412H187.297L178.002 0.800368H173.611L164.316 22.6412H169.163L171.216 17.6229H180.397L182.45 22.6412ZM172.927 13.403L175.835 6.61697L178.743 13.403H172.927ZM96.9688 18.5923C93.1481 18.5923 90.4679 15.9692 90.4679 11.8063C90.4679 7.58641 93.1481 5.02026 96.9688 5.02026C98.9647 5.02026 100.618 5.59051 102.044 6.78805L105.009 3.82272C103.014 1.88385 100.333 0.629291 97.0258 0.629291H96.9118C90.2968 0.686317 85.5067 5.24836 85.5067 11.8063C85.5067 18.4213 90.2968 22.9263 96.9118 22.9833H97.0258C100.276 22.9263 102.957 21.6717 105.009 19.7899L102.044 16.8245C100.618 18.0221 98.9647 18.5923 96.9688 18.5923ZM116.871 18.5923C113.05 18.5923 110.37 15.9692 110.37 11.8063C110.37 7.58641 113.05 5.02026 116.871 5.02026C118.867 5.02026 120.52 5.59051 121.946 6.78805L124.911 3.82272C122.915 1.88385 120.235 0.629291 116.928 0.629291H116.814C110.199 0.686317 105.409 5.24836 105.409 11.8063C105.409 18.4213 110.199 22.9263 116.814 22.9833H116.928C120.178 22.9263 122.858 21.6717 124.911 19.7899L121.946 16.8245C120.52 18.0221 118.867 18.5923 116.871 18.5923Z" fill="#897CFF" />
  </symbol>
  <symbol id="icon-lab" viewBox="0 0 48 48" fill="none">
    <path d="M30.2012 10V23.3944C30.2012 23.7893 30.318 24.1753 30.5371 24.5038L40.1282 38.8906C41.0143 40.2197 40.0615 42 38.4641 42H9.93821C8.34081 42 7.38803 40.2197 8.27411 38.8906L17.8653 24.5038C18.0843 24.1753 18.2012 23.7893 18.2012 23.3944V10" stroke="#897CFF" stroke-width="2" stroke-linejoin="round" />
    <path d="M34.0012 36.4L29.8012 30.8C29.4235 30.2964 28.8307 30 28.2012 30H20.2012C19.5717 30 18.9789 30.2964 18.6012 30.8L14.4012 36.4C13.9067 37.0592 14.3771 38 15.2012 38H33.2012C34.0252 38 34.4956 37.0592 34.0012 36.4Z" stroke="#897CFF" stroke-width="2" stroke-linejoin="round" />
    <path d="M14.2012 10H34.2012" stroke="#897CFF" stroke-width="2" stroke-linecap="round" stroke-linejoin="round" />
  </symbol>
  <symbol id="icon-amb" viewBox="0 0 48 48" fill="none">
    <path d="M7.20398 23.477C7.20398 20.1799 7.20398 18.5313 7.87046 17.0823C8.53695 15.6332 9.78861 14.5603 12.2919 12.4146L14.7203 10.3332C19.245 6.45481 21.5074 4.51563 24.2023 4.51562C26.8972 4.51562 29.1596 6.45481 33.6843 10.3332L36.1127 12.4146C38.616 14.5603 39.8677 15.6332 40.5342 17.0823C41.2006 18.5313 41.2006 20.1799 41.2006 23.477V33.774C41.2006 38.353 41.2006 40.6424 39.7782 42.0649C38.3557 43.4874 36.0662 43.4874 31.4873 43.4874H16.9173C12.3384 43.4874 10.0489 43.4874 8.62646 42.0649C7.20398 40.6424 7.20398 38.353 7.20398 33.774V23.477Z" stroke="#897CFF" stroke-width="2" />
    <path d="M30.2706 43.486V29.7228C30.2706 29.2772 29.9094 28.916 29.4639 28.916H18.9357C18.4902 28.916 18.129 29.2772 18.129 29.7228V43.486" stroke="#897CFF" stroke-width="2" stroke-linecap="round" stroke-linejoin="round" />
    <path d="M24.1993 13.4062V23.1196" stroke="#897CFF" stroke-width="2" stroke-linecap="round" />
    <path d="M19.3462 18.2617L29.0595 18.2617" stroke="#897CFF" stroke-width="2" stroke-linecap="round" />
  </symbol>
  <symbol id="icon-tel" viewBox="0 0 48 48" fill="none">
    <path d="M35.8966 27.4142L41.1929 32.7105C41.9051 33.4227 41.9051 34.5773 41.1929 35.2895C37.3424 39.14 31.2467 39.5732 26.8904 36.306L23.7396 33.9429C20.2525 31.3276 17.1549 28.2299 14.5396 24.7429L12.1764 21.592C8.90924 17.2358 9.34245 11.14 13.1929 7.28954C13.9051 6.57735 15.0598 6.57734 15.772 7.28954L21.0682 12.5858C21.8493 13.3668 21.8493 14.6332 21.0682 15.4142L19.0259 17.4565C18.7013 17.7811 18.6209 18.2769 18.8262 18.6875C21.1995 23.4341 25.0483 27.2829 29.795 29.6563C30.2055 29.8615 30.7013 29.7811 31.0259 29.4565L33.0682 27.4142C33.8493 26.6332 35.1156 26.6332 35.8966 27.4142Z" stroke="#897CFF" stroke-width="2.76923" />
  </symbol>
  <symbol id="icon-human" viewBox="0 0 49 49" fill="none" >
    <path d="M44.554 45.7693C43.6068 43.3584 42.9822 41.4498 42.48 39.9148C41.4613 36.8058 40.9 35.0931 39.1322 33.8376C37.4358 32.6352 34.6616 31.9167 29.5458 30.6858L28.3169 28.4015C29.0559 27.9197 29.7214 27.2808 30.2991 26.4928C30.9136 25.6579 31.4361 24.6475 31.8546 23.488C32.1915 22.5592 32.4609 21.5303 32.6589 20.4259C33.108 20.2198 33.4898 19.8788 33.7715 19.4216C34.0797 18.9214 34.2512 18.309 34.2512 17.6966C34.2512 17.0373 34.0573 16.4534 33.7205 16.0145C33.7225 16.0104 33.7225 16.0063 33.7245 16.0023C34.2492 14.0364 34.2573 12.2155 33.745 10.5909C33.2775 9.10887 32.3711 7.82075 31.1239 6.86337C30.4114 6.31627 29.599 5.88148 28.7089 5.57117C27.8373 5.26701 26.9105 5.09145 25.9572 5.04654C24.0383 4.95672 22.146 5.3997 20.47 6.3285C19.6107 6.29992 18.8145 6.48568 18.1041 6.87763C17.3958 7.26957 16.8079 7.84526 16.3547 8.59235C15.2013 10.4969 15.1748 13.1139 16.2404 15.3123C15.3258 15.6348 14.744 16.5534 14.744 17.6986C14.744 18.3111 14.9135 18.9255 15.2238 19.4236C15.5055 19.8808 15.8851 20.2217 16.3363 20.4279C16.5343 21.5323 16.8038 22.5591 17.1406 23.49C17.5591 24.6474 18.0817 25.6579 18.6961 26.4949C19.2555 27.2563 19.8944 27.8789 20.6027 28.3545L19.4391 30.6899C14.3297 31.9208 11.5596 32.6374 9.86327 33.8397C8.09342 35.0951 7.5341 36.8078 6.51547 39.9168C6.0133 41.4499 5.38867 43.3606 4.44143 45.7714C4.31691 46.0878 4.47205 46.443 4.78846 46.5675C4.86195 46.5961 4.93748 46.6103 5.01301 46.6103C5.25797 46.6103 5.48865 46.4634 5.58461 46.2205C6.54403 43.7769 7.17688 41.8479 7.68311 40.3006C8.65074 37.3468 9.13653 35.8627 10.5757 34.8422C12.0476 33.799 14.6217 33.1172 19.3228 31.9822C19.4208 32.4823 19.6168 32.9661 19.9066 33.4254C20.2741 34.0093 20.7865 34.5502 21.4703 35.081C22.6686 36.0098 24.1914 36.7263 25.4142 37.302C25.6857 37.4306 25.949 37.5531 26.192 37.6715V45.9942C26.192 46.3331 26.4676 46.6086 26.8064 46.6086C27.1453 46.6086 27.4209 46.3331 27.4209 45.9942V37.29C27.4209 37.0593 27.2903 36.847 27.0841 36.7429C26.7779 36.5877 26.4431 36.4285 26.0858 36.2611C26.9473 35.9712 27.6271 35.5997 28.1721 35.1241C28.6824 34.6791 29.0744 34.1361 29.3357 33.5114C29.5276 33.0562 29.6521 32.5458 29.7134 31.9886C34.3921 33.1174 36.958 33.7992 38.4259 34.8403C39.8651 35.861 40.3509 37.343 41.3185 40.2987C41.8268 41.8481 42.4576 43.7751 43.417 46.2186C43.513 46.4595 43.7437 46.6085 43.9887 46.6085C44.0642 46.6085 44.1397 46.5942 44.2132 46.5656C44.5235 46.4411 44.6785 46.0837 44.554 45.7693ZM17.402 9.22898C18.1063 8.06539 19.2331 7.4734 20.5722 7.56323C20.6947 7.5714 20.8151 7.54282 20.9213 7.48158C23.9424 5.73828 27.8272 5.8832 30.3728 7.83678C32.5489 9.5066 33.347 12.1216 32.6469 15.2345C28.0803 15.1182 23.4546 13.3401 20.7538 10.6394C20.5987 10.4843 20.3721 10.423 20.1598 10.4802C19.9475 10.5373 19.7821 10.7027 19.725 10.915C19.282 12.5665 18.3573 14.024 17.3427 14.7793C16.4527 12.9482 16.4589 10.7845 17.402 9.22898ZM19.6822 25.7662C18.6431 24.3516 17.8837 22.3143 17.4836 19.8751C17.4449 19.6363 17.2693 19.4444 17.0366 19.3811C16.3038 19.1851 15.9689 18.3706 15.9689 17.699C15.9689 17.1907 16.1649 16.5967 16.712 16.4497C17.6265 16.2048 18.5186 15.5474 19.2943 14.5472C19.823 13.8654 20.2742 13.0468 20.6049 12.1771C22.0767 13.4408 23.9384 14.49 26.045 15.2372C28.0537 15.9496 30.193 16.366 32.2873 16.4538C32.8262 16.6048 33.0201 17.1948 33.0201 17.699C33.0201 18.3727 32.6853 19.1851 31.9525 19.3811C31.7198 19.4444 31.5442 19.6363 31.5054 19.8751C31.1074 22.3146 30.3459 24.3518 29.3069 25.7662C28.0882 27.4259 26.4694 28.2669 24.4934 28.2669C22.5215 28.2669 20.9008 27.4259 19.6822 25.7662ZM24.3814 35.4362C22.4727 34.4543 20.5661 33.1723 20.4762 31.3555L21.6806 28.9406C22.54 29.308 23.4852 29.4958 24.4977 29.4958C25.4776 29.4958 26.3941 29.3203 27.2311 28.9753L28.5192 31.3698C28.4681 33.6786 27.2576 34.8626 24.3814 35.4362Z" fill="#897CFF" stroke="#897CFF"/>
  </symbol>
  <symbol id="icon-rect-paths" viewBox="0 0 40 40" fill="none" stroke="#897CFF" stroke-width="2" >
    <rect x="5.96469" y="11.0781" width="29.0628" height="24.219" rx="5" />
    <path d="M7.57928 19.1504H33.4129" stroke-linecap="round" />
    <path d="M15.6523 27.2246H25.3399" stroke-linecap="round" />
    <path d="M14.0377 6.23438L14.0377 12.6928" stroke-linecap="round" />
    <path d="M26.9543 6.23438L26.9543 12.6928" stroke-linecap="round" />
  </symbol>
  <symbol id="icon-circle-clock" viewBox="0 0 40 40" fill="none" stroke="#897CFF" stroke-width="2">
    <circle cx="20.4961" cy="20.765" r="14.3333" />
    <path d="M27.9961 20.765H21.1211C20.7759 20.765 20.4961 20.4852 20.4961 20.14V14.9316" stroke-linecap="round" />
  </symbol>
  <symbol id="icon-shield-clock-alt" viewBox="0 0 40 40" fill="none" stroke="#897CFF" stroke-width="2" stroke-linecap="round" stroke-linejoin="round">
    <path d="M6.33176 20.3285C6.33176 17.5809 6.33176 16.2071 6.88716 14.9995C7.44256 13.792 8.48562 12.8979 10.5717 11.1098L12.5953 9.3753C16.366 6.14333 18.2513 4.52734 20.497 4.52734C22.7428 4.52734 24.6281 6.14333 28.3987 9.3753L30.4223 11.1098C32.5084 12.8979 33.5515 13.792 34.1069 14.9995C34.6623 16.2071 34.6623 17.5809 34.6623 20.3285V28.9094C34.6623 32.7251 34.6623 34.633 33.4769 35.8184C32.2915 37.0038 30.3836 37.0038 26.5679 37.0038H14.4262C10.6104 37.0038 8.70256 37.0038 7.51716 35.8184C6.33176 34.633 6.33176 32.7251 6.33176 28.9094V20.3285Z" />
    <path d="M25.554 37.003V25.8698C25.554 25.3128 25.1025 24.8613 24.5455 24.8613H16.4444C15.8874 24.8613 15.4359 25.3128 15.4359 25.8698V37.003" />
    <path d="M20.4945 11.9355V20.03" />
    <path d="M16.4503 15.9844L24.5447 15.9844" />
  </symbol>
  <symbol id="icon-ellipse-clock" viewBox="0 0 30 30" fill="none" stroke="#897CFF" stroke-width="2.24538">
    <ellipse cx="14.9961" cy="16.7656" rx="10.875" ry="12" />
    <path d="M15.6003 10.7663C15.6003 11.1345 15.3298 11.4329 14.9961 11.4329C14.6624 11.4329 14.3919 11.1345 14.3919 10.7663C14.3919 10.3981 14.6624 10.0996 14.9961 10.0996C15.3298 10.0996 15.6003 10.3981 15.6003 10.7663Z" fill="#897CFF" stroke="#897CFF" />
    <path d="M14.9961 23.4329V14.0996" />
  </symbol>
</svg>