<svg width="68" height="68" viewBox="0 0 68 68" fill="none" xmlns="http://www.w3.org/2000/svg">
<path d="M49.2879 9.61001L35.8498 6.2105C35.7247 6.1789 35.5944 6.17318 35.467 6.19368C35.3396 6.21418 35.2177 6.26048 35.1088 6.32973C34.9999 6.39897 34.9062 6.48972 34.8336 6.59641C34.761 6.7031 34.711 6.82349 34.6865 6.95021L32.0185 20.7923C31.9941 20.9191 31.9958 21.0495 32.0236 21.1755C32.0514 21.3016 32.1046 21.4206 32.1801 21.5254C32.2555 21.6302 32.3515 21.7184 32.4622 21.7848C32.5729 21.8512 32.696 21.8942 32.8239 21.9114L36.1672 22.359V30.908H33.2115C32.96 30.908 32.7188 31.008 32.5409 31.1858C32.3631 31.3637 32.2631 31.6049 32.2631 31.8564V60.8695C32.2631 61.1211 32.3631 61.3623 32.5409 61.5401C32.7188 61.718 32.96 61.8179 33.2115 61.8179H45.8998C46.1513 61.8179 46.3925 61.718 46.5704 61.5401C46.7482 61.3623 46.8481 61.1211 46.8481 60.8695V31.8564C46.8481 31.6049 46.7482 31.3637 46.5704 31.1858C46.3925 31.008 46.1513 30.908 45.8998 30.908H43.1767V26.6929C43.1767 26.4414 43.0768 26.2002 42.899 26.0224C42.7211 25.8445 42.4799 25.7446 42.2284 25.7446C41.9769 25.7446 41.7357 25.8445 41.5578 26.0224C41.38 26.2002 41.28 26.4414 41.28 26.6929V30.908H38.0639V22.6125L46.5624 23.7505C46.7432 23.7749 46.9255 23.7872 47.108 23.7872C48.1106 23.7709 49.0765 23.407 49.8406 22.7577C50.6048 22.1084 51.1198 21.2139 51.2978 20.2271L52.3726 14.6426C52.5968 13.5686 52.4023 12.4495 51.829 11.5141C51.2556 10.5787 50.3467 9.89761 49.2879 9.61001ZM44.9514 59.9212H34.1598V55.708H41.0189C41.2705 55.708 41.5117 55.6081 41.6895 55.4302C41.8674 55.2524 41.9673 55.0112 41.9673 54.7597C41.9673 54.5081 41.8674 54.2669 41.6895 54.0891C41.5117 53.9112 41.2705 53.8113 41.0189 53.8113H34.1598V32.8047H44.9514V59.9212ZM50.5113 14.2828L49.4365 19.8674C49.3365 20.4721 49.0097 21.0161 48.5227 21.3883C48.0357 21.7606 47.4251 21.9332 46.8152 21.8709L45.4433 21.6869L47.4999 14.4118C47.5684 14.1698 47.538 13.9104 47.4153 13.6908C47.2926 13.4713 47.0876 13.3094 46.8456 13.2409C46.6035 13.1724 46.3442 13.2029 46.1246 13.3256C45.905 13.4483 45.7432 13.6532 45.6747 13.8953L43.5434 21.4328L34.0707 20.1645L36.3587 8.2956L48.8226 11.4485C49.412 11.6172 49.9149 12.0043 50.2287 12.531C50.5425 13.0576 50.6436 13.6842 50.5113 14.2828Z" fill="#897CFF"/>
<path d="M19.6495 10.5456C31.1283 11.8923 31.8099 9.8173 32.0666 9.03522C32.1458 8.7955 32.1271 8.53417 32.0145 8.30819C31.9018 8.08222 31.7044 7.90994 31.4653 7.82892C31.3479 7.78915 31.2238 7.77303 31.1002 7.78148C30.9766 7.78993 30.8558 7.8228 30.745 7.87817C30.6341 7.93354 30.5353 8.01033 30.4543 8.1041C30.3733 8.19787 30.3116 8.30676 30.2729 8.42449C30.02 8.80003 27.6637 9.57831 19.8708 8.66157C19.2262 8.58544 18.5766 8.75609 18.0527 9.13925C17.5288 9.5224 17.1693 10.0897 17.0464 10.727C16.9236 11.3644 17.0466 12.0246 17.3906 12.575C17.7346 13.1255 18.2742 13.5253 18.9009 13.6941C25.6247 15.5112 28.3433 17.1651 28.4698 17.76C28.4538 18.0108 28.5381 18.2577 28.7041 18.4464C28.87 18.6352 29.1041 18.7503 29.3549 18.7666C29.3751 18.7666 29.3954 18.7666 29.4181 18.7666C29.6585 18.7663 29.8898 18.6747 30.0653 18.5104C30.2408 18.3461 30.3473 18.1213 30.3633 17.8814C30.4158 17.0595 30.553 14.8771 19.3972 11.8632C19.2344 11.818 19.0945 11.7132 19.0054 11.5696C18.9163 11.426 18.8845 11.2541 18.9164 11.0881C18.9483 10.9221 19.0414 10.7742 19.1774 10.6738C19.3134 10.5734 19.4821 10.5279 19.6501 10.5463L19.6495 10.5456Z" fill="#897CFF"/>
</svg>
