<svg width="68" height="68" viewBox="0 0 68 68" fill="none" xmlns="http://www.w3.org/2000/svg">
<path d="M27.0844 0.000594009C24.6242 0.0226442 22.165 0.65275 19.9407 1.89714C5.92383 9.17473 5.76276 24.53 5.76276 25.1805V27.5229C5.76276 38.3112 -4.53585 29.4857 2.40177 58.264C4.80988 68.2557 13.5765 70.0687 18.897 65.9211C22.4576 63.1548 23.9965 59.1364 25.923 56.3623L45.3364 60.1157C45.3663 63.0243 47.5936 65.4377 50.4904 65.7003C53.3873 65.963 56.0125 63.9895 56.565 61.1338C57.1176 58.278 55.4181 55.4675 52.6324 54.6307C49.8466 53.7939 46.8796 55.2025 45.767 57.89L27.6976 54.3973C33.2752 49.9769 38.0256 44.6032 41.7282 38.5253H56.7818C57.3782 41.4467 60.1365 43.4062 63.0914 43.0073C66.0463 42.6085 68.1867 39.9879 67.9871 37.0129C67.7876 34.0379 65.3165 31.7267 62.3348 31.7261C59.6433 31.7295 57.324 33.6225 56.7818 36.2589H43.0031C46.643 29.31 47.5518 23.1884 45.0734 15.7125L44.2654 13.5786C42.445 8.9583 39.2501 5.00809 35.1124 2.26208C32.6622 0.732206 29.8727 -0.024282 27.0844 0.000594009ZM27.4789 2.28102C33.7326 2.37508 39.0961 7.30967 42.0623 14.1337C42.4738 15.1373 42.5233 15.252 42.8817 16.2655C45.3362 23.5589 44.2676 29.4199 40.4158 36.2589H38.1369C41.8042 30.445 42.8637 23.359 41.0572 16.7267C40.871 16.0622 40.5185 15.1754 40.3048 14.578C36.7385 5.82721 27.99 1.56639 19.7719 6.84836C7.91604 14.467 15.9269 32.0058 16.0096 32.1849C16.174 32.5624 16.5301 32.8212 16.94 32.8606C17.3499 32.9 17.7491 32.7138 17.9824 32.3745C18.2157 32.0351 18.2464 31.5959 18.0628 31.2273C17.0382 28.8434 16.3029 26.3454 15.8724 23.7866C19.0761 24.3271 26.3128 25.9761 28.8059 30.1078C30.4921 32.9069 30.193 34.6406 28.892 36.2589H22.6717C22.0458 36.2589 21.5385 36.7662 21.5385 37.3921C21.5385 38.018 22.0458 38.5253 22.6717 38.5253H26.3299C22.5577 40.8795 18.5342 42.8052 14.3346 44.2663C13.7589 44.4956 13.4742 45.1449 13.6955 45.7237C13.9167 46.3026 14.562 46.5962 15.1438 46.3831C22.7557 43.4695 27.395 41.0241 29.8904 38.5253H33.1157C30.0775 41.3856 26.7819 43.8413 23.9364 49.3363C23.6485 49.8921 23.8657 50.5761 24.4214 50.864C24.9772 51.1519 25.6612 50.9348 25.9491 50.379C29.129 44.2494 33 42.1222 36.3192 38.5253H39.0559C35.6811 43.7867 31.4757 48.4662 26.603 52.3814C26.0012 52.8075 25.456 53.3087 24.9812 53.8728L15.6128 52.0595C15.2152 51.9828 14.8071 52.124 14.5418 52.4299C14.2766 52.7358 14.1947 53.1602 14.3271 53.5429C14.4594 53.9255 14.7859 54.2085 15.1835 54.2852L23.5126 55.8954C21.7311 58.7285 20.3396 61.9265 17.5065 64.1306C13.3135 67.4033 6.57303 65.8883 4.60802 57.7313C3.64251 53.7378 0.711994 41.5852 3.32748 37.5169C5.48061 34.1637 8.02944 33.8622 8.02944 27.5229V25.1805C8.02944 25.0354 8.17671 10.5551 20.9844 3.9099C23.211 2.75627 25.3944 2.24966 27.4789 2.28102ZM27.1319 6.80712C31.8235 6.78913 35.9548 10.1289 38.1006 15.1344L38.8689 17.2739C40.7308 23.7095 39.2089 31.5526 35.2879 36.2532L31.5766 36.2589C32.8061 33.7794 32.1831 31.3238 30.745 28.9373C27.6411 23.7935 19.2857 22.0008 15.5868 21.4455C15.2582 16.8944 16.226 11.8209 20.9969 8.75321C23.0703 7.42096 25.151 6.81474 27.1319 6.80712ZM10.5762 32.4803C10.2084 32.4734 9.83608 32.5337 9.47753 32.6655C8.45762 33.0882 7.24509 34.3234 7.24509 37.8035C7.30021 38.7733 6.90678 39.7148 6.17776 40.3568C4.44165 42.2685 4.56746 43.4913 5.04455 45.8473C5.05627 45.8832 5.06982 45.9182 5.08527 45.9526C5.25489 47.0978 5.9696 49.7372 7.15807 50.6784C7.39358 50.8649 7.74471 51.1962 8.14681 51.2434C8.54892 51.2904 8.9457 51.1198 9.18769 50.7952C9.42967 50.4706 9.48009 50.0416 9.31997 49.6698C8.50458 49.3562 7.30519 47.117 7.59991 46.4161C10.28 45.5707 13.0314 43.6965 13.9256 40.9767C14.3629 39.4829 14.3701 37.8961 13.946 36.3985C14.4611 36.5029 13.702 36.4964 14.2274 36.5066C14.8533 36.5066 15.3606 35.9993 15.3606 35.3734C15.3606 34.7475 14.8533 34.2402 14.2274 34.2402C13.2383 34.2554 13.5522 34.0207 12.7436 33.4509C12.1727 32.8342 11.3854 32.4951 10.5762 32.4803ZM62.3348 33.9925C64.2124 33.9925 65.7344 35.5145 65.7344 37.3921C65.7344 39.2697 64.2124 40.7917 62.3348 40.7917C60.4572 40.7917 58.9349 39.2697 58.9349 37.3921C58.9349 35.5145 60.4572 33.9925 62.3348 33.9925ZM10.5174 34.7281C10.6882 34.7259 10.8843 34.8159 11.1082 35.0248C11.9167 36.6504 12.1504 38.502 11.7712 40.2774C11.1456 42.1801 9.05042 43.5525 7.03214 44.2132C6.88273 43.3451 7.19457 42.4617 7.85592 41.8798C8.9623 40.8169 9.56425 39.3335 9.51151 37.8001C9.51151 36.4789 9.77711 34.7373 10.5174 34.7281ZM50.9838 56.6582C51.6421 56.6548 52.3014 56.8421 52.8749 57.2208C54.0219 57.9782 54.6001 59.352 54.3398 60.7016C54.0782 62.051 53.0297 63.1101 51.6831 63.3854C50.3364 63.6607 48.9566 63.0978 48.1864 61.9593C47.6748 61.2154 47.4867 60.2958 47.6651 59.4107C47.8337 58.5248 48.35 57.7432 49.0986 57.2405C49.6681 56.8558 50.3255 56.6617 50.9838 56.6582Z" fill="#897CFF"/>
</svg>
