<svg width="68" height="68" viewBox="0 0 68 68" fill="none" xmlns="http://www.w3.org/2000/svg">
<path d="M38.1935 66.1566L29.2605 66.1587C28.6682 66.1587 28.1876 65.6781 28.1876 65.0858C28.1876 64.9034 28.2326 64.7318 28.3142 64.5816C33.8289 51.4727 31.3226 43.016 28.7112 34.2139C27.2971 29.4416 25.8508 24.5684 25.5589 18.7833C23.0719 18.794 21.3639 18.9056 19.1923 19.9957C19.4713 20.3154 19.7352 20.648 19.9798 20.9849C20.5163 21.7316 20.9798 22.5342 21.3553 23.3753C21.7308 24.2165 22.0226 25.092 22.2158 25.9868C22.4089 26.8795 22.5097 27.7957 22.5183 28.7141C22.5269 29.6433 22.4432 30.5595 22.2673 31.4479C22.0913 32.3363 21.8188 33.2182 21.4561 34.0744C21.1021 34.9156 20.6557 35.7245 20.1257 36.4885C19.6815 37.1301 19.0185 37.5335 18.3082 37.6622C17.598 37.7931 16.834 37.6493 16.1924 37.2073C15.5508 36.7631 15.1474 36.1001 15.0165 35.3898C14.8856 34.6795 15.0294 33.9156 15.4714 33.274C15.7783 32.832 16.0358 32.3642 16.2375 31.8835C16.4414 31.4029 16.5959 30.89 16.701 30.3621C16.8061 29.83 16.8576 29.2935 16.8534 28.7678C16.8491 28.2506 16.789 27.7185 16.6731 27.1842C16.5551 26.6434 16.3899 26.1327 16.1817 25.6649C15.9607 25.1735 15.6946 24.7122 15.392 24.2895C15.1968 24.0169 14.9779 23.753 14.7397 23.5019C14.0745 24.298 13.4994 25.1821 13.0359 26.137L12.993 26.2164C12.4265 27.3966 12.0231 28.6863 11.8257 30.0553L11.7978 30.2312C11.669 30.9608 11.2699 31.5788 10.7184 31.9951C10.167 32.4135 9.45885 32.6303 8.72069 32.553L8.51898 32.5251C7.7894 32.3964 7.17141 31.9973 6.75512 31.4458C6.33668 30.8943 6.11995 30.1862 6.1972 29.4459L6.22081 29.2699C6.68001 26.0705 7.93532 23.1136 9.80004 20.6223C11.5703 18.2576 13.89 16.3113 16.5959 14.9809L16.5937 14.5539C16.5787 14.2363 16.5272 13.9101 16.4456 13.5883L16.4285 13.5089C16.3255 13.1333 16.1667 12.7578 15.9585 12.3973C15.7483 12.0282 15.48 11.6785 15.1646 11.3609C14.8492 11.0455 14.4972 10.7772 14.1282 10.5648C13.7419 10.3438 13.3385 10.1785 12.9372 10.0755C12.5209 9.96825 12.0832 9.91675 11.6412 9.92533C11.212 9.93177 10.7764 9.99614 10.3515 10.1206C9.60048 10.3373 8.83227 10.2322 8.2014 9.88456C7.56838 9.53694 7.06626 8.94469 6.84953 8.19365C6.63281 7.44262 6.73795 6.67656 7.08557 6.04354C7.4332 5.41052 8.02759 4.9084 8.77863 4.69167C9.68845 4.42774 10.6219 4.28826 11.5489 4.27538C12.4866 4.26036 13.4265 4.37195 14.3342 4.6037C15.2483 4.83759 16.1302 5.1938 16.9456 5.65729C17.7589 6.12079 18.5121 6.68729 19.1773 7.35249C19.8425 8.0177 20.409 8.77088 20.8725 9.58415C21.336 10.4017 21.69 11.2815 21.9261 12.1956C22.0183 12.5583 22.0913 12.9102 22.1428 13.2492C22.7029 13.1655 23.2715 13.1076 23.8466 13.0733C24.4474 13.0389 25.0547 13.0325 25.6705 13.0582C25.81 11.451 26.0482 9.76869 26.4023 8.00053C26.825 5.86329 27.4323 3.59087 28.2498 1.15965C28.4 0.713321 28.8163 0.430073 29.2626 0.430073L38.1957 0.425781C38.7879 0.425781 39.2686 0.906445 39.2686 1.49869C39.2686 1.6489 39.2386 1.79052 39.1828 1.92142C34.4663 15.9851 37.1314 24.974 39.6978 33.6238C40.6054 36.6859 41.5024 39.7093 42.0775 42.9302C42.7599 42.8937 43.4358 42.8959 44.1031 42.9324L44.1246 42.9345C44.7104 42.9667 45.2919 43.0268 45.8606 43.1126C45.9121 42.7736 45.985 42.4195 46.0773 42.059C46.3112 41.1449 46.6653 40.263 47.1287 39.4475C47.5922 38.6321 48.1609 37.8789 48.8261 37.2159C49.4892 36.5528 50.2445 35.982 51.0577 35.5185C51.8732 35.055 52.7551 34.701 53.6692 34.4671C54.5747 34.2353 55.5125 34.1238 56.4523 34.1366C57.3772 34.1517 58.3128 34.289 59.2226 34.5529C59.9736 34.7697 60.5659 35.2718 60.9135 35.9048C61.2611 36.5357 61.3684 37.3039 61.1517 38.0549C60.935 38.8059 60.4328 39.3982 59.7998 39.748C59.169 40.0956 58.4007 40.2007 57.6497 39.984C57.2248 39.8617 56.7892 39.7952 56.3601 39.7887C55.9202 39.7801 55.4824 39.8316 55.064 39.9389C54.6606 40.0419 54.2572 40.2072 53.8709 40.4282C53.5018 40.6385 53.1521 40.9067 52.8345 41.2221C52.5191 41.5376 52.2508 41.8895 52.0405 42.2586C51.8195 42.6448 51.6543 43.0482 51.5513 43.4495C51.474 43.7714 51.4225 44.0975 51.4075 44.4173L51.4054 44.8421C54.1113 46.1747 56.4309 48.121 58.2012 50.4856C60.0788 52.9963 61.3405 55.979 61.7911 59.2106C61.8984 59.9852 61.6796 60.7319 61.244 61.307C60.8084 61.8821 60.1496 62.2941 59.3749 62.4014C58.6003 62.5087 57.8536 62.292 57.2785 61.8564C56.7013 61.4208 56.2914 60.762 56.1841 59.9873C55.9846 58.5604 55.5661 57.2192 54.9696 55.9983C54.5039 55.0477 53.9289 54.1614 53.2615 53.3589L53.2551 53.3653C53.0298 53.6035 52.813 53.8696 52.607 54.1529C52.3045 54.5734 52.0384 55.0369 51.8217 55.5262C51.6092 56.0068 51.4397 56.5175 51.326 57.0476C51.2101 57.5819 51.15 58.114 51.1457 58.6312C51.1414 59.1569 51.1929 59.6934 51.2981 60.2255C51.4032 60.7534 51.5599 61.2684 51.7616 61.7469C51.9654 62.2297 52.2229 62.6975 52.5298 63.1396C52.9718 63.7812 53.1134 64.5451 52.9847 65.2553C52.8559 65.9656 52.4525 66.6287 51.8109 67.0728C51.1715 67.5149 50.4054 67.6565 49.6952 67.5278C48.9849 67.399 48.324 66.9956 47.8798 66.3561C47.3562 65.6051 46.9099 64.794 46.5515 63.9442C46.1867 63.0902 45.9142 62.2061 45.7361 61.3135C45.5623 60.4272 45.4765 59.511 45.4829 58.584C45.4915 57.6634 45.5923 56.745 45.7855 55.8524C45.9807 54.9575 46.2704 54.082 46.6459 53.2409C47.0193 52.3997 47.4828 51.5972 48.0214 50.8526C48.2639 50.5178 48.5235 50.1895 48.7982 49.8741C47.8991 49.4406 46.9614 49.1123 46.0043 48.8956C44.9228 48.651 43.807 48.5415 42.6805 48.5716C42.747 50.8569 42.5968 53.2581 42.1397 55.8309C41.6118 58.7878 40.672 61.9873 39.1828 65.5085C39.0111 65.9163 38.6141 66.1609 38.1978 66.1652L38.1935 66.1566ZM34.8418 60.4895C34.2495 60.4895 33.7689 60.0088 33.7689 59.4166C33.7689 58.8243 34.2495 58.3436 34.8418 58.3436H35.3482C35.9404 58.3436 36.4211 58.8243 36.4211 59.4166C36.4211 60.0088 35.9404 60.4895 35.3482 60.4895H34.8418ZM36.8417 54.3889C36.2494 54.3889 35.7688 53.9082 35.7688 53.316C35.7688 52.7237 36.2494 52.2431 36.8417 52.2431H37.3481C37.9403 52.2431 38.421 52.7237 38.421 53.316C38.421 53.9082 37.9403 54.3889 37.3481 54.3889H36.8417ZM36.8417 49.5737C36.2494 49.5737 35.7688 49.093 35.7688 48.5008C35.7688 47.9085 36.2494 47.4279 36.8417 47.4279H37.3481C37.9403 47.4279 38.421 47.9085 38.421 48.5008C38.421 49.093 37.9403 49.5737 37.3481 49.5737H36.8417ZM35.3482 45.5524C34.7559 45.5524 34.2753 45.0717 34.2753 44.4795C34.2753 43.8872 34.7559 43.4066 35.3482 43.4066H35.8546C36.4469 43.4066 36.9275 43.8872 36.9275 44.4795C36.9275 45.0717 36.4469 45.5524 35.8546 45.5524H35.3482ZM35.8546 38.1536C35.2624 38.1536 34.7817 37.6729 34.7817 37.0807C34.7817 36.4885 35.2624 36.0078 35.8546 36.0078H36.361C36.9533 36.0078 37.4339 36.4885 37.4339 37.0807C37.4339 37.6729 36.9533 38.1536 36.361 38.1536H35.8546ZM33.5951 32.4092C33.0028 32.4092 32.5221 31.9286 32.5221 31.3363C32.5221 30.7441 33.0028 30.2634 33.5951 30.2634H34.1015C34.6937 30.2634 35.1744 30.7441 35.1744 31.3363C35.1744 31.9286 34.6937 32.4092 34.1015 32.4092H33.5951ZM31.8119 25.107C31.2196 25.107 30.739 24.6264 30.739 24.0341C30.739 23.4419 31.2196 22.9612 31.8119 22.9612H32.3183C32.9105 22.9612 33.3912 23.4419 33.3912 24.0341C33.3912 24.6264 32.9105 25.107 32.3183 25.107H31.8119ZM30.2068 19.9334C29.6146 19.9334 29.1339 19.4528 29.1339 18.8605C29.1339 18.2683 29.6146 17.7876 30.2068 17.7876H30.7132C31.3055 17.7876 31.7861 18.2683 31.7861 18.8605C31.7861 19.4528 31.3055 19.9334 30.7132 19.9334H30.2068ZM32.2754 13.6204C31.6831 13.6204 31.2025 13.1398 31.2025 12.5475C31.2025 11.9553 31.6831 11.4746 32.2754 11.4746H32.7818C33.374 11.4746 33.8547 11.9553 33.8547 12.5475C33.8547 13.1398 33.374 13.6204 32.7818 13.6204H32.2754ZM31.3055 8.1679C30.7132 8.1679 30.2325 7.68724 30.2325 7.09499C30.2325 6.50275 30.7132 6.02208 31.3055 6.02208H31.8119C32.4041 6.02208 32.8848 6.50275 32.8848 7.09499C32.8848 7.68724 32.4041 8.1679 31.8119 8.1679H31.3055ZM30.8505 64.0108H37.4833C38.7429 60.9208 39.554 58.0904 40.0239 55.4511C40.5239 52.6422 40.6376 50.0586 40.4939 47.6231C40.4617 47.0523 40.8844 46.5524 41.4573 46.4966C43.1547 46.327 44.8435 46.43 46.4721 46.7991C48.0836 47.1639 49.6351 47.7905 51.0749 48.6724C51.1672 48.7239 51.253 48.7926 51.3281 48.8741C51.7272 49.3076 51.6993 49.9878 51.2659 50.3869C50.9784 50.653 50.7123 50.9234 50.4698 51.1981C50.2187 51.4792 49.9805 51.7817 49.7552 52.0929C49.3025 52.7216 48.9119 53.3975 48.5965 54.1056C48.2875 54.7966 48.045 55.5326 47.8798 56.2987C47.7124 57.069 47.6266 57.8394 47.6201 58.5947C47.6137 59.3586 47.6867 60.1333 47.839 60.8972C47.9892 61.6546 48.2167 62.395 48.5171 63.1031C48.8111 63.8026 49.1866 64.4828 49.6372 65.1309C49.7445 65.2897 49.9076 65.3884 50.0814 65.4206C50.2552 65.4528 50.4419 65.4184 50.5964 65.3111C50.7509 65.2038 50.8518 65.0408 50.8818 64.8669C50.914 64.6931 50.8796 64.5064 50.7724 64.3519C50.3861 63.7962 50.0578 63.1975 49.7939 62.5752C49.5256 61.94 49.3239 61.2877 49.1952 60.6354C49.0664 59.9809 49.0042 59.3028 49.0085 58.6119C49.0149 57.9295 49.0879 57.2493 49.2317 56.5927C49.3754 55.9253 49.59 55.2773 49.8625 54.6614C50.135 54.0456 50.4762 53.4533 50.8711 52.9018C51.1178 52.5607 51.3968 52.2216 51.7036 51.8976C52.0019 51.5822 52.3131 51.2903 52.6349 51.0285C53.0598 50.6638 53.7014 50.6874 54.0984 51.0929C55.2185 52.2452 56.1669 53.5799 56.8879 55.0584C57.5853 56.4875 58.0724 58.0454 58.302 59.6912C58.3256 59.8779 58.4286 60.0389 58.5681 60.144C58.7098 60.2513 58.8943 60.3049 59.081 60.2792C59.2677 60.2556 59.4286 60.1526 59.5337 60.0131C59.641 59.8715 59.6947 59.6869 59.6689 59.5003C59.2698 56.6313 58.1518 53.9855 56.491 51.7624C54.8237 49.5329 52.6027 47.7261 50.0041 46.5416C49.6587 46.4064 49.3947 46.0953 49.3368 45.7026C49.2681 45.2477 49.2467 44.7821 49.2681 44.3186V44.3014C49.2917 43.825 49.3625 43.3594 49.4763 42.9152C49.6372 42.3079 49.8733 41.7221 50.1801 41.1857C50.4891 40.6492 50.8711 40.1449 51.3174 39.6965C51.7659 39.248 52.268 38.866 52.8066 38.5592C53.3431 38.2523 53.9267 38.0141 54.5361 37.8596C55.1391 37.7051 55.7678 37.6322 56.3923 37.6408C57.0103 37.6493 57.6325 37.7438 58.2441 37.9197C58.4244 37.9712 58.6132 37.9455 58.7677 37.8596C58.9222 37.7759 59.0466 37.63 59.0981 37.4498C59.1496 37.2717 59.1217 37.0807 59.0359 36.9262C58.9501 36.7717 58.8063 36.6472 58.6261 36.5957C57.8986 36.3855 57.154 36.2739 56.4159 36.2631C55.6627 36.2503 54.9138 36.3404 54.1928 36.5249C53.4697 36.7095 52.768 36.9949 52.1113 37.3682C51.4762 37.7287 50.8796 38.1837 50.341 38.7223C49.8024 39.2609 49.3475 39.8595 48.987 40.4926C48.6137 41.1513 48.3304 41.853 48.1437 42.574C48.0729 42.853 48.0128 43.1577 47.9656 43.4817C47.9248 43.7714 47.897 44.0589 47.8862 44.3357C47.8884 44.4173 47.8819 44.5031 47.8626 44.5868C47.7403 45.164 47.1717 45.5352 46.5923 45.4129C45.7425 45.2305 44.8713 45.1104 43.998 45.0632H43.9808C43.1268 45.0159 42.2577 45.0353 41.3822 45.1211L41.2964 45.1318C40.7299 45.1919 40.2106 44.7971 40.1226 44.2306C39.5905 40.8016 38.6206 37.5335 37.6399 34.2203C35.0606 25.5276 32.387 16.5044 36.7194 2.56517H30.0308C29.3721 4.60799 28.8678 6.5521 28.4966 8.41253C28.0824 10.4596 27.8357 12.4016 27.7219 14.2535L27.7176 14.2921C27.6619 14.88 27.1404 15.3113 26.5525 15.2556C25.6813 15.1719 24.8143 15.1568 23.9582 15.2062C23.0977 15.2556 22.2415 15.3757 21.4025 15.556L21.2094 15.5774C20.6193 15.5967 20.1257 15.1332 20.1064 14.5431C20.0978 14.247 20.0699 13.938 20.0249 13.6247C19.9798 13.3029 19.9197 12.9981 19.8489 12.7192C19.6644 11.996 19.379 11.2944 19.0056 10.6356C18.6451 10.0026 18.1902 9.4039 17.6537 8.8653C17.1151 8.3267 16.5165 7.87393 15.8834 7.51343C15.2247 7.14006 14.523 6.85466 13.7998 6.67012C13.0789 6.48558 12.33 6.3976 11.5768 6.40833C10.8386 6.42121 10.094 6.53064 9.36658 6.74093C9.18633 6.79243 9.04042 6.91689 8.95673 7.07139C8.8709 7.22589 8.843 7.41472 8.89665 7.59497C8.94815 7.77522 9.0726 7.91899 9.2271 8.00482C9.3816 8.09066 9.57043 8.11855 9.75068 8.06491C10.3601 7.88895 10.9845 7.79453 11.6025 7.78595C12.227 7.77522 12.8557 7.85032 13.4587 8.00482C14.0659 8.16147 14.6517 8.39751 15.1882 8.70436C15.7268 9.01336 16.2289 9.39531 16.6774 9.84379C17.1259 10.2923 17.5078 10.7944 17.8147 11.333C18.1044 11.8394 18.3318 12.3887 18.4863 12.9595L18.5185 13.0604C18.6322 13.5046 18.7031 13.9702 18.7267 14.4466C18.7503 14.9208 18.7288 15.3907 18.6601 15.8478C18.6043 16.1954 18.3833 16.5109 18.04 16.6654C15.4221 17.8477 13.184 19.6652 11.5081 21.9055C9.84725 24.1242 8.73142 26.77 8.33015 29.6326L8.328 29.6454C8.30225 29.8321 8.3559 30.0145 8.46319 30.154C8.56404 30.287 8.71425 30.3857 8.88592 30.4158L8.92025 30.4201C9.10694 30.4458 9.28933 30.3922 9.42881 30.2849C9.56185 30.184 9.66056 30.0338 9.6906 29.86L9.69489 29.83C9.9202 28.2163 10.3944 26.6863 11.0704 25.2808L11.1068 25.1971C11.8257 23.7251 12.7741 22.3904 13.9007 21.2317C14.2827 20.839 14.9092 20.7961 15.3405 21.148C15.6474 21.3969 15.9478 21.6737 16.2354 21.972L16.2976 22.0342C16.5916 22.3475 16.8705 22.6844 17.128 23.0406C17.525 23.5921 17.8662 24.1822 18.1387 24.8002C18.4134 25.4289 18.6279 26.0769 18.7696 26.7314C18.9133 27.388 18.9863 28.0683 18.9927 28.7506C18.997 29.4394 18.9348 30.1197 18.8061 30.7741C18.6773 31.4265 18.4756 32.0809 18.2074 32.7161C17.9434 33.3384 17.6173 33.9371 17.231 34.4928C17.1237 34.6495 17.0894 34.8362 17.1194 35.01C17.1516 35.1838 17.2503 35.3469 17.4048 35.4542C17.5593 35.5615 17.746 35.5958 17.9198 35.5636C18.0936 35.5314 18.2567 35.4327 18.364 35.2782C18.8082 34.6388 19.1837 33.9542 19.4841 33.244C19.7824 32.5401 20.0099 31.802 20.1601 31.0402C20.3103 30.2742 20.3854 29.4995 20.3789 28.7356C20.3725 27.9824 20.2867 27.2121 20.1193 26.4439C19.9541 25.6778 19.7116 24.9418 19.4026 24.253C19.0872 23.5449 18.6966 22.8689 18.2438 22.2402C18.0185 21.9291 17.7803 21.6286 17.5293 21.3475C17.289 21.0772 17.025 20.8068 16.7396 20.5429C16.6645 20.4763 16.598 20.3969 16.5444 20.3068C16.2375 19.8025 16.3963 19.1438 16.9006 18.8369C20.4712 16.6439 22.6084 16.646 26.4366 16.646H26.5889C27.1683 16.6503 27.6447 17.1117 27.6576 17.6932C27.8078 23.6522 29.3034 28.6927 30.7647 33.6216C33.3912 42.4817 35.919 51.0028 30.8484 64.0236L30.8505 64.0108Z" fill="#897CFF"/>
</svg>
