<svg width="68" height="68" viewBox="0 0 68 68" fill="none" xmlns="http://www.w3.org/2000/svg">
<path d="M67.867 22.7251C66.7802 15.6777 63.0605 9.51178 57.4228 5.33216C54.5443 3.22937 51.22 1.69487 47.6596 0.82555C44.0993 -0.0437649 40.3804 -0.228997 36.7377 0.281554C29.1181 1.26937 23.1666 4.48242 19.5399 9.58082C16.0526 14.4402 14.8263 20.8292 15.9422 28.0466C15.9854 28.3255 16.1481 28.5772 16.3944 28.7465C16.6407 28.9158 16.9505 28.9888 17.2557 28.9494C17.5609 28.91 17.8364 28.7613 18.0217 28.5363C18.207 28.3112 18.2869 28.0281 18.2438 27.7492C17.2092 21.0469 18.331 15.1625 21.4869 10.7545C24.7416 6.19251 30.1294 3.31935 37.0632 2.4112C40.3916 1.94327 43.7901 2.11185 47.0436 2.90627C50.2971 3.70069 53.3346 5.10364 55.964 7.02631C61.1483 10.8448 64.56 16.5327 65.5654 23.0438C66.5477 29.4168 60.6136 38.6948 55.3769 46.8947C54.8364 47.7179 54.3017 48.5623 53.7612 49.4121C53.0579 50.5274 52.3895 51.6267 51.7502 52.6942C47.6818 59.3911 44.5258 64.6807 35.9589 65.7907C34.02 66.02 32.0496 65.8479 30.1934 65.2871C28.3372 64.7263 26.6428 63.7912 25.2357 62.5511C22.1669 59.7894 20.8941 55.7107 21.5683 50.7557C21.606 50.474 21.5198 50.1901 21.3285 49.9665C21.1372 49.7429 20.8565 49.5979 20.5482 49.5634C20.24 49.5289 19.9293 49.6077 19.6846 49.7825C19.4399 49.9573 19.2812 50.2138 19.2434 50.4955C18.2786 57.6173 21.0742 61.8076 23.5909 64.0647C26.4682 66.5922 30.3054 68.0027 34.2966 68C34.9655 68 35.6336 67.9574 36.296 67.8725C46.0137 66.6192 49.6172 60.6286 53.7961 53.6979C54.4354 52.6358 55.0921 51.5736 55.7838 50.453L57.3879 47.9357C63.0605 39.0294 68.9655 29.8151 67.867 22.7251Z" fill="#897CFF"/>
<path d="M23.155 29.4495C23.0469 29.5481 22.9612 29.6653 22.9027 29.7942C22.8442 29.9232 22.8141 30.0614 22.8141 30.201C22.8141 30.3406 22.8442 30.4788 22.9027 30.6077C22.9612 30.7367 23.0469 30.8538 23.155 30.9525C25.4424 33.0438 26.7274 35.8796 26.7274 38.8364C26.7274 41.7932 25.4424 44.629 23.155 46.7203C23.0333 46.8155 22.9345 46.9327 22.8647 47.0645C22.7949 47.1963 22.7557 47.3398 22.7495 47.4861C22.7433 47.6324 22.7703 47.7782 22.8288 47.9145C22.8872 48.0508 22.9758 48.1746 23.0891 48.2782C23.2024 48.3817 23.3379 48.4627 23.487 48.5161C23.6362 48.5695 23.7958 48.5941 23.9559 48.5885C24.116 48.5828 24.2731 48.547 24.4173 48.4832C24.5615 48.4195 24.6898 48.3292 24.794 48.218C27.5162 45.7284 29.0453 42.353 29.0453 38.8337C29.0453 35.3144 27.5162 31.9391 24.794 29.4495C24.5762 29.2517 24.2816 29.1406 23.9745 29.1406C23.6674 29.1406 23.3728 29.2517 23.155 29.4495Z" fill="#897CFF"/>
<path d="M44.3747 48.6679C44.2209 48.9116 44.1791 49.2012 44.2587 49.473C44.3382 49.7448 44.5326 49.9767 44.799 50.1177C44.9748 50.213 45.1758 50.2626 45.3802 50.2611C45.5841 50.2609 45.7843 50.2118 45.9607 50.1186C46.1372 50.0253 46.2838 49.8914 46.3857 49.7301C47.211 48.4342 48.3676 46.8144 49.5998 45.099C54.0053 38.9491 59.4802 31.2908 59.4802 25.3108C59.4386 22.8563 58.8293 20.4376 57.6924 18.2135C56.5555 15.9893 54.9167 14.01 52.8836 12.4055C49.1987 9.47924 44.7467 8.15684 40.3179 8.75697C35.3951 9.38896 31.3557 11.5133 28.9321 14.737C26.6712 17.7429 26.0261 21.3968 26.9851 25.3002C27.9208 29.0178 30.0364 31.6732 33.4481 33.4523C33.7155 33.5932 34.0333 33.6312 34.3314 33.558C34.6295 33.4848 34.8835 33.3064 35.0377 33.062C35.1918 32.8176 35.2334 32.5273 35.1533 32.2549C35.0732 31.9825 34.8779 31.7503 34.6105 31.6095C31.7568 30.1171 30.0539 27.9609 29.2634 24.8276C28.6699 22.6582 28.7769 20.3783 29.5715 18.2634C35.6683 16.9781 44.2062 20.9772 46.6879 25.0559C48.2746 27.6688 46.4903 29.8888 43.4564 33.2877C42.2959 34.53 41.2187 35.8353 40.2307 37.1965C38.649 39.3009 37.4698 41.6354 36.7435 44.1006C36.3483 45.2955 35.9008 46.6498 34.9999 48.7104C34.857 49.1421 34.5735 49.5238 34.1872 49.8046C33.801 50.0854 33.3303 50.2521 32.8378 50.2824C32.3453 50.3203 31.8507 50.2356 31.4066 50.0374C30.9625 49.8392 30.5854 49.5347 30.3154 49.1565C30.2425 49.0337 30.1439 48.9253 30.0251 48.8374C29.9064 48.7495 29.7698 48.6838 29.6233 48.6441C29.4768 48.6044 29.3231 48.5915 29.1711 48.606C29.0191 48.6206 28.8718 48.6624 28.7374 48.729C28.6031 48.7956 28.4844 48.8857 28.3882 48.9942C28.292 49.1027 28.2201 49.2275 28.1767 49.3614C28.1332 49.4953 28.1191 49.6357 28.135 49.7746C28.1509 49.9134 28.1967 50.0481 28.2696 50.1709C28.7187 50.8645 29.3606 51.4372 30.1303 51.8308C30.9 52.2245 31.7699 52.425 32.6518 52.412H32.9831C33.92 52.3639 34.82 52.0626 35.5692 51.5463C36.3183 51.0301 36.8828 50.3221 37.191 49.5123C38.1093 47.388 38.5859 45.9116 38.9753 44.7326C39.6469 42.4535 40.7441 40.2975 42.2185 38.3596C43.1561 37.0662 44.1769 35.8248 45.2756 34.642C48.1816 31.3971 51.1748 28.0406 48.7628 24.0203C46.0428 19.6282 37.7141 15.4221 30.8559 15.9531C32.9018 13.2287 36.3832 11.423 40.6492 10.876C44.3922 10.3927 48.2049 11.508 51.3608 14.0253C53.1476 15.4276 54.5893 17.1596 55.591 19.1074C56.5928 21.0553 57.1319 23.1749 57.1729 25.3268C57.1729 30.6801 51.6747 38.3489 47.6585 43.9519C46.409 45.6938 45.2291 47.3189 44.3747 48.6679Z" fill="#897CFF"/>
<path d="M2.32462 38.8336C2.32133 37.3686 2.63548 35.9174 3.24896 34.5638C3.86244 33.2102 4.76311 31.981 5.89903 30.9471C6.11714 30.7477 6.23968 30.4774 6.23968 30.1956C6.23968 29.9137 6.11714 29.6434 5.89903 29.4441C5.68091 29.2448 5.38509 29.1328 5.07663 29.1328C4.76816 29.1328 4.47234 29.2448 4.25422 29.4441C1.53024 31.9339 0 35.3104 0 38.831C0 42.3516 1.53024 45.7281 4.25422 48.2179C4.47121 48.4174 4.76593 48.53 5.07372 48.5312C5.3046 48.5324 5.53065 48.4708 5.72306 48.3542C5.91546 48.2376 6.06549 48.0712 6.15403 47.8764C6.24257 47.6815 6.26559 47.467 6.22018 47.2602C6.17476 47.0533 6.06296 46.8635 5.89903 46.7149C4.76198 45.6828 3.86053 44.4547 3.24694 43.1018C2.63335 41.7489 2.31985 40.2981 2.32462 38.8336Z" fill="#897CFF"/>
<path d="M18.7843 31.0309C18.6466 30.9675 18.4965 30.9294 18.3426 30.919C18.1887 30.9085 18.0341 30.9258 17.8876 30.97C17.7411 31.0141 17.6055 31.0842 17.4886 31.1762C17.3717 31.2682 17.2758 31.3804 17.2063 31.5063C17.1369 31.6322 17.0953 31.7693 17.0838 31.9099C17.0724 32.0505 17.0913 32.1918 17.1396 32.3257C17.1879 32.4595 17.2646 32.5834 17.3653 32.6902C17.466 32.7971 17.5888 32.8847 17.7265 32.9482C19.4381 33.7252 20.7422 35.0912 21.3525 36.7461C21.9627 38.4011 21.8292 40.2097 20.9813 41.7748C20.8442 42.0269 20.8224 42.3185 20.9204 42.5853C21.0185 42.8522 21.2285 43.0726 21.5044 43.1981C21.6644 43.273 21.8419 43.3112 22.0216 43.3096C22.2373 43.31 22.4488 43.2556 22.6325 43.1524C22.8162 43.0492 22.9649 42.9014 23.062 42.7254C24.1893 40.6575 24.372 38.2653 23.5699 36.0744C22.7678 33.8835 21.0465 32.0733 18.7843 31.0416V31.0309Z" fill="#897CFF"/>
<path d="M11.3332 44.7342C9.62127 43.9533 8.31865 42.5833 7.71161 40.9252C7.10458 39.2672 7.24281 37.4567 8.09592 35.8917C8.16423 35.7668 8.20497 35.6309 8.21579 35.4917C8.22662 35.3525 8.20733 35.2127 8.15903 35.0803C8.11073 34.9478 8.03436 34.8254 7.93428 34.72C7.8342 34.6145 7.71237 34.5281 7.57574 34.4657C7.43912 34.4033 7.29038 34.3661 7.13802 34.3562C6.98566 34.3463 6.83265 34.3639 6.68774 34.4081C6.54284 34.4522 6.40886 34.522 6.29347 34.6134C6.17807 34.7049 6.08352 34.8162 6.01521 34.941C4.89144 37.01 4.71128 39.4018 5.51423 41.5919C6.31718 43.7821 8.03772 45.592 10.2987 46.6249C10.5681 46.7187 10.866 46.7177 11.1346 46.6221C11.4033 46.5264 11.6234 46.343 11.7523 46.1074C11.8813 45.8717 11.9098 45.6008 11.8323 45.347C11.7549 45.0933 11.577 44.8749 11.3332 44.7342Z" fill="#897CFF"/>
<path d="M18.9354 37.4842C18.7453 36.9547 18.4419 36.4652 18.0428 36.0439C17.6436 35.6227 17.1568 35.2782 16.6106 35.0306C16.0641 34.7815 15.4693 34.6333 14.8601 34.5944C14.251 34.5554 13.6393 34.6265 13.0602 34.8035C12.4811 34.9806 11.9459 35.2601 11.485 35.6262C11.0241 35.9923 10.6467 36.4378 10.3743 36.9372C10.0208 37.5849 9.85423 38.3045 9.8905 39.0276C9.92676 39.7507 10.1646 40.4534 10.5815 41.0689C10.9983 41.6844 11.5804 42.1924 12.2724 42.5447C12.9645 42.897 13.7435 43.0819 14.5357 43.0818C15.0275 43.0776 15.5156 43.0042 15.9829 42.864C17.1479 42.5013 18.1079 41.7314 18.6527 40.7229C19.1974 39.7144 19.2824 38.5498 18.8889 37.4842H18.9354ZM16.6106 39.7784C16.336 40.2825 15.8536 40.6663 15.2695 40.8456C14.6853 41.0248 14.0472 40.9848 13.4953 40.7344C13.1534 40.5783 12.8589 40.3477 12.6378 40.0628C12.4168 39.7779 12.276 39.4477 12.2279 39.1012C12.1798 38.7548 12.2259 38.4028 12.3622 38.0765C12.4985 37.7503 12.7207 37.4597 13.0091 37.2306C13.2976 37.0015 13.6434 36.841 14.016 36.7631C14.3885 36.6853 14.7763 36.6925 15.1451 36.7843C15.5138 36.876 15.8522 37.0495 16.1301 37.2892C16.408 37.5289 16.617 37.8275 16.7384 38.1586C16.9305 38.6934 16.8824 39.276 16.6048 39.7784H16.6106Z" fill="#897CFF"/>
</svg>
