<svg width="68" height="70" viewBox="0 0 68 70" fill="none" xmlns="http://www.w3.org/2000/svg">
<path d="M39.5506 9.26827C37.2695 7.9018 34.6558 7.19079 31.9968 7.21341C29.3379 7.23604 26.7367 7.99143 24.4792 9.39652C19.9307 12.1261 17.0917 18.2068 17.7292 23.8561C17.7821 24.3007 17.8576 24.7424 17.9556 25.1794C17.9556 25.1922 17.9601 25.2043 17.9639 25.2171C18.3288 27.0532 19.1819 28.757 20.4333 30.1493C21.6847 31.5416 23.2882 32.5709 25.0752 33.1289C25.3582 33.2139 25.6632 33.1849 25.9251 33.048C26.187 32.9112 26.3849 32.6773 26.4767 32.3964C26.5684 32.1155 26.5466 31.8099 26.416 31.5448C26.2853 31.2798 26.0562 31.0763 25.7776 30.978C24.4711 30.5839 23.2866 29.8638 22.3354 28.8853C21.3843 27.9069 20.698 26.7024 20.3411 25.3853C23.6644 23.0888 27.7512 22.3472 31.1688 23.4592C32.3643 23.8052 33.4643 24.421 34.3841 25.2594C35.304 26.0977 36.019 27.1361 36.474 28.2944C37.6102 31.2262 37.1922 34.9018 35.3567 38.127C32.9583 42.3451 26.6806 50.2991 22.6067 47.9837C22.0997 47.6948 21.819 47.4013 21.7723 47.1116C21.641 46.3074 22.9122 44.8868 23.7534 43.9468C24.2172 43.4549 24.6457 42.931 25.036 42.379C25.577 41.4399 25.8319 40.3632 25.7693 39.2811C25.7067 38.1991 25.3293 37.1589 24.6836 36.2885C24.1813 35.5344 23.454 34.9578 22.6052 34.6408C21.7564 34.3237 20.8293 34.2823 19.9556 34.5223C19.6654 34.6002 19.4181 34.7901 19.268 35.0502C19.1179 35.3104 19.0773 35.6196 19.1551 35.9097C19.2329 36.1999 19.4228 36.4472 19.683 36.5973C19.9432 36.7474 20.2524 36.788 20.5425 36.7102C20.9733 36.5912 21.4309 36.6152 21.8469 36.7784C22.2629 36.9417 22.6147 37.2354 22.8496 37.6155C23.2298 38.1133 23.4596 38.7095 23.5117 39.3337C23.5639 39.9579 23.4362 40.584 23.1438 41.138C22.8118 41.5941 22.451 42.0286 22.0635 42.4386C20.802 43.8487 19.2306 45.6073 19.5346 47.476C19.6463 48.0102 19.8797 48.5114 20.2168 48.9407C20.5539 49.3699 20.9855 49.7155 21.478 49.9506C22.3083 50.4318 23.2509 50.6853 24.2106 50.6854C30.7274 50.6854 37.245 39.3764 37.319 39.2466C39.4872 35.4359 39.9595 31.0361 38.5789 27.4774C38.0073 26.0031 37.1046 24.6799 35.9403 23.61C34.7761 22.5401 33.3816 21.7521 31.8644 21.3068C29.8713 20.7227 27.777 20.5677 25.7196 20.8519C23.6622 21.1362 21.6884 21.8533 19.9284 22.956C19.6568 18.3359 21.9873 13.5301 25.6425 11.3377C27.5491 10.1295 29.7557 9.47875 32.0128 9.45888C34.2699 9.43902 36.4876 10.0509 38.4151 11.2253C40.9014 12.7185 42.9564 14.8329 44.3783 17.3606C45.8002 19.8883 46.5401 22.7424 46.5254 25.6426C46.3926 32.0553 42.5268 40.3481 36.5072 42.5661C36.2576 42.6578 36.0483 42.8344 35.9159 43.065C35.7836 43.2956 35.7366 43.5655 35.7833 43.8272C35.8301 44.089 35.9674 44.3259 36.1714 44.4965C36.3754 44.667 36.6329 44.7603 36.8987 44.76C37.0324 44.7601 37.1651 44.7361 37.2903 44.6891C44.2024 42.1414 48.64 32.8444 48.7879 25.6901C48.805 22.3867 47.9623 19.1357 46.3428 16.2566C44.7232 13.3774 42.3825 10.9691 39.5506 9.26827Z" fill="#897CFF"/>
<path d="M55.5304 19.3144C54.7405 10.2392 49.2685 3.55417 40.889 1.4342C35.3103 0.17111 29.4923 0.458094 24.065 2.26408C20.6606 3.3543 17.6915 5.49984 15.5878 8.39C13.4841 11.2802 12.3549 14.7649 12.3637 18.3396V53.9491C12.3651 56.9122 13.259 59.8061 14.9288 62.2539C14.9499 62.2917 14.9718 62.3294 14.9974 62.3664C17.684 66.8756 21.8477 69.3404 26.7591 69.3404C26.8919 69.3404 27.0262 69.3404 27.1597 69.3343C30.2437 69.3199 33.2644 68.4587 35.8923 66.8447C39.1296 64.7021 40.1097 61.3441 40.6453 58.3422L40.7253 57.8895C40.9154 56.4618 41.2698 55.0608 41.7815 53.7145C42.5111 52.1299 43.4055 50.6266 44.4499 49.2293C44.8246 48.7012 45.2019 48.1731 45.5816 47.645C47.5391 45.0541 49.3042 42.3233 50.8627 39.4745C54.5058 32.3737 56.0773 25.5951 55.5304 19.3144ZM48.8483 38.425C47.3389 41.1743 45.6316 43.8102 43.74 46.3119C43.359 46.84 42.9773 47.3734 42.6 47.906C41.4616 49.4333 40.4884 51.0772 39.697 52.8099C39.1133 54.3166 38.7081 55.8864 38.4899 57.4874L38.4107 57.9401C37.9399 60.5964 37.1583 63.2845 34.6385 64.9503C32.3634 66.3297 29.7547 67.0614 27.0941 67.0665C22.8753 67.1774 19.257 65.0982 16.9356 61.2007C16.9113 61.1518 16.8836 61.1047 16.8526 61.0597C15.5998 58.8557 14.8395 56.4064 14.624 53.8804V18.3336C14.6165 15.2373 15.5949 12.2191 17.4175 9.71608C19.2402 7.21309 21.8123 5.35534 24.7614 4.41197C29.7835 2.73552 35.1682 2.46343 40.3337 3.62509C47.7325 5.50062 52.573 11.4388 53.2753 19.5105C53.7853 25.3597 52.2953 31.7241 48.8483 38.425Z" fill="#897CFF"/>
</svg>
