<svg width="68" height="69" viewBox="0 0 68 69" fill="none" xmlns="http://www.w3.org/2000/svg">
<path d="M31.4346 5.29785C38.7587 4.16737 48.8562 6.6137 53.9932 14.666L54.2334 15.0537L54.2363 15.0586C54.7772 16.0419 55.5274 17.2928 55.9805 18.792C56.0291 18.8582 56.0376 18.9235 56.0391 18.9707C56.0524 19.0029 56.0688 19.0411 56.0811 19.0791C56.0987 19.1336 56.1173 19.1982 56.1357 19.2598C56.1544 19.322 56.173 19.3827 56.1895 19.4336C56.2068 19.4873 56.2197 19.5214 56.2266 19.5352C56.2368 19.5555 56.2475 19.5741 56.2588 19.5938C56.2696 19.6125 56.2833 19.636 56.2949 19.6592C56.3164 19.7024 56.3309 19.7518 56.3359 19.8125H56.3369C56.3621 19.9135 56.4118 20.126 56.4551 20.3115C56.4767 20.4043 56.497 20.4912 56.5117 20.5547C56.519 20.5862 56.5251 20.6129 56.5293 20.6309C56.5313 20.6397 56.5331 20.6476 56.5342 20.6523C56.5345 20.6533 56.535 20.6545 56.5352 20.6553L56.7148 21.3789C58.4591 28.8408 56.448 35.5542 50.7861 41.458L50.5859 41.6582C49.9922 42.2519 49.1629 43.0807 48.5283 44.4951C47.5231 46.8255 47.6255 49.7293 48.9043 53.1367L49.1758 53.8252L49.2217 53.9629C49.4091 54.6428 49.0789 55.3899 48.3994 55.6514C47.6864 55.9254 46.8551 55.5986 46.5762 54.874V54.873C44.7802 50.5306 44.5219 46.6646 45.9326 43.3896L45.9346 43.3867C46.7902 41.5245 47.9477 40.3668 48.5957 39.7188L48.7949 39.5195C53.977 34.3373 55.65 28.2778 53.875 21.5225L53.8701 21.5049V21.4863C53.8702 21.4984 53.8722 21.5011 53.8672 21.4785C53.8635 21.4621 53.8578 21.4391 53.8506 21.4111C53.8361 21.3548 53.8167 21.2812 53.7949 21.2002C53.7542 21.0489 53.7067 20.869 53.6797 20.7402C53.5825 20.497 53.4351 20.0995 53.3799 19.7412L53.2246 19.2881C52.8423 18.2483 52.3364 17.3282 51.9033 16.5918L51.6953 16.2559C47.2401 9.28387 38.3937 7.14193 31.9258 8.16309H31.9248C26.0016 9.0516 21.6231 11.9086 19.2129 16.4297C18.6194 17.6661 18.2269 18.7019 17.9814 19.6348L17.9805 19.6338L17.8369 20.208V20.3555L17.835 20.3672L17.6855 21.2607V21.2646C17.4408 22.5376 17.4394 23.9626 17.6367 25.4922L17.6377 25.501V26.2061C17.6377 26.8754 17.5204 27.5455 17.252 28.2148L17.1279 28.502L13.5508 36.1035C13.4774 36.2955 13.5096 36.5422 13.6436 36.8145L13.6934 36.8887C13.819 37.0505 14.0017 37.1436 14.2168 37.1436H16.9492C17.3379 37.1436 17.7268 37.3103 18.0029 37.6416C18.2748 37.9683 18.3886 38.4087 18.2793 38.8047L18.2812 38.8057L17.2871 43.4756V43.4766C17.1944 43.8938 17.2404 44.313 17.3809 44.6875L17.5273 45.0293L17.5293 45.0352C18.1345 46.6491 18.2857 48.3646 17.9834 50.0781C17.9428 50.3238 18.021 50.534 18.1602 50.7676C18.287 50.9336 18.5012 51.0634 18.7158 51.1064L24.7705 52H24.7725C25.439 52.1113 25.9346 52.7193 25.9346 53.3828V62.5244C25.9342 63.2981 25.3245 63.908 24.5508 63.9082C23.7769 63.9082 23.1673 63.2982 23.167 62.5244V54.5479L18.2695 53.8213H18.2686C17.2894 53.6667 16.4092 53.1496 15.8389 52.3203C15.2711 51.4944 15.0645 50.5134 15.2188 49.5352L15.2197 49.5283H15.2207C15.463 48.3651 15.3665 47.1025 14.9307 45.9365L14.7812 45.5889V45.5869C14.4212 44.7124 14.3711 43.7384 14.5752 42.8193L15.2324 39.8125H14.167C12.9252 39.8125 11.835 39.1898 11.2129 38.1533C10.5948 37.123 10.489 35.9299 11.0078 34.8398L14.5352 27.1895L14.5371 27.1855C14.727 26.8057 14.8203 26.4293 14.8203 26.0566V25.6182C14.5716 23.8685 14.6212 22.2184 14.8711 20.6689L14.8721 20.665L15.0195 19.8809C15.0195 19.7922 15.0206 19.6763 15.0732 19.5576L15.2715 18.8164C15.5233 17.7109 15.9748 16.5095 16.6719 15.0654L16.7109 14.9844H16.7383C19.5966 9.68828 24.7003 6.29583 31.4346 5.29785ZM31.5068 13.0967C32.0272 13.097 32.4765 13.4983 32.5889 14.0029L36.5557 31.7578L38.7256 25.7109C38.8478 25.3001 39.2512 25.0271 39.6865 24.9727C40.0899 24.9224 40.447 25.0943 40.6797 25.4004L40.7715 25.54L40.7725 25.541L42.6201 28.8467H49.7402C50.365 28.847 50.876 29.3576 50.876 29.9824C50.8758 30.6071 50.3649 31.1179 49.7402 31.1182H41.9395C41.4871 31.1181 41.1473 30.8883 40.9268 30.5576L40.9199 30.5479V30.5469L39.9795 28.8359L37.3037 36.29V36.292C37.1325 36.7485 36.6788 37.03 36.2266 37.0303H36.1689L36.1611 37.0293C35.7191 36.9802 35.3583 36.7132 35.1992 36.3066L35.1436 36.124L31.3984 19.1738L28.6133 30.3105L28.6143 30.3115C28.4995 30.8267 28.0419 31.1677 27.5322 31.168H21.5703C20.9454 31.168 20.4338 30.657 20.4336 30.0322C20.4336 29.4072 20.9453 28.8965 21.5703 28.8965H26.626L30.375 13.9502L30.3779 13.9395L30.4531 13.7598C30.6579 13.3587 31.0581 13.0967 31.5068 13.0967Z" fill="#897CFF"/>
</svg>
