<svg width="69" height="69" viewBox="0 0 69 69" fill="none" xmlns="http://www.w3.org/2000/svg">
<path d="M51.9922 8.26953C54.2419 8.27162 56.3976 9.16731 57.9883 10.7559C59.5788 12.3463 60.4724 14.5042 60.4766 16.752V44.8496C60.4724 47.0977 59.579 49.2562 57.9883 50.8447C56.3979 52.4352 54.242 53.3309 51.9922 53.333H42.9277C42.5636 53.333 42.2206 53.5069 42.0029 53.7979C41.9611 53.8501 41.9171 53.9002 41.8711 53.9482V53.9463L37.6514 58.1006C35.7343 59.9738 32.674 59.9738 30.7568 58.1006V58.1025L26.5381 53.9482C26.4922 53.9002 26.448 53.85 26.4062 53.7979C26.1886 53.5069 25.8446 53.333 25.4805 53.333H16.416C14.1664 53.3309 12.0106 52.4353 10.4199 50.8447C8.8293 49.2559 7.93583 47.0975 7.93164 44.8496V16.752C7.93582 14.5045 8.82943 12.3465 10.4199 10.7559C12.0103 9.16738 14.1662 8.2717 16.416 8.26953H51.9922ZM16.416 10.9482C13.2117 10.9525 10.6136 13.5476 10.6094 16.752V44.8516C10.6137 48.0559 13.2117 50.654 16.416 50.6582H25.4893C26.6569 50.6604 27.76 51.1912 28.4883 52.1035L32.6387 56.1934C33.5093 57.041 34.8989 57.041 35.7695 56.1934L39.9258 52.0996C40.6562 51.1892 41.7599 50.6575 42.9277 50.6533H51.9922C55.1965 50.649 57.7937 48.054 57.7979 44.8496L57.7959 16.752H57.7979C57.7936 13.5476 55.1956 10.9524 51.9912 10.9482H16.416ZM37.3691 25.0508C38.4952 24.9629 39.579 25.4881 40.209 26.4258L42.3232 29.5732C42.4069 29.6966 42.5449 29.7723 42.6934 29.7725H50.626C51.3647 29.7725 51.9656 30.3706 51.9658 31.1113C51.9658 31.8501 51.3648 32.4512 50.626 32.4512H42.6934C41.6512 32.451 40.6783 31.9317 40.0986 31.0674L37.9863 27.916C37.8985 27.7822 37.7421 27.7063 37.5811 27.7188C37.4199 27.7313 37.279 27.8301 37.21 27.9766L34.041 34.8057C33.5806 35.8186 32.61 36.5051 31.5029 36.6035C31.4004 36.6182 31.2998 36.6182 31.1973 36.6182C30.1927 36.6203 29.2508 36.1347 28.6689 35.3164L26.7393 32.6455C26.6576 32.5305 26.5231 32.4591 26.3809 32.457H17.7832V32.4551C17.0445 32.4551 16.4436 31.8569 16.4434 31.1162C16.4434 30.3774 17.0444 29.7764 17.7832 29.7764H26.3857C27.3923 29.7786 28.3366 30.2639 28.9268 31.0801L30.8477 33.7588C30.9397 33.8886 31.095 33.9562 31.252 33.9395C31.4109 33.9268 31.5466 33.8259 31.6094 33.6816L34.7783 26.8525C35.2534 25.827 36.2432 25.1387 37.3691 25.0508Z" fill="#897CFF"/>
</svg>
