<svg width="68" height="68" viewBox="0 0 68 68" fill="none" xmlns="http://www.w3.org/2000/svg">
<path d="M55.5176 4.79102C55.6587 4.80988 55.7951 4.85667 55.918 4.92871C56.0409 5.00088 56.1481 5.09775 56.2334 5.21191C56.3187 5.32612 56.3807 5.45638 56.415 5.59473C56.4494 5.73298 56.4565 5.87682 56.4346 6.01758L55.6582 11.8379L57.3193 10.7305C57.9388 10.3149 58.3696 9.67134 58.5186 8.94043L59.1738 5.66406H59.1748C59.2316 5.38581 59.3959 5.14103 59.6328 4.98438C59.8698 4.82782 60.1602 4.77134 60.4385 4.82812C60.7164 4.88503 60.9607 5.05047 61.1172 5.28711C61.2737 5.52393 61.3301 5.81367 61.2734 6.0918L60.6191 9.36914C60.4931 10.0078 60.2412 10.6153 59.8789 11.1562C59.5167 11.6969 59.0512 12.1609 58.5088 12.5205L55.2783 14.6738L54.9395 17.2158C54.7766 18.4238 54.3663 19.5856 53.7344 20.6279C53.1815 21.5398 52.4691 22.3434 51.6328 23.001L51.2666 23.2744L47.9873 25.582C46.9066 30.1721 47.7938 36.1651 50.1787 41.5039C52.5702 46.857 56.4591 51.5323 61.3506 53.4736C61.9089 53.6941 62.3881 54.0781 62.7246 54.5752C63.0611 55.0725 63.2393 55.6603 63.2363 56.2607V62.1777C63.2362 62.4615 63.1235 62.7339 62.9229 62.9346C62.7222 63.1352 62.4498 63.2479 62.166 63.248C61.8821 63.248 61.609 63.1353 61.4082 62.9346C61.2076 62.7339 61.0948 62.4615 61.0947 62.1777V56.2598C61.0961 56.0889 61.0456 55.9211 60.9502 55.7793C60.8548 55.6377 60.7182 55.5279 60.5596 55.4648C55.4445 53.4343 51.3791 48.8782 48.75 43.5693C46.1587 38.3365 44.9568 32.3591 45.5234 27.3174L42.4111 29.5107C39.9523 31.2429 37.0175 32.1718 34.0098 32.1719C31.002 32.1719 28.0673 31.2419 25.6084 29.5098L22.4941 27.3164C23.0608 32.3586 21.8599 38.3364 19.2686 43.5693C16.6395 48.8783 12.574 53.4342 7.45898 55.4648C7.30025 55.5278 7.16382 55.6377 7.06836 55.7793C6.9729 55.9211 6.92247 56.0888 6.92383 56.2598V62.1777C6.92371 62.4615 6.81089 62.7339 6.61035 62.9346C6.40959 63.1353 6.13645 63.248 5.85254 63.248C5.56872 63.248 5.29646 63.1352 5.0957 62.9346C4.89497 62.7338 4.78235 62.4616 4.78223 62.1777V56.2607C4.78004 55.6608 4.95836 55.0738 5.29492 54.5771C5.6314 54.0808 6.11022 53.6977 6.66797 53.4775L7.12402 53.2871C11.8014 51.2428 15.5231 46.6936 17.8398 41.5078C20.2249 36.169 21.1115 30.176 20.0303 25.5859L16.752 23.2783C15.7565 22.5754 14.9169 21.6739 14.2852 20.6318C13.6534 19.5897 13.2428 18.4284 13.0801 17.2207L12.7402 14.6729L9.50977 12.5195C8.96758 12.1601 8.5018 11.6966 8.13965 11.1562C7.82264 10.6831 7.58981 10.1588 7.45215 9.60742L7.39941 9.36914L6.74512 6.0918C6.68845 5.81358 6.7448 5.52397 6.90137 5.28711C7.05798 5.05043 7.30201 4.88494 7.58008 4.82812C7.85818 4.77145 8.14794 4.82798 8.38477 4.98438C8.59205 5.12148 8.74455 5.32616 8.81738 5.56152L8.84375 5.66406L9.5 8.94629C9.64936 9.67622 10.0796 10.3182 10.6982 10.7334L12.3643 11.8438L11.5879 6.02148C11.566 5.88066 11.5731 5.73695 11.6074 5.59863C11.6418 5.46037 11.7029 5.32997 11.7881 5.21582C11.8735 5.10161 11.9815 5.00479 12.1045 4.93262C12.2274 4.8606 12.3637 4.81373 12.5049 4.79492C12.6462 4.77614 12.7902 4.78579 12.9277 4.82324C13.0652 4.86073 13.1944 4.92583 13.3066 5.01367C13.4187 5.10148 13.5127 5.21064 13.582 5.33496C13.651 5.45877 13.695 5.59552 13.7109 5.73633L15.2031 16.9336C15.3262 17.8491 15.6365 18.7296 16.1152 19.5195C16.594 20.3095 17.2307 20.9927 17.9854 21.5254L26.8428 27.7627C28.9404 29.2399 31.4441 30.0332 34.0098 30.0332C36.5753 30.0331 39.0782 29.24 41.1758 27.7627L50.0332 21.5254C50.7882 20.9928 51.4253 20.3096 51.9043 19.5195C52.3831 18.7296 52.6934 17.8491 52.8164 16.9336L54.3115 5.73242C54.3274 5.59155 54.3714 5.45491 54.4404 5.33105C54.5098 5.20667 54.6037 5.09758 54.7158 5.00977C54.8281 4.92191 54.9572 4.85679 55.0947 4.81934C55.2323 4.78194 55.3763 4.7722 55.5176 4.79102ZM34.0098 51.4111C34.6012 51.4114 35.081 51.8909 35.0811 52.4824C35.0809 53.0738 34.6011 53.5535 34.0098 53.5537C33.4182 53.5537 32.9387 53.074 32.9385 52.4824C32.9385 51.8908 33.4181 51.4111 34.0098 51.4111ZM34.0098 33.9346C40.4711 33.9349 45.7605 38.3184 45.7607 43.7432C45.7607 47.8533 42.6673 51.5354 38.084 52.9424V52.9482L38.0127 52.9697C37.741 53.0516 37.4474 53.0218 37.1973 52.8877C36.9472 52.7535 36.7608 52.5256 36.6787 52.2539C36.5967 51.982 36.6255 51.6878 36.7598 51.4375C36.8941 51.1875 37.1228 51.001 37.3945 50.9189C41.1353 49.7928 43.6182 46.9009 43.6182 43.7432C43.6179 39.5358 39.3296 36.0765 34.0098 36.0762C28.6896 36.0762 24.4007 39.5355 24.4004 43.7432C24.4004 46.901 26.8879 49.7928 30.624 50.915H30.625C30.8964 50.9972 31.1246 51.1837 31.2588 51.4336C31.393 51.6838 31.4228 51.9781 31.3408 52.25C31.2588 52.5217 31.0713 52.7495 30.8213 52.8838C30.5712 53.0179 30.2776 53.0477 30.0059 52.9658C25.383 51.5755 22.2588 47.8747 22.2588 43.7432C22.259 38.3182 27.548 33.9346 34.0098 33.9346ZM27.8691 39.2451C29.4649 38.2906 31.8167 38.864 33.5547 40.6045L33.6553 40.6777C33.7615 40.7409 33.8846 40.7744 34.0098 40.7744C34.1766 40.7742 34.3382 40.7142 34.4639 40.6045C36.1959 38.8698 38.535 38.2934 40.1689 39.2559L40.332 39.3525C40.7049 39.5877 41.0339 39.8879 41.3018 40.2393C41.5697 40.5909 41.7726 40.988 41.9004 41.4102L41.9502 41.5928L41.9512 41.5947C42.1227 42.3493 42.1393 43.1312 42.001 43.8926C41.8625 44.6541 41.5718 45.3803 41.1455 46.0264C39.6232 48.4197 36.8601 49.7959 34.4658 48.5088L34.4609 48.5059C34.3269 48.4234 34.1721 48.38 34.0146 48.3799C33.857 48.3799 33.7017 48.4233 33.5674 48.5059L33.5664 48.5068C32.5277 49.1239 31.2403 49.1377 30.0244 48.6826C28.8082 48.2272 27.6547 47.2999 26.873 46.0195V46.0186C26.4489 45.3739 26.1592 44.6499 26.0215 43.8906C25.8836 43.1299 25.9005 42.3485 26.0723 41.5947L26.0732 41.5928C26.1949 41.0989 26.4175 40.6353 26.7266 40.2314C27.0356 39.8277 27.4243 39.4915 27.8691 39.2451ZM38.2979 40.9424C37.5563 40.9635 36.6867 41.3822 35.9717 42.1172L35.9678 42.1211L35.9668 42.1201C35.4356 42.6183 34.7351 42.8963 34.0068 42.8965C33.2782 42.8965 32.5764 42.6185 32.0449 42.1201L32.0391 42.1152C31.4365 41.4506 30.5683 41.0073 29.7979 40.959C29.4142 40.935 29.0595 41.0091 28.7725 41.1963C28.4879 41.3819 28.2608 41.6845 28.1387 42.1348L28.1074 42.3135C28.0454 42.7302 28.0558 43.1553 28.1387 43.5693C28.2216 43.9832 28.3752 44.3796 28.5928 44.7402L28.6904 44.8926L28.6924 44.8965C29.1663 45.6724 29.8593 46.2702 30.5625 46.5938C31.2684 46.9183 31.9667 46.9602 32.4668 46.6621L32.5928 46.5869L32.5938 46.5957C33.0275 46.3609 33.514 46.2363 34.0088 46.2354C34.5519 46.2345 35.0853 46.3824 35.5508 46.6621C36.0501 46.9586 36.7471 46.9166 37.4521 46.5928C38.1544 46.2701 38.847 45.675 39.3223 44.9014L39.3242 44.8975H39.3252C39.5953 44.4967 39.7837 44.0461 39.8789 43.5723C39.9736 43.1007 39.9739 42.6144 39.8809 42.1426L39.8311 41.9863C39.7052 41.6356 39.5113 41.3817 39.2744 41.2129C39.0031 41.0197 38.6672 40.932 38.2979 40.9424ZM31.9414 20.3477C32.0815 20.3319 32.224 20.3437 32.3594 20.3828C33.4361 20.6964 34.5805 20.6963 35.6572 20.3828H35.6582C35.9308 20.307 36.223 20.3421 36.4697 20.4805C36.7164 20.619 36.8983 20.8499 36.9756 21.1221C37.0528 21.3943 37.019 21.6861 36.8818 21.9336C36.7446 22.1809 36.5148 22.3637 36.2432 22.4424C34.7835 22.864 33.234 22.8639 31.7744 22.4424C31.6388 22.4045 31.5112 22.3408 31.4004 22.2539C31.2896 22.1669 31.1969 22.0584 31.1279 21.9355C31.059 21.8126 31.0146 21.6771 30.998 21.5371C30.9815 21.3971 30.9928 21.2548 31.0312 21.1191C31.0697 20.9836 31.1351 20.8566 31.2227 20.7461C31.3102 20.6357 31.4188 20.543 31.542 20.4746C31.6651 20.4063 31.8015 20.3635 31.9414 20.3477ZM34.0088 16.584C35.8528 16.473 37.6966 16.8089 39.3828 17.5635L39.3916 17.5674V17.5684C39.6362 17.7087 39.8154 17.9401 39.8906 18.2119C39.9657 18.4837 39.9307 18.7744 39.793 19.0205C39.6552 19.2664 39.4261 19.4484 39.1553 19.5264C38.8866 19.6037 38.5986 19.5717 38.3525 19.4395C36.9769 18.8852 35.4956 18.6409 34.0146 18.7227L34.0029 18.7236V18.7227C32.5205 18.6398 31.0378 18.8852 29.6611 19.4414C29.4158 19.568 29.1311 19.596 28.8662 19.5176C28.5984 19.4383 28.3718 19.2574 28.2354 19.0137C28.099 18.7698 28.0631 18.4817 28.1357 18.2119C28.2085 17.9421 28.3845 17.7117 28.625 17.5693L28.6348 17.5635L28.9531 17.4268C30.5517 16.7685 32.2802 16.4799 34.0088 16.584Z" fill="#897CFF"/>
</svg>
