<svg width="69" height="69" viewBox="0 0 69 69" fill="none" xmlns="http://www.w3.org/2000/svg">
<path d="M21.6006 5.17969C23.1984 5.17985 24.4959 6.4774 24.4961 8.0752V34.5C24.4961 36.0947 23.1985 37.3953 21.6006 37.3955H13.6514V52.4531C13.6514 56.2722 16.7601 59.3816 20.5791 59.3818C22.432 59.3818 24.1724 58.6617 25.4766 57.3545C26.7873 56.047 27.5078 54.3062 27.5078 52.4531C27.5079 49.9577 28.4795 47.6139 30.2422 45.8545L30.7725 45.3604V17.7109C30.7725 13.3107 34.353 9.73345 38.75 9.7334H60.4316C64.8318 9.73344 68.4091 13.314 68.4092 17.7109V47.5254C68.4121 51.9222 64.8317 55.499 60.4316 55.499H38.75C34.8299 55.499 31.5648 52.6569 30.8984 48.9277L30.6533 49.3262C30.1687 50.2831 29.9131 51.3481 29.9131 52.4531C29.9131 54.9485 28.9412 57.2923 27.1787 59.0518C25.4225 60.8176 23.0786 61.7861 20.583 61.7861C15.4369 61.7861 11.25 57.5992 11.25 52.4531V37.3955H3.30469C1.70669 37.3954 0.40918 36.098 0.40918 34.5V8.0752C0.409367 6.47734 1.70681 5.17976 3.30469 5.17969H21.6006ZM38.75 12.1348C35.6767 12.1348 33.1779 14.6337 33.1777 17.707V47.5215C33.1779 50.5948 35.6767 53.0937 38.75 53.0938H60.4316C63.505 53.0937 66.0038 50.5948 66.0039 47.5215L66.0068 17.7109C66.0068 14.6375 63.508 12.1387 60.4346 12.1387L38.75 12.1348ZM49.5898 39.541C52.4954 39.541 54.8584 41.9041 54.8584 44.8096C54.8582 47.7149 52.4952 50.0781 49.5898 50.0781C46.6845 50.078 44.3215 47.7149 44.3213 44.8096C44.3213 41.9041 46.6844 39.5411 49.5898 39.541ZM49.5898 41.9492C48.0112 41.9493 46.7266 43.234 46.7266 44.8125C46.7266 46.3911 48.0113 47.6757 49.5898 47.6758C51.1685 47.6758 52.4531 46.3911 52.4531 44.8125C52.4531 43.2338 51.1717 41.9492 49.5898 41.9492ZM40.1084 43.6113C40.7734 43.6113 41.3095 44.1507 41.3096 44.8125C41.3095 45.4742 40.7704 46.0136 40.1055 46.0137H37.3965C36.7316 46.0135 36.1964 45.4741 36.1963 44.8125C36.1963 44.1476 36.7348 43.6115 37.3965 43.6113H40.1084ZM61.7871 43.6113C62.4521 43.6114 62.9883 44.1508 62.9883 44.8125C62.9914 45.4742 62.452 46.0136 61.7871 46.0137H59.0752C58.4102 46.0137 57.8741 45.4742 57.874 44.8125C57.8741 44.1475 58.4134 43.6113 59.0752 43.6113H61.7871ZM58.4014 15.1504C60.9322 15.1506 62.9922 17.2103 62.9922 19.7412V31.9385C62.992 34.4692 60.9321 36.5291 58.4014 36.5293H40.7842C38.2533 36.5293 36.1936 34.4693 36.1934 31.9385V19.7412C36.1934 17.2102 38.2531 15.1504 40.7842 15.1504H58.4014ZM3.30469 7.58203C3.03357 7.5821 2.81445 7.8021 2.81445 8.07324V34.4971C2.81445 34.7682 3.03356 34.9882 3.30469 34.9883H21.6006C21.8716 34.9881 22.0908 34.7682 22.0908 34.4971V30.6201H12.4551C11.79 30.6201 11.2539 30.0807 11.2539 29.4189L11.25 13.1572C11.2501 12.4923 11.7895 11.9562 12.4512 11.9561H22.0908V8.07617C22.0908 7.80509 21.8716 7.58512 21.6006 7.58496L3.30469 7.58203ZM40.7842 17.5557C39.5801 17.5557 38.5987 18.5371 38.5986 19.7412V31.9385C38.5988 33.1425 39.5801 34.124 40.7842 34.124H58.4014C59.6053 34.1238 60.5868 33.1424 60.5869 31.9385V19.7412C60.5868 18.5372 59.6053 17.5559 58.4014 17.5557H40.7842ZM13.6553 28.2148H22.0908V14.3584H13.6553V28.2148Z" fill="#897CFF"/>
</svg>
