<svg width="68" height="69" viewBox="0 0 68 69" fill="none" xmlns="http://www.w3.org/2000/svg">
<path fill-rule="evenodd" clip-rule="evenodd" d="M21.6154 18.8879C21.8998 18.1915 22.0587 17.4279 22.0587 16.6285C22.0587 13.3324 19.3829 10.6565 16.0867 10.6565C12.7906 10.6565 10.1147 13.3324 10.1147 16.6285C10.1147 17.2868 9.57958 17.822 8.92126 17.822C8.26295 17.822 7.72778 17.2868 7.72778 16.6285C7.72778 12.0157 11.474 8.26953 16.0867 8.26953C20.6995 8.26953 24.4457 12.0158 24.4457 16.6285C24.4457 17.3294 24.3606 18.0056 24.1972 18.6573L37.3971 24.056C38.4697 22.4572 40.2924 21.4048 42.3592 21.4048C43.4833 21.4048 44.5357 21.716 45.4337 22.258L51.4905 15.6479C51.0023 14.9 50.7202 14.0066 50.7202 13.0459C50.7202 10.4081 52.8586 8.2697 55.4964 8.2697C58.1342 8.2697 60.2726 10.4082 60.2726 13.0459C60.2726 15.6837 58.1342 17.8222 55.4964 17.8222C54.6858 17.8222 53.9222 17.6206 53.2504 17.2624L47.1936 23.8724C47.9079 24.8554 48.3311 26.0668 48.3311 27.3768C48.3311 27.8918 48.2662 28.3911 48.1431 28.8704C47.9774 29.5063 47.3257 29.8914 46.6875 29.728C46.0494 29.5645 45.6665 28.9106 45.8299 28.2725C45.9038 27.9881 45.9419 27.6858 45.9419 27.3768C45.9419 26.3311 45.494 25.3928 44.7798 24.7367C44.1416 24.1501 43.2929 23.794 42.3591 23.794C40.8633 23.794 39.578 24.7144 39.0428 26.0198V26.022C38.8704 26.4385 38.7764 26.8975 38.7764 27.3768C38.7764 28.0508 38.9645 28.68 39.2892 29.2196C39.9139 30.2631 41.0559 30.9595 42.3591 30.9595C42.6681 30.9595 42.9704 30.9192 43.2548 30.8453C43.8952 30.6819 44.5468 31.067 44.7103 31.7052C44.876 32.3434 44.4909 32.995 43.8527 33.1585C43.3758 33.2816 42.8742 33.3488 42.3591 33.3488C40.6192 33.3488 39.0496 32.6009 37.9568 31.4119L30.0794 36.1389C30.2988 36.7591 30.4175 37.4287 30.4175 38.125C30.4175 38.5661 30.3705 38.9961 30.2787 39.4103L36.8285 42.3213C37.704 41.2196 39.0543 40.5143 40.568 40.5143C43.2058 40.5143 45.3464 42.6528 45.3464 45.2905C45.3464 45.8884 45.2367 46.4616 45.0329 46.9901L51.3139 51.4394C52.2656 50.5862 53.5218 50.0667 54.8989 50.0667C57.8659 50.0667 60.273 52.4761 60.273 55.4409C60.273 58.4078 57.8659 60.815 54.8989 60.815C51.9341 60.815 49.5248 58.4078 49.5248 55.4409C49.5248 54.7154 49.6703 54.0212 49.9323 53.3875L43.6513 48.9382C42.8206 49.6413 41.7435 50.0668 40.5679 50.0668C37.9324 50.0668 35.7917 47.9283 35.7917 45.2906C35.7917 45.0219 35.8141 44.7599 35.8567 44.5046L29.3068 41.5914C28.2231 43.1073 26.4496 44.0971 24.4455 44.0971C23.3326 44.0971 22.2891 43.7903 21.3957 43.2574L16.4985 48.6427C16.9934 49.3951 17.28 50.2952 17.28 51.2626C17.28 53.8982 15.1415 56.0388 12.5038 56.0388C9.86601 56.0388 7.72754 53.8981 7.72754 51.2626C7.72754 48.6248 9.86601 46.4841 12.5038 46.4841C13.3076 46.4841 14.0668 46.6834 14.7318 47.035L19.6267 41.6497C18.9035 40.6621 18.4758 39.444 18.4758 38.1252C18.4758 37.0369 18.7669 36.018 19.2751 35.1381C19.6065 34.5671 20.3366 34.3723 20.9076 34.7037C21.4786 35.0328 21.6733 35.7651 21.342 36.3361C21.0374 36.8623 20.8628 37.4736 20.8628 38.1252C20.8628 39.1754 21.3151 40.1204 22.0384 40.7764C22.6743 41.3542 23.5185 41.708 24.4455 41.708C25.9055 41.708 27.1617 40.8347 27.7215 39.5807V39.5785C27.9185 39.1351 28.0282 38.6425 28.0282 38.1252C28.0282 37.4512 27.8424 36.822 27.5177 36.2824C26.893 35.2389 25.7487 34.5425 24.4455 34.5425C23.7872 34.5425 23.252 34.0073 23.252 33.349C23.252 32.6884 23.7872 32.1533 24.4455 32.1533C26.1876 32.1533 27.755 32.9012 28.8478 34.0902L36.7275 29.3632C36.5081 28.7429 36.3894 28.0734 36.3894 27.377C36.3894 26.9964 36.4252 26.6269 36.4924 26.2664L23.2924 20.8676C21.8392 23.333 19.1543 24.9878 16.0868 24.9878C13.6125 24.9878 11.389 23.9129 9.85744 22.2022C9.41856 21.7118 9.4611 20.9549 9.95149 20.516C10.4419 20.0772 11.1987 20.1175 11.6376 20.6101C12.7303 21.8305 14.3202 22.6008 16.0869 22.6008C18.5837 22.6008 20.7221 21.0647 21.6155 18.8904L21.6154 18.8879ZM53.8824 14.8058C54.3079 15.1976 54.8744 15.435 55.4969 15.435C56.8158 15.435 57.8861 14.3647 57.8861 13.0458C57.8861 11.7269 56.8158 10.6565 55.4969 10.6565C54.178 10.6565 53.1076 11.7269 53.1076 13.0458C53.1076 13.7421 53.4077 14.3691 53.8824 14.8058ZM42.5185 46.6699C42.794 46.2802 42.9574 45.8033 42.9574 45.2905C42.9574 43.9716 41.8871 42.9013 40.5682 42.9013C39.5963 42.9013 38.7589 43.4857 38.3849 44.321C38.2528 44.6188 38.1812 44.9457 38.1812 45.2905C38.1812 46.6095 39.2515 47.6798 40.5682 47.6798C41.372 47.6798 42.0841 47.2812 42.5185 46.6722L42.5185 46.6699ZM52.4631 53.7167C52.1182 54.2048 51.9145 54.7982 51.9145 55.4409C51.9145 57.089 53.2513 58.428 54.8993 58.428C56.5474 58.428 57.8864 57.089 57.8864 55.4409C57.8864 53.7928 56.5474 52.456 54.8993 52.456C53.8939 52.456 53.005 52.9531 52.4631 53.7167ZM14.11 49.4935C13.6845 49.1084 13.1224 48.8733 12.5044 48.8733C11.1855 48.8733 10.1152 49.9436 10.1152 51.2626C10.1152 52.5792 11.1855 53.6496 12.5044 53.6496C13.8233 53.6496 14.8937 52.5792 14.8937 51.2626C14.8937 50.5617 14.5914 49.9324 14.11 49.4935Z" fill="#897CFF"/>
</svg>
