<svg width="68" height="69" viewBox="0 0 68 69" fill="none" xmlns="http://www.w3.org/2000/svg">
<path d="M38.56 36.3525L36.3098 39.4843C36.2124 39.6213 36.0465 39.6942 35.8806 39.6721C35.7146 39.6566 35.5708 39.5528 35.5022 39.4003L31.8582 31.5477C31.3559 30.4648 30.3094 29.7377 29.1191 29.6448C27.9309 29.552 26.7826 30.1067 26.1167 31.0969L23.663 34.759C23.5745 34.8894 23.4284 34.969 23.2714 34.969H14.419C13.6379 34.969 13.0029 35.6011 13.0029 36.3834C13.0029 37.1636 13.6379 37.7979 14.419 37.7979H23.2578C24.3574 37.7979 25.3884 37.2498 25.9991 36.337L28.4528 32.6749L28.455 32.6727C28.5545 32.529 28.7271 32.4495 28.9019 32.4671C29.0723 32.4804 29.2227 32.5843 29.2935 32.7412L32.9376 40.5937C33.4265 41.6634 34.451 42.3861 35.6236 42.4922C35.7298 42.5011 35.8382 42.5055 35.9466 42.5055C37.0086 42.5077 38.0043 41.995 38.6194 41.1308L40.8718 37.9991V37.9968C40.9603 37.8775 41.1019 37.809 41.2501 37.809H50.8258C51.6068 37.809 52.2418 37.1747 52.2418 36.3945C52.2418 35.6144 51.6068 34.9801 50.8258 34.9801H41.2433C40.1791 34.9801 39.1817 35.4906 38.56 36.3525Z" fill="#897CFF" stroke="#897CFF" stroke-width="0.2"/>
<path d="M37.0688 9.7053H15.1493C12.7731 9.70752 10.4941 10.6512 8.81233 12.3309C7.13055 14.0105 6.18385 16.287 6.18164 18.6626V53.4007C6.18385 55.7765 7.13083 58.053 8.81233 59.7324C10.4938 61.4118 12.7728 62.3558 15.1493 62.3602H50.0877C52.4661 62.3558 54.7451 61.4121 56.4264 59.7324C58.1076 58.0528 59.0526 55.7763 59.057 53.4007V28.5746C59.057 27.7944 58.422 27.1601 57.641 27.1601C56.8578 27.1601 56.225 27.7944 56.225 28.5746V53.4007C56.2206 56.7844 53.4748 59.527 50.0874 59.5315H15.149C11.7616 59.5271 9.01822 56.7844 9.01368 53.4007V18.6626C9.01811 15.2789 11.7617 12.5363 15.149 12.534H37.0685C37.8495 12.534 38.4845 11.8997 38.4845 11.1195C38.4845 10.3372 37.8498 9.7053 37.0688 9.7053Z" fill="#897CFF" stroke="#897CFF" stroke-width="0.2"/>
<path d="M61.8181 12.2897C61.8159 10.1569 60.5924 8.21206 58.6719 7.28378C56.7514 6.35334 54.4659 6.60087 52.7886 7.92028C51.8062 7.14674 50.5916 6.72461 49.3393 6.72461C46.2616 6.72461 43.7659 9.21537 43.7637 12.2896C43.7637 18.4312 50.9831 22.3125 52.7888 22.3125C54.5945 22.3125 61.8181 18.4382 61.8181 12.2897ZM46.5959 12.2897C46.5981 10.778 47.8239 9.55359 49.3372 9.55359C50.251 9.55359 51.105 10.0089 51.6117 10.7691C51.875 11.1603 52.3153 11.3946 52.7887 11.3946C53.26 11.3946 53.7003 11.1603 53.9636 10.7691C54.6362 9.76576 55.8862 9.3193 57.0412 9.67071C58.1984 10.0243 58.986 11.0896 58.9838 12.2963C58.9838 16.4446 53.8861 19.1762 52.7867 19.4767C51.6915 19.1761 46.5959 16.438 46.5959 12.2897Z" fill="#897CFF" stroke="#897CFF" stroke-width="0.2"/>
</svg>
