<svg width="68" height="68" viewBox="0 0 68 68" fill="none" xmlns="http://www.w3.org/2000/svg">
<path d="M26.7062 8.5948C26.8065 7.8813 27.4642 7.38184 28.1777 7.48219C28.8912 7.5803 29.3907 8.23805 29.2903 8.95377L28.646 13.4934L28.6281 13.5915H28.6304C27.8477 17.1902 28.1532 20.577 29.1766 23.3465C29.9459 25.4268 31.112 27.1459 32.51 28.3187C32.6482 24.7958 33.0273 21.1483 34.1421 18.1493C35.6204 14.1738 38.3094 11.3619 43.2013 11.3619C45.2928 11.3619 47.5024 11.9104 49.6228 12.8692C51.77 13.8413 53.8369 15.2438 55.5917 16.9272C59.9262 21.0878 61.701 27.3666 61.264 33.8908C60.8181 40.5355 58.0644 47.4696 53.3778 52.6536C49.2886 57.1754 43.5783 60.0854 37.6563 60.8811C32.004 61.6392 26.1444 60.4798 21.2926 56.9658L21.2903 56.968C15.6871 53.4116 15.667 60.6804 15.667 60.7005C15.6626 61.4207 15.0739 61.9982 14.3537 61.9937C13.6336 61.9893 13.0561 61.4006 13.0605 60.6804C13.0605 60.647 13.0895 48.6668 22.6905 54.7607L22.6861 54.7651L22.7552 54.8142C27.0451 57.9447 32.2579 58.977 37.3083 58.2992C42.6395 57.5835 47.7745 54.9703 51.4447 50.9102C55.7302 46.1721 58.2475 39.8173 58.658 33.7217C59.0459 27.9292 57.523 22.4039 53.7838 18.8141C52.2476 17.3381 50.4371 16.1095 48.5507 15.2555C46.7625 14.4461 44.9186 13.9823 43.2039 13.9823C39.6654 13.9823 37.6944 16.0849 36.5883 19.0615C35.3732 22.328 35.1257 26.6446 35.0588 30.5803C35.0699 30.781 35.032 30.9861 34.9451 31.1823C34.6485 31.84 33.8748 32.1322 33.2171 31.8356C30.4032 30.5624 28.0464 27.8244 26.7265 24.2502C25.547 21.055 25.1858 17.1689 26.0732 13.066L26.7065 8.60212L26.7062 8.5948ZM51.0006 32.0107C51.0541 31.2906 51.6828 30.7532 52.4008 30.8045C53.121 30.858 53.6583 31.4867 53.6071 32.2047C53.4109 34.7399 52.7776 37.3263 51.7386 39.7655C50.7375 42.1201 49.3528 44.3453 47.6181 46.2607C46.0841 47.9575 44.2558 49.3555 42.2602 50.4079C40.2289 51.4803 38.0215 52.1983 35.7696 52.5194C35.0561 52.6197 34.3939 52.1247 34.2936 51.409C34.1932 50.6955 34.6882 50.0333 35.4017 49.933C37.3594 49.6565 39.2792 49.0277 41.0451 48.098C42.7842 47.1815 44.3673 45.973 45.6873 44.5126C47.2146 42.8248 48.4409 40.847 49.3373 38.7447C50.2604 36.573 50.8267 34.2697 51.0029 32.0133L51.0006 32.0107ZM8.79045 60.7625C8.74808 61.4827 8.13049 62.0313 7.41025 61.9888C6.69007 61.9465 6.14153 61.3289 6.18394 60.6086C7.67116 36.2161 23.8474 43.0411 25.0603 43.5874C27.6958 44.4369 29.3591 44.5885 30.3424 44.1158C31.1875 43.71 31.6201 42.6465 31.8564 41.0232V41.0188C31.9077 40.6598 31.95 40.2674 31.9857 39.8437L32.008 39.5672C28.5876 38.5929 25.6778 36.8849 23.341 34.5304C20.7523 31.9239 18.8794 28.5415 17.8002 24.5037C17.2874 22.5817 16.9395 20.3654 16.7968 18.1381C16.6564 15.9753 16.7077 13.7924 16.9841 11.8462L17.6285 7.30878C17.7289 6.59527 18.3866 6.09582 19.1001 6.19395C19.8136 6.29428 20.313 6.95203 20.2127 7.66553L19.5683 12.2052C19.3186 13.9733 19.2718 15.9778 19.4011 17.9754C19.5349 20.029 19.8515 22.0669 20.322 23.8307C21.283 27.4294 22.9285 30.4194 25.1894 32.6935C27.419 34.9365 30.2663 36.5062 33.6669 37.3V37.3045C34.2645 37.4427 34.6992 37.989 34.6747 38.6267C34.6524 39.1752 34.6256 39.659 34.5922 40.0603C34.5543 40.5174 34.5052 40.9656 34.4406 41.3982C34.0749 43.8977 33.241 45.6167 31.464 46.4685C29.8363 47.2511 27.5375 47.1441 24.1794 46.0515C24.1304 46.0359 24.0835 46.0181 24.0367 45.9958C23.9966 45.978 10.0943 39.318 8.78549 60.7653L8.79045 60.7625Z" fill="#897CFF"/>
</svg>
