<svg width="68" height="68" viewBox="0 0 68 68" fill="none" xmlns="http://www.w3.org/2000/svg">
<path d="M36.2637 13.4248C36.264 8.34879 40.6789 4.28268 45.8691 4.86621C49.8719 5.31698 53.0836 8.603 53.4541 12.6133C53.7759 16.0973 52.0027 19.1976 49.2598 20.8262C51.9607 21.8274 53.8938 24.4223 53.8935 27.4688V58.9541C53.8933 61.3867 51.9218 63.358 49.4892 63.3584H40.2656C39.5754 63.3584 38.9239 63.1953 38.3428 62.9111C37.5165 64.0138 36.2004 64.7323 34.7178 64.7324H31.0371C29.1939 64.7324 27.6093 63.6253 26.9014 62.0439C26.0834 62.8543 24.9596 63.3593 23.7178 63.3594H20.0371C17.5342 63.3594 15.5049 61.33 15.5049 58.8271V53.6426H15.3896C14.6697 53.6426 14.0859 53.0588 14.0859 52.3389V31.7861C14.0861 29.2035 15.685 26.9936 17.9414 26.0801C15.8355 24.7643 14.4277 22.4302 14.4277 19.7666C14.4282 15.3778 18.2424 11.8633 22.7295 12.3643C26.0236 12.7329 28.7432 15.3341 29.2402 18.6133C29.7144 21.7451 28.2181 24.5767 25.8115 26.0801C27.5808 26.7956 28.9431 28.3078 29.4502 30.1729C30.4273 29.5065 31.6087 29.1162 32.8789 29.1162C33.9625 29.1163 34.9793 29.4027 35.8613 29.9004V27.4688C35.8617 24.422 37.7946 21.8275 40.4951 20.8262C37.9675 19.3252 36.2637 16.5751 36.2637 13.4248ZM44.3613 36.2891C44.0026 36.2293 43.6466 36.3115 43.3574 36.5186L43.3564 36.5195L37.6963 40.5547L36.3486 41.5449L36.2637 41.6074H36.0068L35.9258 41.5527C35.3999 41.197 34.7906 41.0089 34.1699 41.0088H31.5859C30.9897 41.0088 30.4043 41.1827 29.8935 41.5107L29.7158 41.625L29.539 41.5068L26.8349 39.6816L26.8271 39.6768V39.6758L22.3994 36.5195C22.1073 36.3113 21.7515 36.2289 21.3935 36.2891C21.035 36.3495 20.7249 36.5437 20.5176 36.834C20.3099 37.1249 20.2284 37.4803 20.2881 37.8389L20.3174 37.9707C20.3989 38.2733 20.5787 38.5334 20.833 38.7148L26.4912 42.75L26.4922 42.751C26.5398 42.785 26.5885 42.813 26.6387 42.8379L26.7959 42.9053L26.8291 42.917L26.8584 42.9355L28.29 43.8428L28.4482 43.9424L28.4385 44.1299C28.4382 44.1353 28.4386 44.1407 28.4385 44.1445C28.4382 44.1489 28.4377 44.1517 28.4375 44.1543V60.2002C28.4377 61.6364 29.6024 62.7998 31.0381 62.7998H31.9121V56.2227C31.9125 55.6894 32.3446 55.2568 32.8779 55.2568C33.411 55.2571 33.8433 55.6896 33.8437 56.2227V62.8008H34.7178C36.1534 62.8006 37.3173 61.6368 37.3174 60.2012V43.9873L37.456 43.8916L44.9258 38.7119C45.2141 38.5046 45.4066 38.196 45.4668 37.8389L45.4824 37.7051C45.5009 37.4372 45.4412 37.175 45.3096 36.9463L45.2373 36.834C45.0559 36.5798 44.7956 36.3999 44.4931 36.3184L44.3613 36.2891ZM17.4375 58.8281C17.4376 60.2612 18.604 61.4277 20.0371 61.4277H23.7178C25.1507 61.4275 26.3172 60.261 26.3174 58.8281V53.6426H17.4375V58.8281ZM42.9521 22.3096C40.1033 22.3098 37.7934 24.62 37.793 27.4688V31.6182C38.5347 32.6278 38.9794 33.8703 38.9795 35.2188C38.9795 36.0723 38.8001 36.8836 38.4814 37.6201L42.2344 34.9453L42.3691 34.8545C43.0524 34.4158 43.867 34.2485 44.6806 34.3838L44.8418 34.415C45.6391 34.5897 46.3347 35.0461 46.8105 35.7129C47.3982 36.5366 47.5729 37.5729 47.2793 38.5664C47.0595 39.3079 46.559 39.9215 45.9521 40.3545L40.3848 44.3242L40.3818 44.3252L39.25 45.1172V60.2012C39.25 60.5282 39.2108 60.845 39.1445 61.1494C39.4832 61.325 39.8628 61.4277 40.2666 61.4277H43.9111V46.748C43.9114 46.2147 44.3445 45.7812 44.8779 45.7812C45.411 45.7816 45.8435 46.2149 45.8437 46.748V61.4277H49.4892C50.8548 61.4273 51.9609 60.3201 51.9609 58.9551V27.4688C51.9604 24.6202 49.6513 22.31 46.8027 22.3096H42.9521ZM20.2461 27.5596C17.9117 27.5597 16.02 29.4518 16.0195 31.7861V51.5449C16.0195 51.6364 16.0931 51.7109 16.1846 51.7109H26.5049V45.1572L24.6601 43.8174L19.8027 40.3545C19.1959 39.9216 18.6947 39.3081 18.4756 38.5654C18.1827 37.5722 18.3567 36.5363 18.9443 35.7119C19.5328 34.8877 20.4577 34.3854 21.4922 34.3389C22.2631 34.3043 23.0038 34.5769 23.6094 35.0088H23.6103L27.2685 37.6172C26.9517 36.8808 26.7744 36.0703 26.7744 35.2188C26.7745 34.0123 27.1301 32.887 27.7363 31.9395V31.7861C27.7358 29.452 25.8439 27.56 23.5098 27.5596H20.2461ZM32.8779 31.0488C30.5795 31.0488 28.7079 32.9203 28.707 35.2188C28.707 36.9733 29.8011 38.4741 31.3428 39.0879C31.4161 39.0824 31.5022 39.0762 31.5849 39.0762H34.1699C34.2521 39.0762 34.3379 39.0824 34.4111 39.0879C35.953 38.4742 37.0469 36.9736 37.0469 35.2188C37.0466 32.9204 35.1761 31.0491 32.8779 31.0488ZM21.8769 14.25C18.835 14.2501 16.3597 16.7257 16.3594 19.7676C16.3594 22.8097 18.8349 25.2847 21.8769 25.2842C24.9183 25.284 27.3935 22.809 27.3935 19.7676C27.3932 16.7257 24.9181 14.2502 21.8769 14.25ZM44.8779 6.74414C41.1944 6.74414 38.1966 9.74133 38.1963 13.4248C38.1963 17.1092 41.1942 20.1064 44.8779 20.1064C48.562 20.1061 51.5596 17.109 51.5596 13.4248C51.5592 9.74154 48.5619 6.74446 44.8779 6.74414Z" fill="#897CFF"/>
</svg>
