<svg width="68" height="68" viewBox="0 0 68 68" fill="none" xmlns="http://www.w3.org/2000/svg">
<path d="M41.0833 16.293V28.286C41.0833 28.7796 41.2294 29.2621 41.5032 29.6728L58.3255 54.9062C59.4331 56.5676 58.2421 58.793 56.2454 58.793H11.7546C9.75786 58.793 8.56689 56.5676 9.67448 54.9062L26.4968 29.6728C26.7706 29.2621 26.9166 28.7796 26.9166 28.286V16.293" stroke="#897CFF" stroke-width="2" stroke-linejoin="round"/>
<path d="M43.9167 10.625H46.75C48.3148 10.625 49.5834 11.8935 49.5834 13.4583C49.5834 15.0231 48.3148 16.2917 46.75 16.2917H21.25C19.6852 16.2917 18.4167 15.0231 18.4167 13.4583C18.4167 11.8935 19.6852 10.625 21.25 10.625H32.5834" stroke="#897CFF" stroke-width="2" stroke-linecap="round" stroke-linejoin="round"/>
<ellipse cx="38.25" cy="10.6257" rx="1.41667" ry="1.41667" fill="#897CFF"/>
<path d="M49.5834 53.1263L42.5 41.793H25.5L18.4167 53.1263H49.5834Z" stroke="#897CFF" stroke-width="2" stroke-linejoin="round"/>
</svg>
