<svg width="68" height="68" viewBox="0 0 68 68" fill="none" xmlns="http://www.w3.org/2000/svg">
<path d="M21.2827 7.99992C18.0634 8.05247 14.9558 9.18465 12.4585 11.2168C6.3206 16.2092 5.38792 25.272 10.3808 31.4095L10.8787 32.0221H5.19836C4.46122 32.0221 3.86365 32.6197 3.86365 33.3568C3.86365 34.094 4.46122 34.6915 5.19836 34.6915H21.2149C21.6839 34.6912 22.1184 34.4448 22.3593 34.0424L25.1121 29.4544L30.6986 40.6273C31.2172 41.6655 32.7221 41.5931 33.1387 40.51L38.7251 25.9846L42.711 33.9538C42.9372 34.406 43.3994 34.6916 43.905 34.6915H61.2562C61.9934 34.6915 62.5909 34.094 62.5909 33.3568C62.5909 32.6197 61.9934 32.0221 61.2562 32.0221H55.5759L56.0738 31.4095C61.0667 25.272 60.134 16.2092 53.9961 11.2168C47.8586 6.22395 38.7959 7.15663 33.8034 13.2944L33.2273 14.0035L32.6512 13.2944C29.8749 9.88045 25.6825 7.92887 21.2827 7.99992ZM44.8617 10.6589C47.4778 10.6416 50.1166 11.5032 52.3121 13.2892C57.3307 17.3713 58.0864 24.7072 54.0039 29.7255L52.1348 32.0221H44.7287L39.7601 22.0822C39.5369 21.6358 39.0834 21.3512 38.5844 21.3444C38.0255 21.3367 37.5209 21.6779 37.3201 22.1995L31.7336 36.7249L26.413 26.0863C25.9414 25.1447 24.6161 25.0945 24.0746 25.9977L20.4589 32.0221H14.3198L12.4506 29.7255C8.36822 24.7072 9.12387 17.3713 14.1425 13.2892C16.1757 11.6348 18.706 10.7121 21.327 10.6693C24.9104 10.6115 28.3175 12.1979 30.5787 14.9785L32.1924 16.9597C32.7265 17.6154 33.7281 17.6154 34.2622 16.9597L35.8759 14.9785C38.172 12.1555 41.4981 10.6812 44.8617 10.6589ZM47.8856 37.2489L33.2273 55.2675L18.6159 37.3062C18.1514 36.7341 17.3113 36.6466 16.7389 37.1107C16.1659 37.5761 16.0795 38.4182 16.546 38.9902L32.1924 58.2236C32.7265 58.8793 33.7281 58.8793 34.2622 58.2236L49.9555 38.9329C50.422 38.3608 50.3356 37.5187 49.7626 37.0533C49.0834 36.567 48.3114 36.7413 47.8856 37.2489Z" fill="#897CFF"/>
</svg>
