<svg width="68" height="68" viewBox="0 0 68 68" fill="none" xmlns="http://www.w3.org/2000/svg">
<path d="M49.3423 18.6914C52.3176 18.8423 54.6838 21.3027 54.6841 24.3154V25.8418H61.5747C65.4181 25.8421 68.1325 29.6076 66.9175 33.2539L66.103 35.6982C65.5425 37.3796 64.2219 38.6992 62.5405 39.2598L54.6841 41.8779V43.6836C54.6839 46.7937 52.1624 49.3145 49.0522 49.3145H18.9477C15.8378 49.3142 13.316 46.7936 13.3159 43.6836V41.8779L5.45946 39.2598C3.77793 38.6993 2.45754 37.3797 1.89696 35.6982L1.0825 33.2539C-0.132629 29.6075 2.58166 25.8419 6.42528 25.8418H13.3159V24.3154C13.3161 21.2056 15.8379 18.6838 18.9477 18.6836H49.0522L49.3423 18.6914ZM18.9477 20.6836C16.9424 20.6838 15.3161 22.3101 15.3159 24.3154V43.6836C15.316 45.689 16.9424 47.3142 18.9477 47.3145H49.0522C51.0578 47.3145 52.6839 45.6891 52.6841 43.6836V24.3154C52.6838 22.3728 51.1582 20.786 49.2397 20.6885L49.0522 20.6836H18.9477ZM33.9995 25.8418C34.5517 25.8418 34.9994 26.2896 34.9995 26.8418V33H41.1587C41.7109 33.0001 42.1587 33.4478 42.1587 34C42.1585 34.5521 41.7108 34.9999 41.1587 35H34.9995V41.1572C34.9995 41.7095 34.5518 42.1572 33.9995 42.1572C33.4474 42.1571 32.9995 41.7094 32.9995 41.1572V35H26.8432C26.2911 35 25.8434 34.5522 25.8432 34C25.8432 33.4477 26.291 33 26.8432 33H32.9995V26.8418C32.9996 26.2897 33.4474 25.842 33.9995 25.8418ZM6.42528 27.8418C3.94665 27.8419 2.19623 30.2706 2.97997 32.6221L3.79442 35.0654C4.15586 36.1498 5.00699 37.0008 6.09129 37.3623L13.3159 39.7705V27.8418H6.42528ZM54.6841 39.7705L61.9087 37.3623C62.9928 37.0007 63.8441 36.1497 64.2056 35.0654L65.02 32.6221C65.8036 30.2707 64.0531 27.8421 61.5747 27.8418H54.6841V39.7705Z" fill="#897CFF"/>
</svg>
