<svg width="68" height="68" viewBox="0 0 68 68" fill="none" xmlns="http://www.w3.org/2000/svg">
<g clip-path="url(#clip0_4002_1460)">
<path d="M55.3 19.6176L45.274 16.0305L43.9419 8.98192C43.875 8.62347 43.5594 8.36133 43.1956 8.36133H25.5917C25.2252 8.36133 24.9122 8.6208 24.8454 8.98192L23.5133 16.0305L13.4873 19.6176C9.35174 21.0969 6.57498 25.0398 6.57498 29.432V63.2436C6.57498 63.6635 6.9147 64.0033 7.33469 64.0033H61.4516C61.8716 64.0033 62.2113 63.6636 62.2113 63.2436V29.432C62.2113 25.0397 59.4321 21.0968 55.2991 19.6176H55.3ZM18.1584 54.1406L11.9979 49.9115C11.3693 49.4808 11.1018 48.7024 11.3345 47.9749L12.9742 42.8523C13.2551 41.9 14.4081 41.3811 15.3068 41.8091L22.5827 45.0538C22.8689 45.1822 23.2059 45.1207 23.4307 44.8987L26.6674 41.6727C26.9804 41.3597 27.4752 41.3116 27.8417 41.5577C28.2483 41.8278 28.3767 42.3548 28.1413 42.7828L26.4426 45.8777C26.3811 45.9901 26.349 46.1158 26.349 46.2442V62.4895H18.4876V54.7746C18.4876 54.5232 18.3646 54.2905 18.1586 54.1487L18.1584 54.1406ZM42.3397 45.8725L40.6411 42.7776C40.4057 42.3496 40.5341 41.8253 40.9407 41.5524C41.3098 41.3063 41.802 41.3571 42.1149 41.6674L45.3517 44.8934C45.5737 45.1154 45.9107 45.177 46.1996 45.0486L53.4755 41.8038C54.3717 41.3758 55.5272 41.8948 55.8081 42.847L57.4478 47.9696C57.6805 48.6972 57.413 49.4756 56.7844 49.9063L50.624 54.1354C50.418 54.2772 50.2949 54.5126 50.2949 54.7613V62.4762H42.4335V46.2309C42.4335 46.1025 42.4014 45.9768 42.3399 45.8644L42.3397 45.8725ZM60.69 62.4841H51.8172V55.1706L57.6459 51.1688C58.8336 50.3529 59.3365 48.8844 58.8978 47.5148L57.258 42.3922C56.9772 41.5176 56.3352 40.8006 55.4979 40.4235C54.658 40.049 53.6977 40.049 52.8577 40.4208L51.8172 40.8862V37.5372L54.551 34.049C54.8105 33.7173 54.7516 33.2412 54.4226 32.9817C54.0936 32.7222 53.6148 32.7811 53.3553 33.1101L50.4583 36.8069C50.354 36.9406 50.2951 37.1065 50.2951 37.2777V41.5683L46.058 43.4568L43.1904 40.5999C42.3665 39.7787 41.0665 39.6503 40.0982 40.295C39.0309 41.0065 38.6911 42.3922 39.3091 43.5156L40.9141 46.4393V62.4895H27.8736V46.4393L29.4786 43.5156C30.0966 42.3922 29.7568 41.0065 28.6896 40.295C27.7212 39.6476 26.4185 39.776 25.5973 40.5999L22.7298 43.4568L18.4926 41.5683V37.2777C18.4926 37.1065 18.4364 36.9433 18.3294 36.8069L15.4324 33.1101C15.173 32.7784 14.6942 32.7222 14.3651 32.9817C14.0361 33.2412 13.9772 33.72 14.2367 34.049L16.9705 37.5372V40.8862L15.93 40.4208C14.2367 39.621 12.062 40.5947 11.5297 42.3896L9.88994 47.5121C9.45125 48.8844 9.95414 50.3529 11.1418 51.1661L16.9705 55.1679V62.4815H8.09497V29.4321C8.09497 25.6818 10.4676 22.3137 13.9986 21.0489L24.4335 17.3173C24.6876 17.2264 24.8748 17.007 24.9257 16.7422L26.2203 9.88609H42.5642L43.8589 16.7422C43.9097 17.007 44.097 17.2264 44.3511 17.3173L54.7859 21.0489C58.3168 22.3115 60.6896 25.6819 60.6896 29.4321L60.69 62.4841ZM44.4077 38.5404C44.2767 38.939 43.8487 39.1583 43.4501 39.0273L42.2036 38.6207C40.5211 38.0723 38.6941 38.8079 37.8594 40.3674L37.3458 41.3251C37.1479 41.6996 36.6798 41.8333 36.316 41.6354C35.9468 41.4374 35.8051 40.9773 36.0057 40.6055L36.5193 39.6479C37.7016 37.4383 40.2936 36.3978 42.6744 37.1735L43.9209 37.5801C44.3195 37.7112 44.5388 38.1392 44.4078 38.5377L44.4077 38.5404ZM32.7821 40.6082C32.98 40.98 32.8409 41.44 32.4718 41.638C32.108 41.8333 31.6399 41.6995 31.4419 41.3277L30.9283 40.3701C30.0937 38.8106 28.2667 38.0776 26.5841 38.6233L25.3376 39.0299C24.9364 39.161 24.5084 38.9417 24.38 38.5431C24.2489 38.1445 24.4683 37.7139 24.8668 37.5855L26.1134 37.1789C28.4941 36.4032 31.0861 37.4437 32.2685 39.6532L32.7821 40.6108L32.7821 40.6082ZM35.1547 46.4021V59.5521C35.1547 59.9721 34.815 60.3118 34.395 60.3118C33.975 60.3118 33.6353 59.9721 33.6353 59.5521V46.4021C33.6353 45.9821 33.975 45.6424 34.395 45.6424C34.815 45.6424 35.1547 45.9821 35.1547 46.4021ZM35.1547 21.5168V34.5573C35.1547 34.9772 34.815 35.317 34.395 35.317C33.975 35.317 33.6353 34.9773 33.6353 34.5573V21.5168C33.6353 21.0968 33.975 20.7571 34.395 20.7571C34.815 20.7571 35.1547 21.0968 35.1547 21.5168Z" fill="#897CFF" stroke="#897CFF" stroke-width="0.7"/>
</g>
<defs>
<clipPath id="clip0_4002_1460">
<rect width="55.6364" height="55.6364" fill="white" transform="translate(6.18182 6.18164)"/>
</clipPath>
</defs>
</svg>
