<svg width="68" height="68" viewBox="0 0 68 68" fill="none" xmlns="http://www.w3.org/2000/svg">
<path d="M52.8857 12.709C55.9197 12.7091 58.3815 15.171 58.3818 18.2051V49.6816C58.3817 52.7158 55.9198 55.1776 52.8857 55.1777H15.1142C12.1746 55.1777 9.77203 52.8671 9.62494 49.9639L9.6181 49.6816V18.2051C9.61835 15.171 12.08 12.709 15.1142 12.709H52.8857ZM12.2167 49.6816C12.2168 51.2813 13.5145 52.5791 15.1142 52.5791H52.8857C54.4852 52.579 55.783 51.2812 55.7831 49.6816V25.7998H12.2167V49.6816ZM24.205 32.2939C24.9219 32.2943 25.5036 32.8769 25.5038 33.5938V37.1875H29.1035C29.8205 37.1876 30.403 37.7703 30.4033 38.4873C30.4032 39.2045 29.8206 39.786 29.1035 39.7861H25.5038V43.3857C25.5038 44.1028 24.922 44.6852 24.205 44.6855C23.4877 44.6855 22.9052 44.1031 22.9052 43.3857V39.7861H19.3105C18.5934 39.7859 18.0118 39.2044 18.0117 38.4873C18.0119 37.7704 18.5935 37.1878 19.3105 37.1875H22.9052V33.5938C22.9055 32.8766 23.4878 32.2939 24.205 32.2939ZM43.7929 39.9883C44.5099 39.9885 45.0915 40.5711 45.0917 41.2881C45.0916 42.0051 44.5099 42.5867 43.7929 42.5869H36.7978C36.0806 42.5868 35.4991 42.0052 35.499 41.2881C35.4992 40.571 36.0807 39.9884 36.7978 39.9883H43.7929ZM47.9892 34.3926C48.7063 34.3927 49.2888 34.9754 49.289 35.6924C49.2888 36.4094 48.7063 36.9911 47.9892 36.9912H36.7978C36.0807 36.9911 35.4992 36.4095 35.499 35.6924C35.4992 34.9753 36.0807 34.3926 36.7978 34.3926H47.9892ZM15.1142 15.3076C13.5146 15.3076 12.217 16.6056 12.2167 18.2051V23.2012H55.7831V18.2051C55.7829 16.6057 54.4851 15.3077 52.8857 15.3076H15.1142Z" fill="#897CFF"/>
</svg>
