<svg width="68" height="68" viewBox="0 0 68 68" fill="none" xmlns="http://www.w3.org/2000/svg">
<path d="M52.7324 9.69923C53.7808 9.69923 54.668 9.69641 55.3721 9.79103C56.105 9.88957 56.7876 10.1098 57.3389 10.6611C57.8902 11.2125 58.1104 11.895 58.209 12.6279C58.3036 13.332 58.3008 14.2192 58.3008 15.2676V25.4717C58.3008 25.6228 58.3033 25.8369 58.2783 26.0225C58.2494 26.237 58.1689 26.5567 57.8965 26.8291C57.6242 27.1011 57.3052 27.1811 57.0908 27.21C56.9053 27.2349 56.6911 27.2334 56.54 27.2334H42.7666V58.6895L41.4502 58.25L33.999 55.7666L26.2324 58.3555L25.916 58.25L18.4649 55.7666L11.0147 58.25L9.69825 58.6895V13.7451C9.69825 13.0556 9.69595 12.4372 9.7627 11.9404C9.83336 11.415 9.99797 10.8772 10.4375 10.4375C10.877 9.99817 11.4142 9.83439 11.9395 9.76368C12.4362 9.6969 13.0546 9.69923 13.7442 9.69923H52.7324ZM13.7442 11.6992C12.9982 11.6992 12.5386 11.7014 12.2061 11.7461C11.9028 11.787 11.8578 11.8463 11.8516 11.8525C11.8432 11.8604 11.7851 11.9098 11.7451 12.207C11.7005 12.5396 11.6983 12.9992 11.6983 13.7451V55.915L18.1494 53.7637L18.4658 53.6582L18.7813 53.7637L26.2324 56.2481L33.6836 53.7637L34 53.6582L34.3154 53.7637L40.7666 55.915V15.2676C40.7666 14.2192 40.7648 13.332 40.8594 12.6279C40.9026 12.3063 40.9714 11.9947 41.0791 11.6992H13.7442ZM28.8223 40.7676C29.3744 40.7678 29.8223 41.2154 29.8223 41.7676C29.822 42.3195 29.3742 42.7674 28.8223 42.7676H21.0547C20.5026 42.7675 20.055 42.3196 20.0547 41.7676C20.0547 41.2153 20.5024 40.7676 21.0547 40.7676H28.8223ZM23.6436 30.4111C24.1958 30.4111 24.6436 30.8589 24.6436 31.4111C24.6435 31.9633 24.1958 32.4111 23.6436 32.4111H21.0547C20.5026 32.411 20.0548 31.9632 20.0547 31.4111C20.0547 30.859 20.5025 30.4113 21.0547 30.4111H23.6436ZM45.5742 11.7002C44.8782 11.7042 44.3668 11.719 43.9619 11.7734C43.4513 11.8422 43.2603 11.9575 43.1426 12.0752C43.025 12.193 42.9104 12.3842 42.8418 12.8945C42.7693 13.4344 42.7666 14.1629 42.7666 15.2676V25.2334H56.3008V15.2676C56.3008 14.1628 56.2991 13.4344 56.2266 12.8945C56.1578 12.3833 56.0426 12.193 55.9248 12.0752C55.807 11.9574 55.6166 11.8422 55.1055 11.7734C54.5656 11.7009 53.8372 11.6992 52.7324 11.6992H46.3359L45.5742 11.7002ZM31.5127 20.0596C32.0172 20.1106 32.4111 20.5368 32.4111 21.0547C32.4111 21.5726 32.0172 21.9988 31.5127 22.0498L31.4111 22.0547H21.0547C20.5024 22.0547 20.0547 21.607 20.0547 21.0547C20.0547 20.5025 20.5025 20.0547 21.0547 20.0547H31.4111L31.5127 20.0596Z" fill="#897CFF"/>
</svg>
