<svg width="68" height="68" viewBox="0 0 68 68" fill="none" xmlns="http://www.w3.org/2000/svg">
<path d="M44.1735 9.57995C44.5534 9.19735 45.1585 9.17293 45.5682 9.50668L45.6469 9.57995L58.422 22.355C58.829 22.7593 58.829 23.4214 58.422 23.8284C58.015 24.2327 57.3529 24.2327 56.9459 23.8284L54.4902 21.37L45.3189 30.5413L51.7688 36.9911L51.8393 37.0698C52.1731 37.4795 52.1486 38.0819 51.7688 38.4645C51.3862 38.8444 50.7838 38.8688 50.3741 38.5351L50.2954 38.4645L47.0393 35.2084L30.2054 52.0422C28.0347 54.213 24.5208 54.2048 22.3498 52.0368L19.8941 49.5784L11.0514 58.4239L10.97 58.4945C10.5629 58.8282 9.95786 58.8038 9.57797 58.4239C9.17095 58.0169 9.17095 57.3548 9.57797 56.9505L18.4207 48.105L15.9623 45.6493C13.7943 43.4786 13.7943 39.9593 15.9623 37.7888L32.7913 20.9599L29.2693 17.4406C28.865 17.0336 28.865 16.3715 29.2693 15.9672C29.6519 15.5846 30.257 15.5602 30.664 15.8939L30.7426 15.9672L37.4584 22.6802L46.6297 13.5089L44.174 11.0532C43.767 10.6462 43.7665 9.98693 44.1735 9.57995ZM28.2865 28.4136L32.3403 32.4675L32.4109 32.5461C32.7446 32.9532 32.7229 33.5582 32.3403 33.9408C31.9577 34.3207 31.3553 34.3451 30.9456 34.0114L30.8669 33.9408L26.8131 29.887L22.9627 33.7347L27.0166 37.7885L27.0898 37.8672C27.4236 38.2769 27.3992 38.8793 27.0166 39.2619C26.6367 39.6445 26.0316 39.6662 25.6219 39.3324L25.5432 39.2619L21.4894 35.208L17.4382 39.2619C16.0815 40.6186 16.0815 42.8192 17.4382 44.1759L23.8229 50.5633C25.1823 51.92 27.3775 51.9227 28.7315 50.5687L45.5653 33.7349L34.2636 22.4331L28.2865 28.4136ZM38.9311 24.1536L43.8451 29.0676L53.0164 19.8963L48.1024 14.9823L38.9311 24.1536Z" fill="#897CFF" stroke="#897CFF" stroke-width="0.5"/>
</svg>
