<svg width="68" height="68" viewBox="0 0 68 68" fill="none" xmlns="http://www.w3.org/2000/svg">
<path d="M60.8775 48.8289H56.9381V40.6779C58.4201 39.8619 59.4424 38.2955 59.4424 36.4758V29.9382C59.4424 28.1279 58.4201 26.5615 56.9381 25.7361V19.3954C59.1329 18.4855 60.6806 16.3282 60.6806 13.8051C60.6806 10.4753 57.9698 7.75515 54.6307 7.75515C52.1169 7.75515 49.9502 9.3028 49.0403 11.4977H31.1251V9.33094C32.4195 9.29342 33.47 8.23351 33.47 6.92035C33.47 5.58843 32.382 4.50977 31.0594 4.50977H20.8824C19.5505 4.50977 18.4719 5.59781 18.4719 6.92035C18.4719 8.22413 19.5224 9.29342 20.8168 9.33094V19.5642C20.8168 21.14 21.539 22.6032 22.749 23.5693V25.4453C22.749 26.946 23.7902 28.2029 25.1877 28.5593V36.3258C25.1877 36.7572 25.5348 37.1136 25.9756 37.1136C26.4165 37.1136 26.7635 36.7666 26.7635 36.3258V28.5593C27.3263 28.4187 27.8422 28.1373 28.2455 27.7246C28.8552 27.1243 29.1929 26.3176 29.1929 25.4453V23.5693C30.4122 22.5939 31.1251 21.1306 31.1251 19.5642V16.1218H49.0403C49.65 17.6038 50.8412 18.7857 52.3232 19.4047V25.7454C50.8412 26.5615 49.8189 28.1279 49.8189 29.9475V36.4852C49.8189 38.2955 50.8412 39.8619 52.3232 40.6873V43.5106C49.5468 43.867 47.352 46.0619 46.9956 48.8383H41.077C41.4897 48.2474 41.7429 47.5251 41.7429 46.7466C41.7429 44.73 40.1015 43.0885 38.0848 43.0885H15.6486C13.6319 43.0885 11.9905 44.73 11.9905 46.7466C11.9905 47.5251 12.2344 48.2474 12.6564 48.8383H7.13179C5.71545 48.8383 4.55237 49.992 4.55237 51.4177V60.91C4.55237 62.3263 5.70607 63.4894 7.13179 63.4894H60.8682C62.2845 63.4894 63.4476 62.3357 63.4476 60.91V51.3989C63.4476 49.9826 62.2939 48.8289 60.8775 48.8289ZM20.0383 6.92035C20.0383 6.45137 20.4228 6.07618 20.8824 6.07618H31.0501C31.519 6.07618 31.8942 6.46075 31.8942 6.92035C31.8942 7.37996 31.5097 7.76453 31.0501 7.76453H20.8824C20.4228 7.77391 20.0383 7.38934 20.0383 6.92035ZM27.1293 26.6177C26.8292 26.9273 26.4165 27.0961 25.985 27.0961H25.9756H25.9663C25.0564 27.0867 24.3248 26.3551 24.3248 25.4453V24.4323C24.8501 24.6105 25.4128 24.7137 25.9756 24.7137C26.5478 24.7137 27.1012 24.6105 27.6265 24.4323V25.4453C27.6265 25.8955 27.4482 26.3082 27.1293 26.6177ZM29.5587 19.5642C29.5587 20.7554 28.9678 21.8622 27.9641 22.5376C26.7823 23.3442 25.169 23.3442 23.9684 22.5376C22.9741 21.8716 22.3832 20.7648 22.3832 19.5736V9.34032H29.5587V19.5642ZM48.6276 14.5554H31.3127V13.0734H48.6276C48.6276 13.1016 48.6276 13.1391 48.6183 13.1672C48.6089 13.2423 48.6089 13.3267 48.5995 13.4111C48.5901 13.5424 48.5714 13.6831 48.5714 13.8144C48.5714 13.9458 48.5901 14.0865 48.5995 14.2178C48.6089 14.3022 48.6089 14.3772 48.6183 14.4616C48.6276 14.4898 48.6183 14.5273 48.6276 14.5554ZM50.2691 14.8087C50.2597 14.7618 50.2409 14.7055 50.2316 14.6586C50.1753 14.3866 50.1471 14.1052 50.1471 13.8238C50.1471 13.533 50.1753 13.261 50.2316 12.989C50.2409 12.9421 50.2503 12.8858 50.2691 12.8389C50.7193 10.8505 52.5015 9.3497 54.6307 9.3497C57.0975 9.3497 59.1048 11.357 59.1048 13.8238C59.1048 16.2907 57.0975 18.2979 54.6307 18.2979C52.5015 18.2979 50.7287 16.7972 50.2691 14.8087ZM53.8897 19.8081C54.1335 19.8362 54.3774 19.855 54.6307 19.855C54.8839 19.855 55.1278 19.8362 55.3717 19.8081V25.192C55.1278 25.1545 54.8839 25.117 54.6307 25.117C54.3774 25.117 54.1335 25.1545 53.8897 25.192V19.8081ZM51.3853 29.9382C51.3853 28.1466 52.8391 26.6928 54.6307 26.6928C56.4222 26.6928 57.876 28.1466 57.876 29.9382V36.4758C57.876 37.9578 56.8724 39.1959 55.5123 39.5899C55.4279 39.6086 55.3529 39.6462 55.2685 39.6649C55.231 39.6743 55.1934 39.6743 55.1559 39.6743C54.8089 39.7306 54.4618 39.7306 54.1148 39.6743C54.0772 39.6649 54.0397 39.6743 54.0022 39.6649C53.9178 39.6462 53.8428 39.618 53.7583 39.5899C52.3983 39.2053 51.3947 37.9672 51.3947 36.4758V29.9382H51.3853ZM55.3717 41.2313V48.8289H53.8897V41.2313C54.3868 41.3064 54.8745 41.3064 55.3717 41.2313ZM52.3232 45.0958V48.8289H48.5901C48.9184 46.9248 50.4192 45.4241 52.3232 45.0958ZM13.5569 46.7372C13.5569 45.5835 14.4949 44.6456 15.6486 44.6456H38.0942C39.2479 44.6456 40.1859 45.5835 40.1859 46.7372C40.1859 47.8909 39.2479 48.8289 38.0942 48.8289H15.6486C14.4949 48.8289 13.5569 47.8909 13.5569 46.7372ZM7.13179 50.3953H15.6392H38.0848H53.1018H56.1502H60.8682C61.4216 50.3953 61.8718 50.8455 61.8718 51.3989V56.8955H27.6358L23.3587 53.9596C23.2274 53.8658 23.0773 53.8189 22.9178 53.8189H6.12816V51.3896C6.12816 50.8455 6.57839 50.3953 7.13179 50.3953ZM60.8775 61.9042H7.13179C6.57839 61.9042 6.12816 61.454 6.12816 60.9006V55.4041H22.6646L26.9417 58.3399C27.0731 58.4337 27.2231 58.4806 27.3826 58.4806H61.8718V60.91C61.8812 61.454 61.4309 61.9042 60.8775 61.9042Z" fill="#897CFF" stroke="#897CFF" stroke-width="0.4"/>
<path d="M44.387 45.6788C46.4036 45.6788 48.0451 44.0397 48.0451 42.0259C48.0451 40.0121 46.4036 38.373 44.387 38.373C42.3704 38.373 40.7289 40.0121 40.7289 42.0259C40.7289 44.0397 42.3704 45.6788 44.387 45.6788ZM44.387 39.9372C45.5407 39.9372 46.4787 40.8738 46.4787 42.0259C46.4787 43.178 45.5407 44.1146 44.387 44.1146C43.2333 44.1146 42.2953 43.178 42.2953 42.0259C42.2953 40.8738 43.2333 39.9372 44.387 39.9372Z" fill="#897CFF"/>
</svg>
