<svg width="68" height="68" viewBox="0 0 68 68" fill="none" xmlns="http://www.w3.org/2000/svg">
<path d="M63.9183 4.63672C64.4649 4.63696 64.9085 5.08124 64.9085 5.62793L64.9036 37.2129C64.9035 37.7596 64.4592 38.2031 63.9124 38.2031H49.7415V40.958H63.9124C64.4592 40.958 64.9035 41.4015 64.9036 41.9482V51.8535C64.9036 52.4003 64.4592 52.8438 63.9124 52.8438H41.7659V57.5381C41.7659 60.5043 39.3545 62.9138 36.3909 62.9141H14.4808C11.5145 62.914 9.10579 60.5018 9.10579 57.5381V52.9756H8.88899C7.18674 52.9756 5.7984 51.588 5.79817 49.8857V39.0107L3.72005 34.8496C2.91528 33.2452 2.88112 31.388 3.62141 29.7578C4.35398 28.138 5.75506 26.9566 7.46516 26.5078C9.26033 26.0384 11.3005 26.0716 13.057 26.6055C14.6484 27.0878 15.9407 28.2567 16.6087 29.8096C17.3026 31.4346 17.2509 33.2632 16.4642 34.8418L14.3851 39.0078V49.8828C14.3851 51.5852 12.9976 52.9727 11.2952 52.9727H11.0843V57.5361C11.0844 59.406 12.6107 60.9304 14.4779 60.9307H36.3909C38.2608 60.9305 39.7854 59.4034 39.7855 57.5361V52.8418H20.9661C20.4193 52.8418 19.9749 52.3974 19.9749 51.8506V41.9463C19.9749 41.3995 20.4193 40.9551 20.9661 40.9551H34.554V38.2002H20.3831C19.8363 38.2002 19.3919 37.7568 19.3919 37.21V5.62793C19.3919 5.0811 19.8363 4.63672 20.3831 4.63672H63.9183ZM7.77669 39.7666V49.8828C7.77669 50.4967 8.27739 50.9921 8.88606 50.9922H11.2904C11.9042 50.9921 12.3997 50.4967 12.3997 49.8828V39.7666H7.77669ZM21.9534 42.9375V50.8613H62.9193V42.9375H21.9534ZM36.5325 38.2012V40.9561H47.7581V38.2012H36.5325ZM12.4769 28.5098C11.066 28.079 9.42027 28.0489 7.96809 28.4307H7.96028C6.83059 28.7299 5.89968 29.5137 5.41731 30.584C4.92985 31.6724 4.94993 32.908 5.48372 33.9707L7.3929 37.7881H12.7738L14.6868 33.958C15.2079 32.9082 15.25 31.68 14.7806 30.5967C14.3395 29.5676 13.5189 28.827 12.4769 28.5098ZM21.3734 6.61914V36.2148H62.9193L62.9281 36.2207V6.61914H21.3734ZM47.39 13.2119C47.7976 12.7989 48.4622 12.7988 48.8753 13.2119H48.8695L56.7493 21.0918C57.1543 21.4995 57.1543 22.165 56.7493 22.5781C52.9824 26.3538 47.975 28.4335 42.637 28.4336C37.299 28.4336 32.2836 26.3538 28.5159 22.5781C28.1028 22.1649 28.111 21.4967 28.5159 21.0918L36.4036 13.2119C36.8113 12.7988 37.4768 12.7988 37.89 13.2119C39.1595 14.4733 40.8396 15.1738 42.64 15.1738C44.4403 15.1738 46.1232 14.4787 47.39 13.2119ZM48.0931 15.3975C46.5445 16.615 44.6456 17.2743 42.6429 17.2744C40.6402 17.2744 38.7413 16.615 37.1927 15.3975L30.7679 21.8145C34.0376 24.7338 38.213 26.3311 42.64 26.3311H42.6429C47.0696 26.331 51.2367 24.7366 54.5091 21.8145L48.0931 15.3975Z" fill="#897CFF"/>
</svg>
