<?xml version="1.0" encoding="utf-8"?>
<!-- Generator: Adobe Illustrator 24.1.2, SVG Export Plug-In . SVG Version: 6.00 Build 0)  -->
<svg version="1.1" id="Слой_1" xmlns="http://www.w3.org/2000/svg" xmlns:xlink="http://www.w3.org/1999/xlink" x="0px" y="0px"
	 viewBox="0 0 199 43" style="enable-background:new 0 0 199 43;" xml:space="preserve">
<style type="text/css">
	.st0{fill:url(#Shape_12_);}
	.st1{fill:#897CFF;}
	.st2{opacity:0.6;fill:none;stroke:#897CFF;enable-background:new    ;}
</style>
<desc>Created with Sketch.</desc>
<g id="Process">
	<g id="Header" transform="translate(-32.000000, -10.000000)">
		<g id="logo" transform="translate(32.000000, 10.000000)">
			
				<linearGradient id="Shape_12_" gradientUnits="userSpaceOnUse" x1="-957.0239" y1="1878.1246" x2="-956.3424" y2="1877.4768" gradientTransform="matrix(43 0 0 -43 41160 80768)">
				<stop  offset="0" style="stop-color:#E192FE"/>
				<stop  offset="1" style="stop-color:#897CFF"/>
			</linearGradient>
			<path id="Shape" class="st0" d="M38.8,11h-6.7V4.2c0-2.3-1.9-4.2-4.2-4.2H15.1c-2.3,0-4.2,1.9-4.2,4.2v6.7H4.2
				c-2.3,0-4.2,1.9-4.2,4.2v12.8c0,2.3,1.9,4.2,4.2,4.2h6.7v6.7c0,2.3,1.9,4.2,4.2,4.2h12.8c2.3,0,4.2-1.9,4.2-4.2v-6.7h6.7
				c2.3,0,4.2-1.9,4.2-4.2V15.1C43,12.8,41.1,11,38.8,11z M39.1,27.6c0,1.6-1.3,2.8-2.8,2.8h-5.8v5.8c0,1.6-1.3,2.8-2.8,2.8H15.5
				c-1.6,0-2.8-1.3-2.8-2.8v-5.8H6.8c-1.6,0-2.8-1.3-2.8-2.8V15.5c0-1.6,1.3-2.8,2.8-2.8h5.8V6.8c0-1.6,1.3-2.8,2.8-2.8h12.1
				c1.6,0,2.8,1.3,2.8,2.8v5.8h5.8c1.6,0,2.8,1.3,2.8,2.8V27.6z"/>
			<g id="Group" transform="translate(10.000000, 14.000000)">
				<ellipse id="Oval" class="st1" cx="11.4" cy="8.1" rx="1.1" ry="1.1"/>
				<ellipse id="Oval_1_" class="st1" cx="4.8" cy="1.2" rx="1.2" ry="1.2"/>
				<path id="Path" class="st1" d="M14.3,8.4c-0.4,0.5-1.6,1.3-2.9,1.3S8.9,8.9,8.6,8.4C8.4,8.2,8.2,8.3,8.3,8.5
					c0.3,0.6,1.4,1.8,1.8,2.1c0.1,0.1-0.5,4.7-0.4,5.1s0.4,0.2,0.5,0s0.9-2.7,1.4-2.7s1.2,2.5,1.4,2.7c0.1,0.2,0.4,0.4,0.5,0
					s-0.5-5-0.4-5.1c0.5-0.3,1.5-1.4,1.8-2.1C14.7,8.3,14.5,8.1,14.3,8.4z"/>
				<path id="Path_1_" class="st1" d="M8.2,7.6c-0.1-0.3-1.3-5-4.2-5S0.2,7,0.1,7.4c-0.2,0.5,0.4,0.5,0.5,0.3
					c0.1-0.2,1.9-3.4,2.1-2.8c0.2,0.7-1.3,4.9-0.1,10.5c0.1,0.6,0.9,0.6,0.9,0.1C3.2,13,3.3,10.7,4,10.7s1.7,2.5,2.1,4.8
					c0.1,0.5,1,0.5,0.9-0.1C6.7,13.1,5.1,6.1,5.8,5.4c0.3-0.3,1.8,2.5,2,2.7C8,8.3,8.4,8.1,8.2,7.6z"/>
				<ellipse id="Oval_2_" class="st1" cx="18.1" cy="1.7" rx="1.2" ry="1.2"/>
				<path id="Path_2_" class="st1" d="M22.7,7.4c-0.1-0.3-1.1-4.3-4.1-4.3s-3.9,4.2-4,4.5c-0.2,0.5,0.2,0.6,0.4,0.5
					c0.1-0.2,1.6-2.7,1.9-2.5c0.2,0.2,0,4.3-1.3,6.2c-0.1,0.1,0,0.3,0.1,0.3c0.2,0.1,0.5,0.1,0.8,0.2c-0.2,1.3-0.4,2.5-0.5,3.3
					c-0.1,0.6,0.6,0.6,0.8,0.1c0.2-1.1,0.5-2.3,0.8-3.3c0.4,0,0.8,0.1,1.1,0c-0.1,0.9-0.4,2.1-0.8,3.3c-0.2,0.5,0.6,0.4,0.8-0.1
					c0.5-1.1,0.8-2.2,1.1-3.3c0.1,0,0.2-0.1,0.4-0.1c0.1,0,0.1-0.1,0.2-0.2C20.9,9.7,20,5.4,20.2,5c0.2-0.5,2,2.5,2.1,2.7
					C22.4,7.9,22.9,7.8,22.7,7.4z"/>
			</g>
			<g id="Group_1_" transform="translate(52.000000, 5.000000)">
				<g transform="translate(0.000000, 25.052632)">
					<path id="Path_3_" class="st1" d="M5.4,6.3C5.3,6.9,5,7.4,4.6,7.8C4.1,8.1,3.7,8.3,3,8.3c-0.7,0-1.3-0.3-1.7-0.7
						C1.2,7.4,1.1,7.2,1,7.2C0.9,7,0.8,6.8,0.8,6.5S0.7,6.1,0.7,5.9c0-0.2,0-0.4,0-0.8c0-0.4,0-0.6,0-0.8s0-0.4,0.1-0.6
						C0.8,3.4,0.9,3.2,1,3c0.1-0.2,0.2-0.4,0.4-0.4C1.8,2.1,2.4,1.9,3,1.9s1.2,0.2,1.5,0.5C5,2.8,5.3,3.2,5.4,3.9H4.1
						C3.9,3.3,3.6,3,3,3C2.7,3,2.4,3.1,2.2,3.4C2.1,3.6,2.1,3.8,2,3.9c0,0.3-0.1,0.6-0.1,1.3s0,1,0.1,1.3C2,6.7,2.1,6.9,2.2,7
						C2.4,7.2,2.7,7.3,3,7.3c0.5,0,0.9-0.3,1.1-0.9h1.3V6.3z"/>
					<polygon id="Path_4_" class="st1" points="14.2,8.2 10,8.2 10,1.9 14.2,1.9 14.2,3 11.3,3 11.3,4.5 13.8,4.5 13.8,5.5 
						11.3,5.5 11.3,7.2 14.2,7.2 					"/>
					<polygon id="Path_5_" class="st1" points="24.8,8.2 23.5,8.2 23.5,4.5 22.3,6.9 21.5,6.9 20.2,4.5 20.2,8.2 19,8.2 19,1.9 
						20.2,1.9 21.9,5.4 23.6,1.9 24.9,1.9 24.9,8.2 					"/>
					<polygon id="Path_6_" class="st1" points="34,8.2 29.8,8.2 29.8,1.9 34,1.9 34,3 31.1,3 31.1,4.5 33.6,4.5 33.6,5.5 31.1,5.5 
						31.1,7.2 34,7.2 					"/>
					<path id="Shape_1_" class="st1" d="M43.7,8.2h-1.3V4.1l-2.5,4.1h-1.1V1.9h1.3V6l2.5-4.1h1.1V8.2z M42.7,0.3
						c0,0.4-0.2,0.8-0.4,1s-0.6,0.3-1,0.3s-0.7-0.1-1-0.3s-0.4-0.5-0.4-1h0.9c0,0.4,0.2,0.5,0.5,0.5s0.5-0.2,0.5-0.5H42.7z"/>
					<polygon id="Path_7_" class="st1" points="53.4,8.2 52.1,8.2 52.1,5.5 50,5.5 50,8.2 48.7,8.2 48.7,1.9 50,1.9 50,4.5 
						52.1,4.5 52.1,1.9 53.4,1.9 					"/>
					<path id="Shape_2_" class="st1" d="M63.4,8.2H62l-0.4-1.2h-2.2l-0.4,1.2h-1.3l2.3-6.4h1L63.4,8.2z M61.4,6.1l-0.8-2.3l-0.8,2.3
						H61.4z"/>
					<path id="Shape_3_" class="st1" d="M69.8,5.8l-1.1,2.4h-1.5l1.3-2.7c-0.4-0.2-0.6-0.4-0.8-0.7c-0.2-0.3-0.3-0.6-0.3-1.1
						c0-0.6,0.2-1.1,0.6-1.4s0.9-0.5,1.5-0.5h2.5v6.4h-1.3V5.7L69.8,5.8L69.8,5.8z M70.8,4.7V3h-1.2c-0.3,0-0.5,0.1-0.7,0.3
						s-0.3,0.4-0.3,0.6s0.1,0.4,0.3,0.6s0.4,0.3,0.6,0.3H70.8z"/>
					<polygon id="Path_8_" class="st1" points="84.1,8.2 82.8,8.2 82.8,1.9 84.1,1.9 84.1,4.9 86.1,1.9 87.6,1.9 85.5,4.8 87.8,8.2 
						86.3,8.2 84.1,4.9 					"/>
					<path id="Path_9_" class="st1" d="M96.8,8.2h-1.3V3H94v1.9c0,0.9-0.1,1.6-0.3,2.1c-0.2,0.4-0.4,0.9-0.6,1.1S92.5,8.2,92,8.2
						h-0.4V7.2h0.2c0.2,0,0.4,0,0.4-0.1s0.3-0.2,0.4-0.4s0.2-0.4,0.3-0.7c0.1-0.3,0.1-0.7,0.1-1.2V2h3.9L96.8,8.2L96.8,8.2z"/>
					<polygon id="Path_10_" class="st1" points="106.7,8.2 105.5,8.2 105.5,4.1 103,8.2 101.9,8.2 101.9,1.9 103.1,1.9 103.1,6 
						105.6,1.9 106.7,1.9 					"/>
					<polygon id="Path_11_" class="st1" points="116.4,8.2 115.1,8.2 115.1,5.5 113,5.5 113,8.2 111.7,8.2 111.7,1.9 113,1.9 
						113,4.5 115.1,4.5 115.1,1.9 116.4,1.9 					"/>
					<polygon id="Path_12_" class="st1" points="126.3,8.2 125.1,8.2 125.1,4.1 122.6,8.2 121.5,8.2 121.5,1.9 122.7,1.9 122.7,6 
						125.2,1.9 126.3,1.9 					"/>
					<polygon id="Path_13_" class="st1" points="132.6,8.2 131.3,8.2 131.3,1.9 132.6,1.9 132.6,4.9 134.6,1.9 136.2,1.9 134,4.8 
						136.3,8.2 134.8,8.2 132.6,4.9 					"/>
					<path id="Shape_4_" class="st1" d="M145.6,8.2h-1.3l-0.4-1.2h-2.2l-0.4,1.2h-1.3l2.3-6.4h1L145.6,8.2z M143.6,6.1l-0.8-2.3
						L142,6.1H143.6z"/>
				</g>
				<g>
					<path id="Path_14_" class="st1" d="M5.4,13.6c-1.2,0-2.2-0.4-3-1c-0.8-0.7-1.3-1.7-1.6-3h2.5c0.4,1.2,1.1,1.8,2.1,1.8
						c0.6,0,1.1-0.2,1.5-0.4c0.4-0.4,0.5-0.7,0.5-1.3c0-0.5-0.2-1-0.5-1.3C6.5,8.2,6.1,8.1,5.5,8.1H3.8V6h1.7c0.5,0,1-0.2,1.3-0.4
						c0.3-0.3,0.4-0.7,0.4-1.2S7.1,3.5,6.8,3.2C6.4,3,6,2.8,5.5,2.8C4.8,2.8,4.4,3,4,3.3S3.4,4.1,3.3,4.7H0.8c0.2-1.3,0.7-2.2,1.6-3
						c0.8-0.7,1.9-1,3-1c1.3,0,2.3,0.4,3.1,1c0.8,0.6,1.3,1.5,1.3,2.6c0,1.3-0.5,2.1-1.7,2.8C9.4,7.6,10,8.6,10,9.9
						c0,1.2-0.4,2.1-1.3,2.8C7.8,13.2,6.7,13.6,5.4,13.6z"/>
					<path id="Shape_5_" class="st1" d="M22.7,16.3h-2.4v-2.9h-7.1v2.9h-2.4v-5H12c1-1.5,1.5-4,1.5-7.2V0.8h7.7v10.6h1.4L22.7,16.3
						L22.7,16.3z M18.8,11.3V3H16v1.9c0,2.8-0.4,4.9-1.2,6.4H18.8z"/>
					<path id="Shape_6_" class="st1" d="M33.8,6.3v1.3c0,0.7,0,1.3-0.1,1.7c0,0.4-0.2,0.9-0.4,1.4s-0.4,1.1-0.9,1.4
						c-0.9,0.9-2.1,1.4-3.4,1.4c-1.3,0-2.5-0.4-3.5-1.4c-0.4-0.4-0.7-0.9-0.9-1.5s-0.3-1.1-0.4-1.5c-0.1-0.4,0-0.9,0-1.5V6.5
						c0-1.3,0.1-2.2,0.3-2.9s0.5-1.2,1-1.7c0.9-0.9,2.1-1.4,3.5-1.4c1.3,0,2.5,0.4,3.4,1.4C33.3,2.9,33.8,4.3,33.8,6.3z M31.2,6.9
						c0-1.1,0-1.8-0.1-2.2c-0.1-0.4-0.3-0.8-0.5-1.1c-0.4-0.4-0.9-0.7-1.6-0.7s-1.3,0.3-1.6,0.7c-0.3,0.3-0.4,0.7-0.5,1.3
						s-0.1,1.3-0.1,2.2v0.6c0,0.5,0,1,0,1.3c0,0.3,0.1,0.6,0.2,1s0.3,0.6,0.4,0.8c0.4,0.4,1,0.7,1.6,0.7s1.2-0.3,1.6-0.7
						c0.3-0.3,0.4-0.7,0.5-1.2C31.2,9,31.2,8.1,31.2,6.9z"/>
					<path id="Shape_7_" class="st1" d="M36.3,0.7h4.9c1.3,0,2.2,0.4,3,1.2c0.8,0.7,1.2,1.7,1.2,2.9S45,6.9,44.2,7.6s-1.8,1.1-3,1.1
						h-2.4v4.8h-2.5V0.7z M38.8,6.4h2.3c0.5,0,1-0.2,1.3-0.4C42.8,5.6,43,5.3,43,4.7s-0.2-1-0.5-1.3C42.1,3.1,41.6,3,41.1,3h-2.3
						V6.4z"/>
					<path id="Shape_8_" class="st1" d="M56.5,6.3v1.3c0,0.7,0,1.3-0.1,1.7c0,0.4-0.2,0.9-0.4,1.4s-0.4,1.1-0.9,1.4
						c-0.9,0.9-2.1,1.4-3.4,1.4c-1.4,0-2.5-0.4-3.5-1.4c-0.4-0.4-0.7-0.9-0.9-1.5S47.1,9.6,47,9.1c-0.1-0.4,0-0.9,0-1.5V6.5
						c0-1.3,0.1-2.2,0.3-2.9s0.5-1.2,1-1.7c0.9-0.9,2.1-1.4,3.5-1.4c1.3,0,2.5,0.4,3.4,1.4C56,2.9,56.5,4.3,56.5,6.3z M54,6.9
						c0-1.1,0-1.8-0.1-2.2c-0.1-0.4-0.3-0.8-0.5-1.1c-0.4-0.4-0.9-0.7-1.6-0.7s-1.3,0.3-1.6,0.7c-0.3,0.3-0.4,0.7-0.5,1.3
						s-0.1,1.3-0.1,2.2v0.6c0,0.5,0,1,0,1.3c0,0.3,0.1,0.6,0.2,1s0.3,0.6,0.4,0.8c0.4,0.4,1,0.7,1.6,0.7s1.2-0.3,1.6-0.7
						c0.3-0.3,0.4-0.7,0.5-1.2C54,9,54,8.1,54,6.9z"/>
					<path id="Shape_9_" class="st1" d="M66.5,7c0.4,0.2,0.7,0.4,1,0.7c0.5,0.5,0.8,1.3,0.8,2.2c0,1.2-0.4,2-1.1,2.7
						c-0.7,0.6-1.6,1-2.9,1H59V0.7h5.1c1.2,0,2.1,0.4,2.9,1S68,3.2,68,4.3C68.1,5.5,67.6,6.4,66.5,7z M61.5,5.9h2.4
						c0.5,0,0.9-0.1,1.2-0.4s0.4-0.6,0.4-1.1c0-0.4-0.2-0.8-0.4-1.1S64.4,3,63.9,3h-2.4V5.9z M61.5,11.3h2.6c0.5,0,0.9-0.2,1.3-0.4
						c0.3-0.3,0.4-0.6,0.4-1.2c0-0.4-0.2-0.9-0.4-1.2s-0.7-0.4-1.3-0.4h-2.6V11.3z"/>
					<path id="Shape_10_" class="st1" d="M78.9,6.6C79.6,7.3,80,8.3,80,9.5s-0.4,2.1-1.2,2.9s-1.8,1.1-3,1.1h-5V0.7h2.5v4.8h2.5
						C77.1,5.5,78.1,5.9,78.9,6.6z M77,10.8c0.4-0.4,0.5-0.7,0.5-1.3c0-0.5-0.2-1-0.5-1.3c-0.4-0.4-0.8-0.4-1.3-0.4h-2.3v3.5h2.3
						C76.2,11.3,76.6,11.1,77,10.8z M83.9,13.5h-2.5V0.7h2.5V13.5z"/>
					<polygon id="Path_15_" class="st1" points="95.3,13.5 86.8,13.5 86.8,0.7 95.3,0.7 95.3,3 89.3,3 89.3,5.9 94.4,5.9 94.4,8.1 
						89.3,8.1 89.3,11.3 95.3,11.3 					"/>
					<path id="Shape_11_" class="st1" d="M112.4,16.3H110v-2.9H103v2.9h-2.4v-5h1.2c1-1.5,1.5-4,1.5-7.2V0.8h7.7v10.6h1.4
						L112.4,16.3L112.4,16.3z M108.5,11.3V3h-2.9v1.9c0,2.8-0.4,4.9-1.2,6.4H108.5z"/>
					<polygon id="Path_16_" class="st1" points="122.8,13.5 114.4,13.5 114.4,0.7 122.8,0.7 122.8,3 116.9,3 116.9,5.9 121.9,5.9 
						121.9,8.1 116.9,8.1 116.9,11.3 122.8,11.3 					"/>
					<polygon id="Path_17_" class="st1" points="133.5,3 130.2,3 130.2,13.5 127.7,13.5 127.7,3 124.3,3 124.3,0.7 133.5,0.7 					
						"/>
					<polygon id="Path_18_" class="st1" points="145.1,13.5 142.6,13.5 142.6,5.4 137.7,13.5 135.4,13.5 135.4,0.7 138,0.7 138,8.9 
						142.9,0.8 145.1,0.8 					"/>
				</g>
				<line id="Path_19_" class="st2" x1="0.2" y1="20.2" x2="146.6" y2="20.2"/>
			</g>
		</g>
	</g>
</g>
</svg>
