<svg width="223" height="45" viewBox="0 0 223 45" fill="none" xmlns="http://www.w3.org/2000/svg">
<path d="M46.8955 0.947266C48.0203 0.947394 49.0998 1.39496 49.8945 2.19043L50.3193 2.61523C51.9767 4.27225 54.663 4.27218 56.3213 2.61523L56.7461 2.19043C57.5419 1.39478 58.6212 0.947266 59.7471 0.947266H87.7344C97.9641 0.947266 106.258 9.24052 106.258 19.4717V25.7334C106.258 35.9637 97.9641 44.2578 87.7344 44.2578H59.3223C58.1964 44.2577 57.117 43.8104 56.3213 43.0146C54.6629 41.3572 51.9768 41.3571 50.3193 43.0146C49.5236 43.8104 48.4443 44.2578 47.3184 44.2578H18.8486C8.61798 44.2578 0.325195 35.9637 0.325195 25.7334V19.4717C0.325195 9.24052 8.61798 0.947266 18.8486 0.947266H46.8955ZM63.3652 9.91797C61.0817 9.91797 59.0823 11.4612 58.5039 13.6699L54.252 29.9072C54.0995 30.4898 53.6418 30.5771 53.3828 30.5771C53.1239 30.5771 52.6661 30.4899 52.5127 29.9072L48.2627 13.6699C47.6835 11.4613 45.6848 9.91815 43.4014 9.91797C40.6305 9.91797 38.375 12.1725 38.375 14.9443V34.5146H42.502V14.9434C42.502 14.448 42.906 14.0459 43.4004 14.0459C43.808 14.046 44.1648 14.3208 44.2686 14.7158L48.5215 30.9521C49.109 33.196 51.0623 34.7041 53.3828 34.7041C55.7023 34.704 57.6557 33.196 58.2432 30.9521L62.4961 14.7158C62.599 14.3206 62.9565 14.0459 63.3652 14.0459C63.8605 14.046 64.2627 14.4489 64.2627 14.9434V34.5137H68.3896V14.9434C68.3906 12.1724 66.136 9.91803 63.3652 9.91797ZM21.4951 9.96973C15.5259 9.96973 10.6691 14.8255 10.6689 20.7959V23.8574C10.6689 29.827 15.5249 34.6846 21.4951 34.6846H23.6826C27.9088 34.6846 32.2058 32.2802 33.4004 28.7559L29.5215 27.2402C28.538 29.2848 26.1603 30.5527 23.6836 30.5527H21.584C17.8921 30.5525 14.8896 27.5496 14.8896 23.8584V20.7969C14.8898 17.1058 17.8922 14.1028 21.584 14.1025H23.6836C26.1593 14.1025 28.626 15.2705 29.5166 17.416L33.4033 15.8975C31.8632 12.0997 27.9097 9.96973 23.6826 9.96973H21.4951ZM78.3125 9.96973C76.0118 9.96979 74.1475 11.8348 74.1475 14.1348V30.4893C74.1475 32.7892 76.0118 34.6542 78.3125 34.6543H85.7686C91.8019 34.6543 96.6943 29.7621 96.6943 23.7275V20.8955C96.6943 14.8618 91.8028 9.96973 85.7686 9.96973H78.3125ZM85.7686 14.0977C89.5228 14.0977 92.5674 17.142 92.5674 20.8965V23.7285C92.5674 27.483 89.5228 30.5273 85.7686 30.5273H79.3291C78.8277 30.5272 78.4201 30.1197 78.4209 29.6191V15.0059C78.4211 14.5044 78.8277 14.0978 79.3291 14.0977H85.7686Z" fill="#C4C3D3"/>
<path d="M130.659 3.91824C131.278 4.47766 131.588 5.32131 131.588 6.45009V11.0978H129.835V10.1324C129.608 10.4788 129.284 10.7432 128.863 10.9264C128.442 11.1096 127.935 11.2007 127.341 11.2007C126.747 11.2007 126.227 11.0987 125.782 10.8966C125.336 10.6936 124.992 10.4112 124.749 10.0503C124.507 9.68934 124.386 9.2806 124.386 8.82494C124.386 8.11212 124.65 7.54097 125.181 7.10967C125.71 6.67927 126.544 6.46362 127.683 6.46362H129.732V6.34632C129.732 5.79231 129.566 5.36643 129.234 5.06957C128.902 4.77272 128.411 4.62384 127.757 4.62384C127.312 4.62384 126.874 4.69331 126.443 4.83136C126.013 4.97032 125.649 5.16341 125.351 5.41064L124.624 4.0599C125.04 3.74319 125.54 3.50047 126.123 3.33175C126.707 3.16392 127.326 3.0791 127.979 3.0791C129.147 3.0791 130.041 3.35972 130.659 3.91824ZM128.966 9.53144C129.327 9.31849 129.583 9.01442 129.732 8.61831V7.69797H127.816C126.747 7.69797 126.213 8.04986 126.213 8.75185C126.213 9.08841 126.346 9.35549 126.614 9.55399C126.881 9.7516 127.252 9.85085 127.728 9.85085C128.192 9.85085 128.606 9.74438 128.966 9.53144Z" fill="#C4C3D3"/>
<path d="M133.891 3.16797H135.747V6.39008H139.741V3.16797H141.597V11.0974H139.741V7.96459H135.747V11.0974H133.891V3.16797Z" fill="#C4C3D3"/>
<path d="M149.706 3.91824C150.325 4.47766 150.634 5.32131 150.634 6.45009V11.0978H148.882V10.1324C148.655 10.4788 148.331 10.7432 147.91 10.9264C147.489 11.1096 146.982 11.2007 146.387 11.2007C145.794 11.2007 145.274 11.0987 144.828 10.8966C144.383 10.6936 144.039 10.4112 143.796 10.0503C143.554 9.68934 143.433 9.2806 143.433 8.82494C143.433 8.11212 143.697 7.54097 144.227 7.10967C144.757 6.67927 145.591 6.46362 146.729 6.46362H148.778V6.34632C148.778 5.79231 148.612 5.36643 148.281 5.06957C147.949 4.77272 147.458 4.62384 146.804 4.62384C146.359 4.62384 145.921 4.69331 145.49 4.83136C145.059 4.97032 144.696 5.16341 144.398 5.41064L143.671 4.0599C144.087 3.74319 144.587 3.50047 145.17 3.33175C145.754 3.16392 146.373 3.0791 147.026 3.0791C148.194 3.0791 149.088 3.35972 149.706 3.91824ZM148.013 9.53144C148.374 9.31849 148.63 9.01442 148.778 8.61831V7.69797H146.863C145.794 7.69797 145.26 8.04986 145.26 8.75185C145.26 9.08841 145.393 9.35549 145.661 9.55399C145.928 9.7516 146.299 9.85085 146.775 9.85085C147.239 9.85085 147.652 9.74438 148.013 9.53144Z" fill="#C4C3D3"/>
<path d="M160.144 3.16797V11.0974H158.288V4.74248H155.319L155.245 6.31609C155.195 7.36546 155.098 8.2443 154.955 8.9517C154.812 9.66 154.569 10.2185 154.228 10.63C153.887 11.0405 153.418 11.2462 152.825 11.2462C152.548 11.2462 152.206 11.1921 151.8 11.0829L151.889 9.52376C152.027 9.55353 152.146 9.56797 152.246 9.56797C152.622 9.56797 152.903 9.41729 153.092 9.11502C153.28 8.81275 153.401 8.45183 153.455 8.03136C153.51 7.61088 153.556 7.00905 153.597 6.22676L153.731 3.16797H160.144Z" fill="#C4C3D3"/>
<path d="M162.631 3.16797H164.487V8.39498L168.867 3.16797H170.56V11.0974H168.704V5.87035L164.339 11.0974H162.631V3.16797Z" fill="#C4C3D3"/>
<path d="M178.846 7.64619C179.119 7.95748 179.254 8.33193 179.254 8.76684C179.254 9.25228 179.091 9.67997 178.764 10.0517C178.437 10.4226 177.987 10.7122 177.413 10.9206C176.839 11.1282 176.185 11.2328 175.454 11.2328C174.84 11.2328 174.241 11.1606 173.657 11.0172C173.073 10.8737 172.544 10.668 172.068 10.4009L172.602 9.02039C172.989 9.23874 173.424 9.40657 173.909 9.52567C174.393 9.64478 174.879 9.70433 175.364 9.70433C175.988 9.70433 176.475 9.60778 176.827 9.41469C177.178 9.2216 177.354 8.95722 177.354 8.62067C177.354 8.31389 177.218 8.07658 176.946 7.90785C176.673 7.74003 176.29 7.65521 175.796 7.65521H174.252V6.40643H175.648C176.113 6.40643 176.477 6.32703 176.739 6.16912C177.002 6.01122 177.133 5.78835 177.133 5.50052C177.133 5.21359 176.974 4.98621 176.657 4.81748C176.341 4.64965 175.905 4.56484 175.351 4.56484C174.559 4.56484 173.722 4.75793 172.842 5.14411L172.366 3.77803C173.406 3.2926 174.455 3.05078 175.514 3.05078C176.187 3.05078 176.791 3.14191 177.326 3.32508C177.86 3.50825 178.279 3.7654 178.581 4.09745C178.882 4.42949 179.034 4.80756 179.034 5.23344C179.034 5.61962 178.915 5.9634 178.677 6.26567C178.44 6.56794 178.113 6.80254 177.698 6.97127C178.19 7.10932 178.574 7.33399 178.846 7.64619Z" fill="#C4C3D3"/>
<path d="M187.354 6.46497C187.888 6.92063 188.156 7.56397 188.156 8.39498C188.156 9.2666 187.861 9.93972 187.272 10.4143C186.683 10.8898 185.85 11.1217 184.77 11.1118L181.177 11.0974V3.16797H183.033V5.76659L185.038 5.78193C186.047 5.78193 186.819 6.00931 187.354 6.46497ZM185.854 9.40465C186.141 9.16735 186.284 8.82087 186.284 8.36521C186.284 7.91947 186.145 7.59284 185.868 7.38531C185.591 7.17778 185.171 7.0686 184.606 7.05868L183.032 7.04424V9.73219L184.606 9.74753C185.151 9.75655 185.567 9.64196 185.854 9.40465ZM189.18 3.16797H191.036V11.0974H189.18V3.16797Z" fill="#C4C3D3"/>
<path d="M129.728 18.6655C130.391 19.0174 130.911 19.5019 131.287 20.1209C131.663 20.7399 131.851 21.44 131.851 22.2214C131.851 23.0037 131.662 23.7066 131.287 24.3301C130.911 24.9536 130.391 25.4417 129.728 25.7927C129.065 26.1437 128.318 26.3197 127.486 26.3197C126.763 26.3197 126.11 26.2006 125.526 25.9633C124.942 25.726 124.447 25.384 124.042 24.9382L125.111 23.8988C125.735 24.5223 126.501 24.8345 127.413 24.8345C128.086 24.8345 128.662 24.654 129.142 24.2922C129.622 23.9313 129.932 23.4485 130.071 22.8449H126.403V21.5086H130.055C129.907 20.9248 129.595 20.4619 129.12 20.12C128.644 19.7789 128.075 19.6075 127.412 19.6075C126.501 19.6075 125.735 19.9242 125.11 20.5576L124.041 19.5181C124.437 19.0634 124.929 18.7187 125.518 18.4859C126.107 18.2531 126.762 18.1367 127.486 18.1367C128.318 18.1385 129.064 18.3145 129.728 18.6655Z" fill="#C4C3D3"/>
<path d="M136.971 23.0093H135.53V26.1872H133.674V18.2578H135.53V21.4655H137.015L139.361 18.2578H141.35L138.469 22.0736L141.542 26.1863H139.36L136.971 23.0093Z" fill="#C4C3D3"/>
<path d="M143.962 25.7717C143.308 25.4252 142.799 24.9425 142.432 24.3235C142.066 23.7054 141.883 23.0053 141.883 22.2221C141.883 21.4407 142.066 20.7423 142.432 20.1287C142.799 19.5152 143.306 19.0352 143.954 18.6887C144.602 18.3422 145.343 18.1689 146.174 18.1689C146.955 18.1689 147.641 18.3278 148.23 18.6445C148.819 18.9612 149.262 19.4168 149.559 20.0105L148.134 20.8425C147.906 20.4761 147.621 20.2018 147.28 20.0187C146.939 19.8355 146.565 19.7444 146.159 19.7444C145.467 19.7444 144.893 19.9699 144.437 20.4202C143.981 20.8704 143.754 21.4723 143.754 22.2239C143.754 22.9764 143.98 23.5782 144.43 24.0276C144.88 24.4787 145.457 24.7034 146.159 24.7034C146.566 24.7034 146.939 24.6123 147.28 24.4291C147.622 24.2459 147.906 23.9716 148.134 23.6053L149.559 24.4372C149.252 25.0309 148.805 25.4893 148.216 25.8105C147.627 26.1326 146.946 26.2932 146.174 26.2932C145.352 26.2914 144.616 26.1182 143.962 25.7717Z" fill="#C4C3D3"/>
<path d="M158.78 18.2578V26.1872H156.939V19.8323H153.034V26.1872H151.178V18.2578H158.78Z" fill="#C4C3D3"/>
<path d="M168.694 22.8158H162.473C162.582 23.3996 162.866 23.8624 163.327 24.2044C163.787 24.5464 164.359 24.7169 165.042 24.7169C165.913 24.7169 166.631 24.43 167.195 23.8561L168.189 24.9993C167.832 25.4252 167.382 25.7464 166.838 25.9648C166.293 26.1823 165.68 26.2914 164.997 26.2914C164.125 26.2914 163.358 26.1182 162.695 25.7717C162.032 25.4252 161.519 24.9425 161.158 24.3235C160.797 23.7054 160.616 23.0053 160.616 22.2221C160.616 21.4497 160.792 20.7549 161.143 20.136C161.494 19.5179 161.982 19.0352 162.606 18.6887C163.229 18.3422 163.932 18.1689 164.714 18.1689C165.487 18.1689 166.177 18.3395 166.785 18.6814C167.394 19.0225 167.869 19.5034 168.21 20.1215C168.552 20.7405 168.723 21.456 168.723 22.2672C168.725 22.3944 168.715 22.5776 168.694 22.8158ZM163.208 20.1802C162.798 20.5321 162.548 20.9995 162.459 21.5832H166.957C166.878 21.0094 166.635 20.5438 166.23 20.1874C165.824 19.831 165.319 19.6532 164.715 19.6532C164.121 19.6523 163.619 19.8283 163.208 20.1802Z" fill="#C4C3D3"/>
<path d="M177.224 18.6742C177.833 19.0108 178.311 19.4863 178.657 20.0999C179.003 20.7134 179.177 21.4217 179.177 22.223C179.177 23.0251 179.003 23.7352 178.657 24.3542C178.311 24.9732 177.833 25.4505 177.224 25.787C176.615 26.1236 175.925 26.2914 175.153 26.2914C174.084 26.2914 173.237 25.935 172.614 25.2222V29.0678H170.758V18.2583H172.524V19.2977C172.831 18.9215 173.209 18.639 173.66 18.4514C174.111 18.2637 174.608 18.1689 175.153 18.1689C175.925 18.1698 176.615 18.3377 177.224 18.6742ZM176.631 24.0203C177.071 23.5647 177.291 22.9665 177.291 22.2239C177.291 21.4813 177.071 20.8831 176.631 20.4274C176.19 19.9717 175.628 19.7444 174.945 19.7444C174.499 19.7444 174.099 19.8463 173.742 20.0484C173.386 20.2514 173.105 20.5411 172.896 20.9173C172.689 21.2936 172.584 21.7294 172.584 22.2239C172.584 22.7192 172.688 23.1541 172.896 23.5304C173.105 23.9067 173.386 24.1963 173.742 24.3993C174.099 24.6023 174.499 24.7034 174.945 24.7034C175.628 24.7025 176.189 24.4751 176.631 24.0203Z" fill="#C4C3D3"/>
<path d="M186.989 19.8314H184.213V26.1863H182.357V19.8314H179.565V18.2578H186.989V19.8314Z" fill="#C4C3D3"/>
<path d="M188.352 18.2578H190.208V21.4799H194.202V18.2578H196.058V26.1872H194.202V23.0544H190.208V26.1872H188.352V18.2578Z" fill="#C4C3D3"/>
<path d="M199.921 25.7717C199.278 25.4252 198.775 24.9425 198.414 24.3235C198.053 23.7054 197.872 23.0053 197.872 22.2221C197.872 21.4407 198.053 20.7423 198.414 20.1287C198.775 19.5152 199.278 19.0352 199.921 18.6887C200.564 18.3422 201.287 18.1689 202.089 18.1689C202.901 18.1689 203.628 18.3422 204.272 18.6887C204.915 19.0352 205.418 19.5152 205.779 20.1287C206.139 20.7423 206.32 21.4407 206.32 22.2221C206.32 23.0044 206.139 23.7045 205.779 24.3235C205.417 24.9425 204.915 25.4252 204.272 25.7717C203.628 26.1182 202.9 26.2914 202.089 26.2914C201.287 26.2914 200.564 26.1182 199.921 25.7717ZM203.782 24.0194C204.227 23.5638 204.45 22.9656 204.45 22.223C204.45 21.4804 204.228 20.8822 203.782 20.4265C203.336 19.9708 202.772 19.7435 202.089 19.7435C201.406 19.7435 200.844 19.9708 200.404 20.4265C199.963 20.8822 199.743 21.4804 199.743 22.223C199.743 22.9656 199.963 23.5647 200.404 24.0194C200.844 24.4751 201.406 24.7025 202.089 24.7025C202.771 24.7016 203.336 24.4742 203.782 24.0194Z" fill="#C4C3D3"/>
<path d="M214.22 19.8323H209.989V26.1872H208.133V18.2578H214.22V19.8323Z" fill="#C4C3D3"/>
<path d="M216.601 25.7717C215.957 25.4252 215.455 24.9425 215.094 24.3235C214.732 23.7054 214.552 23.0053 214.552 22.2221C214.552 21.4407 214.732 20.7423 215.094 20.1287C215.455 19.5152 215.957 19.0352 216.601 18.6887C217.244 18.3422 217.967 18.1689 218.769 18.1689C219.581 18.1689 220.308 18.3422 220.951 18.6887C221.595 19.0352 222.097 19.5152 222.458 20.1287C222.819 20.7423 223 21.4407 223 22.2221C223 23.0044 222.819 23.7045 222.458 24.3235C222.096 24.9425 221.595 25.4252 220.951 25.7717C220.308 26.1182 219.58 26.2914 218.769 26.2914C217.967 26.2914 217.244 26.1182 216.601 25.7717ZM220.462 24.0194C220.906 23.5638 221.13 22.9656 221.13 22.223C221.13 21.4804 220.907 20.8822 220.462 20.4265C220.016 19.9708 219.452 19.7435 218.769 19.7435C218.086 19.7435 217.524 19.9708 217.083 20.4265C216.643 20.8822 216.423 21.4804 216.423 22.223C216.423 22.9656 216.643 23.5647 217.083 24.0194C217.524 24.4751 218.086 24.7025 218.769 24.7025C219.451 24.7016 220.016 24.4742 220.462 24.0194Z" fill="#C4C3D3"/>
<path d="M132.508 33.3457L128.796 41.9139C128.449 42.7747 128.029 43.3811 127.534 43.733C127.038 44.084 126.44 44.2599 125.737 44.2599C125.341 44.2599 124.95 44.1958 124.564 44.0668C124.178 43.9378 123.861 43.76 123.614 43.5326L124.357 42.1666C124.535 42.3344 124.745 42.4688 124.988 42.5681C125.231 42.6664 125.476 42.7161 125.723 42.7161C126.049 42.7161 126.319 42.6322 126.532 42.4634C126.745 42.2956 126.94 42.0132 127.119 41.6171L127.252 41.3049L123.793 33.3457H125.723L128.218 39.2106L130.727 33.3457H132.508Z" fill="#C4C3D3"/>
<path d="M140.268 33.7592C140.877 34.0958 141.355 34.5713 141.701 35.1848C142.047 35.7993 142.221 36.5067 142.221 37.3088C142.221 38.111 142.047 38.8211 141.701 39.4392C141.355 40.0581 140.877 40.5355 140.268 40.872C139.659 41.2086 138.969 41.3764 138.197 41.3764C137.127 41.3764 136.281 41.02 135.658 40.3072V44.1528H133.802V33.3432H135.569V34.3827C135.876 34.0064 136.254 33.7249 136.705 33.5363C137.155 33.3486 137.653 33.2539 138.198 33.2539C138.968 33.2548 139.659 33.4235 140.268 33.7592ZM139.674 39.1053C140.114 38.6496 140.334 38.0514 140.334 37.3088C140.334 36.5662 140.114 35.9671 139.674 35.5124C139.233 35.0567 138.671 34.8293 137.988 34.8293C137.543 34.8293 137.142 34.9304 136.786 35.1334C136.429 35.3364 136.148 35.626 135.939 36.0023C135.732 36.3786 135.628 36.8144 135.628 37.3088C135.628 37.8033 135.732 38.2391 135.939 38.6154C136.148 38.9916 136.429 39.2813 136.786 39.4843C137.142 39.6873 137.543 39.7883 137.988 39.7883C138.671 39.7874 139.233 39.5601 139.674 39.1053Z" fill="#C4C3D3"/>
<path d="M145.422 40.8587C144.779 40.5122 144.276 40.0295 143.915 39.4105C143.553 38.7924 143.373 38.0914 143.373 37.31C143.373 36.5277 143.553 35.8302 143.915 35.2166C144.276 34.6031 144.779 34.123 145.422 33.7766C146.065 33.4301 146.788 33.2568 147.59 33.2568C148.402 33.2568 149.129 33.4301 149.773 33.7766C150.416 34.123 150.919 34.6031 151.279 35.2166C151.64 35.8302 151.821 36.5286 151.821 37.31C151.821 38.0923 151.64 38.7924 151.279 39.4105C150.918 40.0295 150.416 40.5122 149.773 40.8587C149.129 41.2052 148.401 41.3784 147.59 41.3784C146.788 41.3775 146.065 41.2052 145.422 40.8587ZM149.283 39.1064C149.728 38.6508 149.951 38.0526 149.951 37.31C149.951 36.5674 149.729 35.9682 149.283 35.5135C148.837 35.0578 148.273 34.8304 147.59 34.8304C146.907 34.8304 146.345 35.0578 145.905 35.5135C145.464 35.9691 145.244 36.5674 145.244 37.31C145.244 38.0526 145.464 38.6508 145.905 39.1064C146.345 39.5621 146.907 39.7895 147.59 39.7895C148.273 39.7886 148.837 39.5612 149.283 39.1064Z" fill="#C4C3D3"/>
<path d="M160.866 39.0473C160.866 39.7601 160.599 40.3096 160.064 40.6958C159.529 41.082 158.737 41.2751 157.688 41.2751H153.649V33.3457H157.525C158.495 33.3457 159.252 33.5244 159.796 33.8808C160.341 34.2372 160.613 34.7416 160.613 35.3948C160.613 35.8009 160.507 36.1519 160.294 36.4487C160.081 36.7456 159.781 36.9784 159.395 37.1471C160.376 37.4439 160.866 38.0774 160.866 39.0473ZM155.417 36.6562H157.362C158.322 36.6562 158.802 36.3242 158.802 35.661C158.802 35.0177 158.322 34.6955 157.362 34.6955H155.417V36.6562ZM159.069 38.9282C159.069 38.5817 158.95 38.3219 158.713 38.1486C158.476 37.9754 158.104 37.8888 157.599 37.8888H155.417V39.9226H157.54C158.559 39.9235 159.069 39.5914 159.069 38.9282Z" fill="#C4C3D3"/>
<path d="M162.841 33.3438H164.697V36.5659H168.691V33.3438H170.547V41.2731H168.691V38.1404H164.697V41.2731H162.841V33.3438Z" fill="#C4C3D3"/>
<path d="M179.738 33.3438V41.2731H178.075V38.8821H175.982L174.363 41.2731H172.374L174.245 38.6303C173.671 38.4327 173.233 38.1277 172.931 37.7172C172.628 37.3066 172.478 36.7986 172.478 36.195C172.478 35.2846 172.8 34.5817 173.443 34.0863C174.086 33.591 174.973 33.3438 176.101 33.3438H179.738ZM174.363 36.2546C174.363 37.146 174.943 37.5909 176.1 37.5909H178.075V34.9029H176.16C174.962 34.9029 174.363 35.3541 174.363 36.2546Z" fill="#C4C3D3"/>
</svg>
