<svg width="99" height="98" viewBox="0 0 99 98" fill="none" xmlns="http://www.w3.org/2000/svg">
<path d="M78.1969 53.0833V65.3583C78.1969 74.9711 78.1969 79.7774 75.2106 82.7637C72.2244 85.75 67.418 85.75 57.8052 85.75H41.422C31.8092 85.75 27.0029 85.75 24.0166 82.7637C21.0303 79.7774 21.0303 74.9711 21.0303 65.3583V32.6417C21.0303 23.029 21.0303 18.2226 24.0166 15.2363C27.0029 12.25 31.8092 12.25 41.422 12.25H49.6136" stroke="#C1BAFF" stroke-width="4.45455" stroke-linecap="round"/>
<path d="M74.1133 12.25L74.1133 36.75" stroke="#C1BAFF" stroke-width="4.45455" stroke-linecap="round"/>
<path d="M86.3633 24.5L61.8633 24.5" stroke="#C1BAFF" stroke-width="4.45455" stroke-linecap="round"/>
<path d="M37.3633 53.084L61.8633 53.084" stroke="#C1BAFF" stroke-width="4.45455" stroke-linecap="round"/>
<path d="M37.3633 36.75L53.6966 36.75" stroke="#C1BAFF" stroke-width="4.45455" stroke-linecap="round"/>
<path d="M37.3633 69.416L53.6966 69.416" stroke="#C1BAFF" stroke-width="4.45455" stroke-linecap="round"/>
</svg>
