<svg width="68" height="68" viewBox="0 0 68 68" fill="none" xmlns="http://www.w3.org/2000/svg">
<path d="M53.8337 36.8333V50.3445C53.8337 54.6605 53.8337 56.8184 52.4929 58.1592C51.1521 59.5 48.9941 59.5 44.6782 59.5H23.3225C19.0065 59.5 16.8486 59.5 15.5078 58.1592C14.167 56.8184 14.167 54.6605 14.167 50.3445V17.6555C14.167 13.3395 14.167 11.1816 15.5078 9.84079C16.8486 8.5 19.0065 8.5 23.3224 8.5H34.0003" stroke="#897CFF" stroke-width="2" stroke-linecap="round"/>
<path d="M51 8.5L51 25.5" stroke="#897CFF" stroke-width="2" stroke-linecap="round"/>
<path d="M59.5 17L42.5 17" stroke="#897CFF" stroke-width="2" stroke-linecap="round"/>
<path d="M25.5 36.834L42.5 36.834" stroke="#897CFF" stroke-width="2" stroke-linecap="round"/>
<path d="M25.5 25.5L36.8333 25.5" stroke="#897CFF" stroke-width="2" stroke-linecap="round"/>
<path d="M25.5 48.166L36.8333 48.166" stroke="#897CFF" stroke-width="2" stroke-linecap="round"/>
</svg>
