<svg width="44" height="45" viewBox="0 0 44 45" fill="none" xmlns="http://www.w3.org/2000/svg">
<circle cx="14.6669" cy="15.3662" r="4.5" stroke="#897CFF" stroke-width="2" stroke-linecap="round"/>
<path d="M21.6469 16.3239C22.1221 15.5009 22.9047 14.9003 23.8227 14.6543C24.7407 14.4084 25.7188 14.5371 26.5418 15.0123C27.3648 15.4875 27.9654 16.2701 28.2114 17.1881C28.4573 18.1061 28.3286 19.0842 27.8534 19.9072C27.3782 20.7303 26.5956 21.3308 25.6776 21.5768C24.7596 21.8228 23.7815 21.694 22.9585 21.2188C22.1354 20.7436 21.5349 19.961 21.2889 19.043C21.0429 18.125 21.1717 17.1469 21.6469 16.3239L21.6469 16.3239Z" stroke="#897CFF" stroke-width="2"/>
<path d="M14.6661 23.6162V22.6162H14.666L14.6661 23.6162ZM24.628 33.1465L25.6188 33.0114L25.6188 33.0114L24.628 33.1465ZM4.70414 33.1465L3.71331 33.0114L3.71331 33.0114L4.70414 33.1465ZM14.6661 23.6162V24.6162C18.2175 24.6162 20.312 26.0849 21.6009 27.8479C22.9276 29.6628 23.4427 31.8558 23.6371 33.2816L24.628 33.1465L25.6188 33.0114C25.4047 31.441 24.8247 28.8689 23.2155 26.6676C21.5684 24.4146 18.8862 22.6162 14.6661 22.6162V23.6162ZM24.628 33.1465L23.6371 33.2816C23.6495 33.3725 23.6233 33.4417 23.5694 33.4989C23.5102 33.5616 23.4079 33.6162 23.2705 33.6162V34.6162V35.6162C24.6144 35.6162 25.8213 34.4969 25.6188 33.0114L24.628 33.1465ZM23.2705 34.6162V33.6162H6.06254V34.6162V35.6162H23.2705V34.6162ZM6.06254 34.6162V33.6162C5.92514 33.6162 5.82238 33.5615 5.7629 33.4985C5.70873 33.4411 5.68265 33.372 5.69498 33.2816L4.70414 33.1465L3.71331 33.0114C3.51067 34.4978 4.71971 35.6162 6.06254 35.6162V34.6162ZM4.70414 33.1465L5.69498 33.2816C5.88934 31.8559 6.40453 29.6629 7.7313 27.8481C9.02021 26.085 11.1148 24.6163 14.6661 24.6162L14.6661 23.6162L14.666 22.6162C10.446 22.6163 7.76385 24.4147 6.11675 26.6677C4.5075 28.869 3.9274 31.441 3.71331 33.0114L4.70414 33.1465Z" fill="#897CFF"/>
<path d="M24.7497 25.4492L24.7497 24.4492H24.7497V25.4492ZM31.8015 33.0098L32.7766 32.7883L32.7766 32.7883L31.8015 33.0098ZM30.4489 34.6152V35.6152H30.4491L30.4489 34.6152ZM24.6276 33.1465L25.6185 33.0115L25.6185 33.0114L24.6276 33.1465ZM21.6315 26.333L21.0953 25.489L20.0659 26.143L20.9089 27.0242L21.6315 26.333ZM24.7497 25.4492L24.7497 26.4492C26.6878 26.4492 28.0279 27.4407 28.9992 28.8196C29.9899 30.2261 30.5398 31.9698 30.8263 33.2313L31.8015 33.0098L32.7766 32.7883C32.4661 31.4212 31.8435 29.3846 30.6343 27.6679C29.4057 25.9237 27.5185 24.4492 24.7497 24.4492L24.7497 25.4492ZM31.8015 33.0098L30.8263 33.2313C30.8496 33.3339 30.8243 33.4145 30.7672 33.481C30.7051 33.5534 30.596 33.6152 30.4487 33.6152L30.4489 34.6152L30.4491 35.6152C31.8881 35.615 33.1292 34.3406 32.7766 32.7883L31.8015 33.0098ZM30.4489 34.6152V33.6152H23.2702V34.6152V35.6152H30.4489V34.6152ZM23.2702 34.6152V35.6152C24.6131 35.6152 25.821 34.4977 25.6185 33.0115L24.6276 33.1465L23.6368 33.2815C23.6492 33.3723 23.6229 33.4412 23.5693 33.498C23.5103 33.5605 23.4079 33.6152 23.2702 33.6152V34.6152ZM24.6276 33.1465L25.6185 33.0114C25.3717 31.2016 24.6317 28.0229 22.3542 25.6418L21.6315 26.333L20.9089 27.0242C22.7496 28.9487 23.41 31.6177 23.6368 33.2816L24.6276 33.1465ZM21.6315 26.333L22.1678 27.1771C22.8704 26.7307 23.7133 26.4492 24.7497 26.4492V25.4492V24.4492C23.3235 24.4492 22.11 24.8442 21.0953 25.489L21.6315 26.333Z" fill="#897CFF"/>
<path d="M33.9168 7.11621V14.4495" stroke="#897CFF" stroke-width="2" stroke-linecap="round"/>
<path d="M30.2502 10.7822L37.5835 10.7822" stroke="#897CFF" stroke-width="2" stroke-linecap="round"/>
</svg>
