<svg width="45" height="45" viewBox="0 0 45 45" fill="none" xmlns="http://www.w3.org/2000/svg">
<path d="M9.24652 22.3027C9.24652 19.8134 9.24652 18.5688 9.7497 17.4748C10.2529 16.3808 11.1979 15.5708 13.0878 13.9508L14.9211 12.3794C18.3372 9.45134 20.0453 7.9873 22.0799 7.9873C24.1144 7.9873 25.8225 9.45134 29.2386 12.3794L31.0719 13.9508C32.9619 15.5708 33.9068 16.3808 34.41 17.4748C34.9132 18.5688 34.9132 19.8134 34.9132 22.3027V30.0767C34.9132 33.5337 34.9132 35.2622 33.8392 36.3361C32.7653 37.41 31.0368 37.41 27.5799 37.41H16.5799C13.1229 37.41 11.3944 37.41 10.3205 36.3361C9.24652 35.2622 9.24652 33.5337 9.24652 30.0767V22.3027Z" stroke="#897CFF" stroke-width="2"/>
<path d="M26.6636 37.4102V27.1497C26.6636 26.7413 26.3325 26.4102 25.9241 26.4102H18.2365C17.8281 26.4102 17.497 26.7413 17.497 27.1497V37.4102" stroke="#897CFF" stroke-width="2" stroke-linecap="round" stroke-linejoin="round"/>
<path d="M22.0801 14.7002V22.0335" stroke="#897CFF" stroke-width="2" stroke-linecap="round"/>
<path d="M18.4135 18.3662L25.7468 18.3662" stroke="#897CFF" stroke-width="2" stroke-linecap="round"/>
</svg>
