<svg width="99" height="99" viewBox="0 0 99 99" fill="none" xmlns="http://www.w3.org/2000/svg">
<path d="M49.6123 12.084C52.6567 12.084 55.3336 13.202 58.1904 15.0889C60.9951 16.9413 64.1929 19.6885 68.25 23.166L72.6514 26.9385C77.0341 30.6951 79.7807 32.9861 81.2402 36.1592C82.5173 38.9357 82.6405 42.0213 82.6514 46.6162V67.3467C82.6514 71.4334 82.6564 74.7226 82.3096 77.3027C81.9541 79.947 81.1929 82.1782 79.4209 83.9502C77.6489 85.722 75.4185 86.4834 72.7744 86.8389C70.1942 87.1858 66.9044 87.1807 62.8174 87.1807H60.6387C60.6325 87.1807 60.6263 87.1816 60.6201 87.1816C60.6139 87.1816 60.6077 87.1807 60.6016 87.1807H38.6299C38.6237 87.1807 38.6175 87.1816 38.6113 87.1816C38.6051 87.1816 38.599 87.1807 38.5928 87.1807H36.4072C32.3205 87.1807 29.0313 87.1857 26.4512 86.8389C23.8071 86.4834 21.5766 85.7219 19.8047 83.9502C18.0327 82.1782 17.2715 79.947 16.916 77.3027C16.5692 74.7226 16.5732 71.4334 16.5732 67.3467V48.6816C16.5732 42.9091 16.5259 39.3324 17.9854 36.1592C19.4449 32.9861 22.1915 30.6951 26.5742 26.9385L30.9756 23.166C35.0327 19.6885 38.2304 16.9413 41.0352 15.0889C43.8918 13.2022 46.5681 12.0841 49.6123 12.084ZM40.8389 82.7256H58.3926V60.7715H40.8389V82.7256ZM49.6123 16.5391C47.772 16.5391 45.9553 17.1786 43.4902 18.8066C40.9729 20.4692 38.0195 22.9955 33.875 26.5479L29.4727 30.3203C24.7806 34.3421 22.989 35.9406 22.0322 38.0205C21.0755 40.1006 21.0283 42.5014 21.0283 48.6816V67.3467C21.0283 71.5595 21.0324 74.4956 21.3301 76.71C21.6192 78.8599 22.1478 79.9934 22.9541 80.7998C23.7605 81.6062 24.8946 82.1347 27.0449 82.4238C29.2551 82.7209 32.1838 82.7246 36.3838 82.7246V60.1914C36.3838 58.0516 38.119 56.3164 40.2588 56.3164H58.9727C61.1124 56.3164 62.8467 58.0516 62.8467 60.1914V82.7246C67.0439 82.7246 69.9714 82.7208 72.1807 82.4238C74.331 82.1347 75.4651 81.6062 76.2715 80.7998C77.0777 79.9935 77.6054 78.8597 77.8945 76.71C78.1922 74.4956 78.1973 71.5595 78.1973 67.3467V48.6816C78.1973 42.5014 78.15 40.1006 77.1934 38.0205C76.2366 35.9406 74.4441 34.3422 69.752 30.3203L65.3506 26.5479C61.2062 22.9955 58.2526 20.4693 55.7354 18.8066C53.2701 17.1785 51.4527 16.5391 49.6123 16.5391Z" fill="#C1BAFF"/>
</svg>
