<svg width="239" height="27" viewBox="0 0 239 27" fill="none" xmlns="http://www.w3.org/2000/svg">
<path d="M22.3219 25.9295H16.9701V9.61322L5.22236 25.9295H0.0664062V1.06347H5.48342V17.3798L17.2964 1.06347H22.3219V25.9295ZM26.2378 1.12873H31.7201V10.9185H42.6846V1.12873H48.1669V25.9295H42.6846V15.944H31.7201V25.9295H26.2378V1.12873ZM57.4999 25.9295H52.0828V1.06347H68.9213V6.02363H57.4999V25.9295ZM95.2232 13.5291C95.2232 5.95836 89.7409 0.802406 82.1701 0.671875H82.0396C74.4688 0.73714 68.9865 5.95836 68.9865 13.4639C68.9865 21.0346 74.4688 26.1906 82.0396 26.2559H82.1701C89.7409 26.2559 95.2232 21.0346 95.2232 13.5291ZM82.1049 21.2957C77.7321 21.2957 74.6646 18.2935 74.6646 13.5291C74.6646 8.69951 77.7321 5.76257 82.1049 5.76257C86.4776 5.76257 89.5451 8.76477 89.5451 13.5291C89.5451 18.2935 86.4776 21.2957 82.1049 21.2957ZM152.33 6.15416H144.303V1.12873H165.775V6.15416H157.813V25.9295H152.33V6.15416ZM169.103 1.12873H180.264C186.203 1.12873 189.793 4.65306 189.793 9.74375C189.793 15.4871 185.355 18.4893 179.742 18.4893H174.586V25.9295H169.103V1.12873ZM179.872 13.5944C182.613 13.5944 184.18 11.9628 184.18 9.74375C184.18 7.32893 182.483 5.95836 179.742 5.95836H174.52V13.5291H179.872V13.5944ZM238.676 25.9295L229.865 13.2028L238.285 1.06347H232.019L226.733 8.69951L221.446 1.06347H214.985L223.469 13.3333L214.659 25.9295H220.924L226.602 17.7714L232.215 25.9295H238.676ZM208.524 25.9295H214.071L203.433 0.932936H198.408L187.769 25.9295H193.317L195.666 20.1862H206.174L208.524 25.9295ZM197.624 15.3566L200.953 7.59L204.281 15.3566H197.624ZM110.691 21.2957C106.318 21.2957 103.251 18.2935 103.251 13.5291C103.251 8.69951 106.318 5.76257 110.691 5.76257C112.975 5.76257 114.868 6.41522 116.5 7.78579L119.893 4.392C117.609 2.17298 114.542 0.73714 110.756 0.73714H110.626C103.055 0.802406 97.5727 6.02363 97.5727 13.5291C97.5727 21.0999 103.055 26.2559 110.626 26.3211H110.756C114.476 26.2559 117.544 24.82 119.893 22.6663L116.5 19.2725C114.868 20.6431 112.975 21.2957 110.691 21.2957ZM133.469 21.2957C129.096 21.2957 126.028 18.2935 126.028 13.5291C126.028 8.69951 129.096 5.76257 133.469 5.76257C135.753 5.76257 137.646 6.41522 139.277 7.78579L142.671 4.392C140.387 2.17298 137.319 0.73714 133.534 0.73714H133.403C125.833 0.802406 120.35 6.02363 120.35 13.5291C120.35 21.0999 125.833 26.2559 133.403 26.3211H133.534C137.254 26.2559 140.321 24.82 142.671 22.6663L139.277 19.2725C137.646 20.6431 135.753 21.2957 133.469 21.2957Z" fill="#C4C3D3"/>
</svg>
