<svg width="73" height="74" viewBox="0 0 73 74" fill="none" xmlns="http://www.w3.org/2000/svg">
<path d="M71.2485 60.9282L62.4128 59.7089L64.4554 40.2382L71.0077 41.1419C71.4839 41.2079 71.9257 40.8693 71.9917 40.3931C72.0577 39.9169 71.7191 39.4751 71.2429 39.4092L63.7953 38.3822C63.56 38.3535 63.3248 38.4109 63.1354 38.5572C62.9518 38.7035 62.8256 38.9158 62.8055 39.151L62.7023 40.135C54.0729 35.347 46.941 35.1634 41.419 39.5698L41.4161 30.6019L57.9029 20.6359C59.8336 19.4684 60.4591 16.9409 59.2914 15.0016C58.1239 13.0709 55.5964 12.4455 53.6571 13.6131L37.0381 23.6768C34.1291 25.4324 30.7956 25.4324 27.8865 23.6768L11.2675 13.616C9.33683 12.4485 6.80942 13.0652 5.63319 15.0045C4.46848 16.9352 5.09098 19.4626 7.02167 20.636L23.5026 30.6079V46.0738C23.3276 46.3665 23.1784 46.6763 23.0694 47.0005L9.18169 39.071C6.81776 37.7198 3.79125 38.5489 2.44573 40.9156C0.962587 43.5148 1.64537 46.0278 4.25885 47.6343L28.2308 62.3659C30.3451 63.6655 32.623 64.3196 34.9209 64.3196C36.7426 64.3196 38.5786 63.9094 40.3543 63.086L51.8038 57.8046C52.3977 57.532 52.9428 57.4603 53.5882 57.5779C54.2854 57.7041 54.9997 58.0111 55.8202 58.3697C57.0624 58.9062 58.5656 59.5602 60.6312 59.8242L60.5738 60.3664C60.5222 60.8369 60.8607 61.2615 61.3225 61.3274L71.0021 62.6643C71.0451 62.6729 71.0824 62.6729 71.1197 62.6729C71.5529 62.6729 71.9287 62.3573 71.9861 61.9156C72.0636 61.4336 71.7247 60.9942 71.2485 60.9282ZM7.93409 19.1386C6.82388 18.4702 6.47386 17.0243 7.14232 15.9141C7.81078 14.8039 9.25662 14.4539 10.3668 15.1224L26.9859 25.1772C30.417 27.2542 34.5136 27.2542 37.9448 25.1772L54.5638 15.1224C55.674 14.4539 57.1199 14.8068 57.7883 15.9141C58.4567 17.0243 58.1039 18.4703 56.9965 19.1386L40.1021 29.3631C39.8382 29.5238 39.6832 29.8049 39.6832 30.1119V41.1853C39.2644 41.6271 38.8542 42.0948 38.4554 42.5968L27.4906 43.5722C26.6758 43.6468 25.9185 43.9021 25.2587 44.3066V30.1119C25.2587 29.802 25.098 29.5238 24.8398 29.3631L7.93409 19.1386ZM56.5228 56.7626C55.6335 56.3811 54.7958 56.0139 53.895 55.8532C52.9111 55.6782 51.9844 55.8015 51.075 56.2204L39.6255 61.5018C36.1371 63.1112 32.422 62.8903 29.1513 60.8764L5.17938 46.1427C3.35767 45.0267 2.95323 43.5579 3.96878 41.7792C4.84376 40.253 6.78877 39.7166 8.31789 40.5887L22.7682 48.8391C22.7682 48.9481 22.7768 49.0657 22.7825 49.1833C23.0235 51.8714 25.287 53.8996 27.932 53.8996C28.0869 53.8996 28.2418 53.891 28.3939 53.8767L47.4225 52.187C47.9074 52.1439 48.2602 51.7165 48.2143 51.2402C48.1713 50.764 47.7438 50.4025 47.2676 50.4484L28.2389 52.1382C26.3599 52.3075 24.6931 50.9103 24.5238 49.0313C24.3546 47.1522 25.7517 45.4854 27.6308 45.3162L38.9708 44.3092C39.2118 44.2862 39.4413 44.1629 39.5876 43.9707C45.0154 36.9048 52.5059 36.274 62.5006 42.0457L60.8194 58.0853C59.0178 57.85 57.7039 57.2763 56.5219 56.7628L56.5228 56.7626ZM32.462 22.7674C36.3464 22.7674 39.5049 19.6088 39.5049 15.7245C39.5049 11.8401 36.3463 8.68164 32.462 8.68164C28.5776 8.68164 25.4191 11.8402 25.4191 15.7245C25.4191 19.6089 28.5863 22.7674 32.462 22.7674ZM32.462 10.4373C35.3767 10.4373 37.7492 12.8098 37.7492 15.7245C37.7492 18.6392 35.3767 21.0117 32.462 21.0117C29.5473 21.0117 27.1748 18.6392 27.1748 15.7245C27.1748 12.8069 29.5473 10.4373 32.462 10.4373Z" fill="#897CFF" stroke="#897CFF" stroke-width="0.500627"/>
</svg>
