<svg width="311" height="81" viewBox="0 0 311 81" fill="none" xmlns="http://www.w3.org/2000/svg">
<mask id="mask0_1_170" style="mask-type:alpha" maskUnits="userSpaceOnUse" x="10" y="9" width="287" height="63">
<path d="M65.9927 25.6285H56.2891V15.8413C56.2891 12.4952 53.6123 9.81836 50.2662 9.81836H31.7792C28.4331 9.81836 25.7563 12.4952 25.7563 15.8413V25.5449H16.0527C12.7066 25.5449 10.0298 28.2217 10.0298 31.5678V50.0548C10.0298 53.4008 12.7066 56.0777 16.0527 56.0777H25.7563V65.7813C25.7563 69.1273 28.4331 71.8042 31.7792 71.8042H50.2662C53.6123 71.8042 56.2891 69.1273 56.2891 65.7813V56.0777H65.9927C69.3388 56.0777 72.0156 53.4008 72.0156 50.0548V31.6514C72.0156 28.3054 69.3388 25.6285 65.9927 25.6285ZM66.3273 49.5529C66.3273 51.8115 64.487 53.6518 62.2284 53.6518H53.8632V62.017C53.8632 64.2756 52.0229 66.1159 49.7643 66.1159H32.3648C30.1062 66.1159 28.2658 64.2756 28.2658 62.017V53.6518H19.9007C17.6421 53.6518 15.8017 51.8115 15.8017 49.5529V32.1533C15.8017 29.8947 17.6421 28.0544 19.9007 28.0544H28.2658V19.6892C28.2658 17.4307 30.1062 15.5903 32.3648 15.5903H49.7643C52.0229 15.5903 53.8632 17.4307 53.8632 19.6892V28.0544H62.2284C64.487 28.0544 66.3273 29.8947 66.3273 32.1533V49.5529Z" fill="#897CFF"/>
<path d="M40.8521 43.18C41.7442 43.18 42.4673 42.4793 42.4673 41.6149C42.4673 40.7505 41.7442 40.0498 40.8521 40.0498C39.96 40.0498 39.2368 40.7505 39.2368 41.6149C39.2368 42.4793 39.96 43.18 40.8521 43.18Z" fill="#897CFF"/>
<path d="M31.4158 33.4597C32.4018 33.4597 33.2011 32.6852 33.2011 31.7298C33.2011 30.7745 32.4018 30 31.4158 30C30.4298 30 29.6305 30.7745 29.6305 31.7298C29.6305 32.6852 30.4298 33.4597 31.4158 33.4597Z" fill="#897CFF"/>
<path d="M45.1028 42.1095C44.5927 42.8508 42.8074 43.9217 40.9371 43.9217C39.0668 43.9217 37.2815 42.8508 36.7715 42.1095C36.5164 41.78 36.2614 42.0271 36.3464 42.2742C36.7715 43.0979 38.3017 44.8278 38.9818 45.2396C39.1518 45.4044 38.2167 51.9942 38.3867 52.5709C38.5567 53.1475 38.9818 52.818 39.0668 52.5709C39.1518 52.3237 40.427 48.6993 41.0221 48.6993C41.6172 48.6993 42.8074 52.2414 42.9774 52.5709C43.0624 52.818 43.4875 53.1475 43.6575 52.5709C43.8276 51.9942 42.8924 45.322 43.0624 45.2396C43.7426 44.8278 45.2728 43.1803 45.6979 42.2742C45.6128 42.0271 45.3578 41.6976 45.1028 42.1095Z" fill="#897CFF"/>
<path d="M36.2619 40.9565C36.0918 40.4623 34.3916 33.79 30.1409 33.79C25.8902 33.79 24.7851 40.1328 24.615 40.627C24.36 41.286 25.1251 41.3684 25.2951 41.1213C25.4652 40.8741 28.0156 36.2612 28.2706 37.085C28.6107 38.0734 26.4003 44.1691 28.1006 52.2416C28.2706 53.0654 29.4608 53.1478 29.3758 52.4064C29.0357 48.6996 29.2058 45.487 30.1409 45.487C31.0761 45.487 32.5213 49.1115 33.2014 52.4064C33.3714 53.1478 34.6466 53.0654 34.4766 52.2416C34.0515 48.9467 31.7562 38.7324 32.7763 37.744C33.2014 37.3321 35.4117 41.286 35.6668 41.6155C35.9218 41.945 36.6019 41.6155 36.2619 40.9565Z" fill="#897CFF"/>
<path d="M50.5433 34.1189C51.5293 34.1189 52.3286 33.3444 52.3286 32.389C52.3286 31.4337 51.5293 30.6592 50.5433 30.6592C49.5574 30.6592 48.7581 31.4337 48.7581 32.389C48.7581 33.3444 49.5574 34.1189 50.5433 34.1189Z" fill="#897CFF"/>
<path d="M57.175 40.6262C57.005 40.132 55.5597 34.4482 51.3091 34.4482C47.0584 34.4482 45.6982 40.4615 45.5282 40.9557C45.2731 41.6147 45.8682 41.8618 46.1232 41.6147C46.2933 41.3676 48.4186 37.6608 48.8437 37.9903C49.1837 38.2374 48.8437 44.2507 46.9734 46.8866C46.8034 47.0513 46.9734 47.2985 47.1434 47.3808C47.3984 47.4632 47.8235 47.5456 48.2486 47.628C47.9935 49.5225 47.6535 51.2524 47.5685 52.3232C47.4835 53.147 48.5036 53.2293 48.6736 52.488C49.0137 50.8405 49.4388 49.1107 49.8638 47.7927C50.3739 47.7927 50.969 47.8751 51.4791 47.7927C51.3091 49.1107 50.884 50.7581 50.3739 52.488C50.1189 53.2293 51.2241 53.0646 51.5641 52.3232C52.3292 50.7581 52.7543 49.1107 53.0943 47.628C53.2644 47.628 53.4344 47.5456 53.6044 47.4632C53.6894 47.4632 53.7745 47.3808 53.8595 47.2161C54.6246 44.0035 53.2644 37.8255 53.5194 37.2489C53.8595 36.5076 56.4099 40.791 56.5799 41.1205C56.7499 41.45 57.43 41.2852 57.175 40.6262Z" fill="#897CFF"/>
<path d="M92.7326 62.1676C92.6036 63.0705 92.2164 63.8444 91.5711 64.3603C90.9259 64.8762 90.2806 65.1342 89.3773 65.1342C88.3449 65.1342 87.5706 64.7472 86.9253 64.1023C86.6672 63.8444 86.5382 63.5864 86.4091 63.4574C86.2801 63.1995 86.151 62.9415 86.151 62.5546C86.151 62.1676 86.022 61.9097 86.022 61.6517C86.022 61.3938 86.022 61.0068 86.022 60.4909C86.022 59.975 86.022 59.5881 86.022 59.3301C86.022 59.0721 86.022 58.8142 86.151 58.4272C86.151 58.0403 86.2801 57.7823 86.4091 57.5244C86.5382 57.2664 86.6672 57.0085 86.9253 56.8795C87.5706 56.2346 88.4739 55.8477 89.3773 55.8477C90.2806 55.8477 91.0549 56.1056 91.5711 56.6215C92.2164 57.1374 92.6036 57.7823 92.7326 58.8142H90.9259C90.6678 57.9113 90.1516 57.5244 89.3773 57.5244C88.8611 57.5244 88.4739 57.6534 88.2158 58.0403C88.0868 58.2983 87.9577 58.5562 87.8287 58.8142C87.8287 59.2011 87.6996 59.717 87.6996 60.6199C87.6996 61.5227 87.6996 62.0387 87.8287 62.4256C87.8287 62.8125 87.9577 63.0705 88.2158 63.1995C88.4739 63.4574 88.8611 63.7154 89.3773 63.7154C90.1516 63.7154 90.6678 63.3284 90.9259 62.4256H92.7326V62.1676Z" fill="#897CFF"/>
<path d="M105.508 65.0052H99.443V55.8477H105.508V57.3954H101.25V59.5881H104.863V61.1358H101.25V63.4574H105.508V65.0052Z" fill="#897CFF"/>
<path d="M120.736 65.0052H118.929V59.5881L117.123 63.0705H115.961L114.154 59.5881V65.0052H112.348V55.8477H114.154L116.606 60.8778L119.058 55.8477H120.865V65.0052H120.736Z" fill="#897CFF"/>
<path d="M134.029 65.0052H127.964V55.8477H134.029V57.3954H129.77V59.5881H133.384V61.1358H129.77V63.4574H134.029V65.0052Z" fill="#897CFF"/>
<path d="M147.966 65.0055H146.159V59.0725L142.546 65.0055H140.997V55.848H142.804V61.781L146.418 55.848H147.966V65.0055ZM146.547 53.5264C146.547 54.1713 146.289 54.6872 145.901 54.9451C145.514 55.2031 144.998 55.3321 144.482 55.3321C143.966 55.3321 143.449 55.2031 143.062 54.9451C142.675 54.6872 142.417 54.1713 142.417 53.5264H143.708C143.708 54.0423 143.966 54.3002 144.482 54.3002C144.998 54.3002 145.256 54.0423 145.256 53.5264H146.547Z" fill="#897CFF"/>
<path d="M161.903 65.0052H160.096V61.1358H156.999V65.0052H155.193V55.8477H156.999V59.5881H160.096V55.8477H161.903V65.0052Z" fill="#897CFF"/>
<path d="M176.357 65.0052H174.421L173.905 63.3284H170.679L170.162 65.0052H168.227L171.582 55.8477H173.001L176.357 65.0052ZM173.518 61.9097L172.356 58.5562L171.195 61.9097H173.518Z" fill="#897CFF"/>
<path d="M185.65 61.5228L184.101 65.0052H181.907L183.843 61.1359C183.327 60.8779 182.94 60.62 182.682 60.104C182.423 59.7171 182.294 59.2012 182.294 58.5563C182.294 57.6534 182.552 57.0085 183.198 56.4926C183.843 55.9767 184.488 55.7188 185.392 55.7188H189.005V64.8763H187.198V61.3938H185.65V61.5228ZM187.069 59.9751V57.3955H185.392C185.004 57.3955 184.617 57.5245 184.359 57.7824C184.101 58.0404 183.972 58.2983 183.972 58.6853C183.972 59.0722 184.101 59.3302 184.359 59.5881C184.617 59.8461 184.875 59.9751 185.263 59.9751H187.069Z" fill="#897CFF"/>
<path d="M206.169 65.0052H204.362V55.8477H206.169V60.2329L209.137 55.8477H211.331L208.233 60.104L211.589 65.0052H209.395L206.169 60.2329V65.0052Z" fill="#897CFF"/>
<path d="M224.494 65.0051H222.687V57.3953H220.493V60.1039C220.493 61.3937 220.364 62.4255 220.106 63.0704C219.848 63.7153 219.59 64.3602 219.203 64.6182C218.816 64.8761 218.299 65.0051 217.654 65.0051H217.009V63.4574H217.267C217.525 63.4574 217.783 63.4574 217.912 63.3284C218.041 63.1994 218.299 63.0704 218.428 62.8125C218.558 62.5545 218.687 62.1676 218.816 61.7806C218.945 61.3937 218.945 60.7488 218.945 60.1039V55.9766H224.623V65.0051H224.494Z" fill="#897CFF"/>
<path d="M238.817 65.0052H237.011V59.0721L233.397 65.0052H231.849V55.8477H233.655V61.7807L237.269 55.8477H238.817V65.0052Z" fill="#897CFF"/>
<path d="M252.755 65.0052H250.949V61.1358H247.851V65.0052H246.045V55.8477H247.851V59.5881H250.949V55.8477H252.755V65.0052Z" fill="#897CFF"/>
<path d="M267.08 65.0052H265.273V59.0721L261.66 65.0052H260.111V55.8477H261.918V61.7807L265.531 55.8477H267.08V65.0052Z" fill="#897CFF"/>
<path d="M276.114 65.0052H274.307V55.8477H276.114V60.2329L279.082 55.8477H281.276L278.179 60.104L281.534 65.0052H279.34L276.114 60.2329V65.0052Z" fill="#897CFF"/>
<path d="M294.826 65.0052H292.89L292.374 63.3284H289.148L288.631 65.0052H286.696L290.051 55.8477H291.471L294.826 65.0052ZM291.987 61.9097L290.825 58.5562L289.664 61.9097H291.987Z" fill="#897CFF"/>
<path d="M92.7326 36.6306C91.0549 36.6306 89.5063 36.1147 88.3449 35.2118C87.1834 34.18 86.4091 32.7612 86.022 30.9555H89.6354C90.1516 32.6323 91.184 33.5351 92.7326 33.5351C93.636 33.5351 94.2812 33.2772 94.9265 32.8902C95.4427 32.3743 95.7008 31.8584 95.7008 31.0845C95.7008 30.3106 95.4427 29.6657 94.9265 29.2788C94.4103 28.8919 93.765 28.6339 92.8617 28.6339H90.5387V25.6674H92.9907C93.765 25.6674 94.4103 25.4094 94.7974 25.0225C95.1846 24.6356 95.4427 23.9907 95.4427 23.3458C95.4427 22.7009 95.1846 22.056 94.7974 21.669C94.2812 21.2821 93.636 21.0241 92.8617 21.0241C91.9583 21.0241 91.313 21.2821 90.7968 21.798C90.2806 22.3139 89.8935 22.9588 89.7644 23.7327H86.151C86.4091 21.927 87.1834 20.5082 88.4739 19.4764C89.6354 18.4446 91.184 18.0576 92.8617 18.0576C94.6684 18.0576 96.217 18.5735 97.3784 19.4764C98.5399 20.3792 99.1851 21.669 99.1851 23.2168C99.1851 25.0225 98.4108 26.3123 96.7332 27.2151C98.5399 27.989 99.4432 29.4078 99.4432 31.3425C99.4432 33.0192 98.798 34.309 97.6365 35.3408C96.217 36.1147 94.6684 36.6306 92.7326 36.6306Z" fill="#897CFF"/>
<path d="M117.768 40.4999H114.283V36.3726H104.088V40.4999H100.604V33.2771H102.282C103.701 31.0844 104.476 27.473 104.476 22.8298V18.1865H115.574V33.4061H117.639V40.4999H117.768ZM112.09 33.2771V21.282H108.089V23.9906C108.089 27.9889 107.573 31.0844 106.411 33.2771H112.09Z" fill="#897CFF"/>
<path d="M133.641 26.0545V27.9892C133.641 29.021 133.641 29.7949 133.512 30.4398C133.512 31.0847 133.254 31.7296 132.996 32.5034C132.737 33.2773 132.35 34.0512 131.705 34.5671C130.415 35.8569 128.737 36.6308 126.801 36.6308C124.865 36.6308 123.188 35.9859 121.768 34.5671C121.252 34.0512 120.736 33.2773 120.478 32.3744C120.22 31.4716 120.09 30.8267 119.961 30.1818C119.832 29.5369 119.961 28.892 119.961 27.9892V26.4414C119.961 24.6357 120.09 23.2169 120.349 22.3141C120.607 21.4112 121.123 20.6373 121.768 19.8635C123.059 18.5737 124.736 17.7998 126.801 17.7998C128.737 17.7998 130.415 18.4447 131.705 19.8635C132.996 21.1533 133.641 23.2169 133.641 26.0545ZM130.027 26.9573C130.027 25.4096 130.027 24.3777 129.898 23.7328C129.769 23.0879 129.511 22.572 129.124 22.1851C128.608 21.5402 127.833 21.1533 126.801 21.1533C125.769 21.1533 124.994 21.5402 124.478 22.1851C124.091 22.572 123.833 23.2169 123.704 23.9908C123.575 24.7647 123.575 25.7965 123.575 27.2153V28.1181C123.575 28.892 123.575 29.5369 123.575 30.0528C123.575 30.4398 123.704 30.9557 123.833 31.4716C123.962 31.9875 124.22 32.3744 124.478 32.6324C125.123 33.2773 125.898 33.6642 126.801 33.6642C127.704 33.6642 128.479 33.2773 129.124 32.6324C129.511 32.2455 129.769 31.6006 129.898 30.9557C130.027 30.0528 130.027 28.763 130.027 26.9573Z" fill="#897CFF"/>
<path d="M137.255 18.0576H144.353C146.159 18.0576 147.579 18.5735 148.74 19.7343C149.902 20.7662 150.418 22.1849 150.418 23.8617C150.418 25.5384 149.902 26.9572 148.74 27.989C147.579 29.0208 146.159 29.5368 144.353 29.5368H140.868V36.5016H137.255V18.0576ZM140.868 26.3123H144.223C144.998 26.3123 145.643 26.0543 146.159 25.6674C146.675 25.1515 146.934 24.6356 146.934 23.8617C146.934 23.0878 146.675 22.4429 146.159 22.056C145.643 21.5401 144.998 21.4111 144.223 21.4111H140.868V26.3123Z" fill="#897CFF"/>
<path d="M166.42 26.0545V27.9892C166.42 29.021 166.42 29.7949 166.291 30.4398C166.291 31.0847 166.033 31.7296 165.775 32.5034C165.517 33.2773 165.13 34.0512 164.485 34.5671C163.194 35.8569 161.516 36.6308 159.581 36.6308C157.516 36.6308 155.967 35.9859 154.548 34.5671C154.031 34.0512 153.515 33.2773 153.257 32.3744C152.999 31.4716 152.87 30.8267 152.741 30.1818C152.612 29.5369 152.741 28.892 152.741 27.9892V26.4414C152.741 24.6357 152.87 23.2169 153.128 22.3141C153.386 21.4112 153.902 20.6373 154.548 19.8635C155.838 18.5737 157.516 17.7998 159.581 17.7998C161.516 17.7998 163.194 18.4447 164.485 19.8635C165.775 21.1533 166.42 23.2169 166.42 26.0545ZM162.807 26.9573C162.807 25.4096 162.807 24.3777 162.678 23.7328C162.549 23.0879 162.291 22.572 161.904 22.1851C161.387 21.5402 160.613 21.1533 159.581 21.1533C158.548 21.1533 157.774 21.5402 157.258 22.1851C156.871 22.572 156.612 23.2169 156.483 23.9908C156.354 24.7647 156.354 25.7965 156.354 27.2153V28.1181C156.354 28.892 156.354 29.5369 156.354 30.0528C156.354 30.4398 156.483 30.9557 156.612 31.4716C156.742 31.9875 157 32.3744 157.258 32.6324C157.903 33.2773 158.677 33.6642 159.581 33.6642C160.484 33.6642 161.258 33.2773 161.904 32.6324C162.291 32.2455 162.549 31.6006 162.678 30.9557C162.807 30.0528 162.807 28.763 162.807 26.9573Z" fill="#897CFF"/>
<path d="M180.873 27.0862C181.519 27.3441 181.906 27.7311 182.293 28.118C183.067 28.8919 183.454 29.9237 183.454 31.3425C183.454 33.0192 182.938 34.18 181.906 35.2118C180.873 36.1147 179.583 36.6306 177.776 36.6306H170.033V18.0576H177.389C179.067 18.0576 180.486 18.5735 181.519 19.4764C182.551 20.3792 183.067 21.669 183.067 23.2168C183.196 24.8935 182.422 26.1833 180.873 27.0862ZM173.647 25.5384H177.131C177.905 25.5384 178.421 25.4094 178.809 25.0225C179.196 24.6356 179.454 24.1196 179.454 23.4747C179.454 22.8298 179.196 22.3139 178.809 21.927C178.421 21.5401 177.776 21.4111 177.131 21.4111H173.647V25.5384ZM173.647 33.2772H177.389C178.163 33.2772 178.68 33.0192 179.196 32.6323C179.583 32.2453 179.841 31.7294 179.841 30.9555C179.841 30.3106 179.583 29.6657 179.196 29.2788C178.809 28.8919 178.163 28.6339 177.389 28.6339H173.647V33.2772Z" fill="#897CFF"/>
<path d="M198.684 26.5702C199.716 27.6021 200.361 29.0208 200.361 30.6976C200.361 32.3743 199.845 33.7931 198.684 34.8249C197.522 35.8567 196.103 36.3727 194.425 36.3727H187.198V18.0576H190.812V25.0225H194.425C196.103 25.0225 197.522 25.5384 198.684 26.5702ZM195.974 32.6323C196.49 32.1163 196.748 31.6004 196.748 30.8266C196.748 30.0527 196.49 29.4078 195.974 29.0208C195.457 28.5049 194.812 28.3759 194.038 28.3759H190.682V33.4061H194.038C194.812 33.2772 195.457 33.0192 195.974 32.6323ZM205.91 36.5016H202.297V18.0576H205.91V36.5016Z" fill="#897CFF"/>
<path d="M222.299 36.5016H210.168V18.0576H222.299V21.2821H213.781V25.5384H221.008V28.7629H213.781V33.2772H222.299V36.5016Z" fill="#897CFF"/>
<path d="M247.077 40.4999H243.593V36.3726H233.398V40.4999H229.914V33.2771H231.591C233.011 31.0844 233.785 27.473 233.785 22.8298V18.1865H244.883V33.4061H246.948V40.4999H247.077ZM241.399 33.2771V21.282H237.269V23.9906C237.269 27.9889 236.753 31.0844 235.592 33.2771H241.399Z" fill="#897CFF"/>
<path d="M262.048 36.5016H249.917V18.0576H262.048V21.2821H253.53V25.5384H260.757V28.7629H253.53V33.2772H262.048V36.5016Z" fill="#897CFF"/>
<path d="M277.404 21.2821H272.629V36.5016H269.016V21.2821H264.241V18.0576H277.404V21.2821Z" fill="#897CFF"/>
<path d="M294.18 36.5016H290.567V24.7645L283.469 36.5016H280.243V18.0576H283.856V29.9237L290.954 18.1866H294.18V36.5016Z" fill="#897CFF"/>
<path opacity="0.6" d="M85.248 46.1748H296.375" stroke="#897CFF" stroke-width="1.7775"/>
</mask>
<g mask="url(#mask0_1_170)">
<rect x="2.41968" y="0.624023" width="307.701" height="77.1099" rx="38.555" fill="url(#paint0_linear_1_170)"/>
</g>
<defs>
<linearGradient id="paint0_linear_1_170" x1="-28.9697" y1="9.99103" x2="331.83" y2="86.991" gradientUnits="userSpaceOnUse">
<stop stop-color="#897CFF"/>
<stop offset="1" stop-color="#AD89F6"/>
</linearGradient>
</defs>
</svg>
