<svg width="204" height="52" viewBox="0 0 204 52" fill="none" xmlns="http://www.w3.org/2000/svg">
<path d="M44.9786 16.1313H38.6339V9.76955C38.6339 7.59461 36.8837 5.85465 34.6959 5.85465H22.6082C20.4204 5.85465 18.6702 7.59461 18.6702 9.76955V16.0769H12.3255C10.1377 16.0769 8.38745 17.8168 8.38745 19.9918V32.0083C8.38745 34.1833 10.1377 35.9232 12.3255 35.9232H18.6702V42.2305C18.6702 44.4055 20.4204 46.1454 22.6082 46.1454H34.6959C36.8837 46.1454 38.6339 44.4055 38.6339 42.2305V35.9232H44.9786C47.1664 35.9232 48.9167 34.1833 48.9167 32.0083V20.0461C48.9167 17.8712 47.1664 16.1313 44.9786 16.1313ZM45.1974 31.6821C45.1974 33.1502 43.9941 34.3464 42.5173 34.3464H37.0478V39.7837C37.0478 41.2518 35.8445 42.448 34.3677 42.448H22.9911C21.5143 42.448 20.311 41.2518 20.311 39.7837V34.3464H14.8415C13.3647 34.3464 12.1614 33.1502 12.1614 31.6821V20.3724C12.1614 18.9043 13.3647 17.7081 14.8415 17.7081H20.311V12.2707C20.311 10.8026 21.5143 9.60643 22.9911 9.60643H34.3677C35.8445 9.60643 37.0478 10.8026 37.0478 12.2707V17.7081H42.5173C43.9941 17.7081 45.1974 18.9043 45.1974 20.3724V31.6821Z" fill="url(#paint0_linear_1537_951)"/>
<path d="M28.5404 27.5395C29.1237 27.5395 29.5965 27.084 29.5965 26.5221C29.5965 25.9603 29.1237 25.5048 28.5404 25.5048C27.9571 25.5048 27.4843 25.9603 27.4843 26.5221C27.4843 27.084 27.9571 27.5395 28.5404 27.5395Z" fill="#897CFF"/>
<path d="M22.3704 21.2214C23.0151 21.2214 23.5377 20.718 23.5377 20.097C23.5377 19.476 23.0151 18.9726 22.3704 18.9726C21.7257 18.9726 21.2031 19.476 21.2031 20.097C21.2031 20.718 21.7257 21.2214 22.3704 21.2214Z" fill="#897CFF"/>
<path d="M31.3196 26.8436C30.9861 27.3255 29.8188 28.0215 28.5959 28.0215C27.373 28.0215 26.2057 27.3255 25.8722 26.8436C25.7054 26.6294 25.5387 26.79 25.5943 26.9507C25.8722 27.4861 26.8727 28.6105 27.3174 28.8782C27.4286 28.9853 26.8172 33.2687 26.9283 33.6435C27.0395 34.0183 27.3174 33.8041 27.373 33.6435C27.4286 33.4829 28.2624 31.127 28.6515 31.127C29.0406 31.127 29.8188 33.4293 29.93 33.6435C29.9855 33.8041 30.2635 34.0183 30.3746 33.6435C30.4858 33.2687 29.8744 28.9317 29.9855 28.8782C30.4302 28.6105 31.4308 27.5396 31.7087 26.9507C31.6531 26.79 31.4864 26.5759 31.3196 26.8436Z" fill="#897CFF"/>
<path d="M25.5391 26.094C25.4279 25.7727 24.3162 21.4357 21.5369 21.4357C18.7576 21.4357 18.035 25.5585 17.9239 25.8798C17.7571 26.3081 18.2574 26.3617 18.3685 26.201C18.4797 26.0404 20.1473 23.042 20.314 23.5774C20.5364 24.22 19.0912 28.1821 20.2029 33.4293C20.314 33.9647 21.0922 34.0183 21.0367 33.5364C20.8143 31.127 20.9255 29.0388 21.5369 29.0388C22.1484 29.0388 23.0933 31.3947 23.538 33.5364C23.6492 34.0183 24.483 33.9647 24.3718 33.4293C24.0939 31.2876 22.593 24.6483 23.2601 24.0058C23.538 23.7381 24.9832 26.3081 25.15 26.5223C25.3167 26.7365 25.7614 26.5223 25.5391 26.094Z" fill="#897CFF"/>
<path d="M34.8765 21.6498C35.5212 21.6498 36.0438 21.1464 36.0438 20.5254C36.0438 19.9044 35.5212 19.401 34.8765 19.401C34.2318 19.401 33.7092 19.9044 33.7092 20.5254C33.7092 21.1464 34.2318 21.6498 34.8765 21.6498Z" fill="#897CFF"/>
<path d="M39.2129 25.8797C39.1017 25.5585 38.1568 21.864 35.3775 21.864C32.5982 21.864 31.7089 25.7726 31.5977 26.0939C31.4309 26.5222 31.82 26.6829 31.9868 26.5222C32.098 26.3616 33.4876 23.9522 33.7655 24.1664C33.9879 24.327 33.7655 28.2356 32.5426 29.949C32.4315 30.056 32.5426 30.2167 32.6538 30.2702C32.8206 30.3238 33.0985 30.3773 33.3764 30.4308C33.2097 31.6623 32.9873 32.7867 32.9317 33.4828C32.8762 34.0182 33.5432 34.0717 33.6544 33.5899C33.8767 32.519 34.1546 31.3946 34.4326 30.5379C34.7661 30.5379 35.1552 30.5915 35.4887 30.5379C35.3775 31.3946 35.0996 32.4655 34.7661 33.5899C34.5993 34.0717 35.3219 33.9647 35.5443 33.4828C36.0445 32.4655 36.3225 31.3946 36.5448 30.4308C36.656 30.4308 36.7672 30.3773 36.8783 30.3238C36.9339 30.3238 36.9895 30.2702 37.0451 30.1631C37.5454 28.075 36.656 24.0593 36.8227 23.6845C37.0451 23.2026 38.7126 25.9868 38.8238 26.201C38.935 26.4151 39.3797 26.3081 39.2129 25.8797Z" fill="#897CFF"/>
<path d="M58.6705 37.774C58.6675 37.8148 58.6633 37.8631 58.6559 37.9273C58.6568 37.8964 58.6566 37.8689 58.6598 37.8404C58.6621 37.8201 58.6659 37.7979 58.6705 37.774ZM58.9908 36.939C58.9488 37.0226 58.9069 37.1064 58.8649 37.19L58.7379 37.4419C58.7388 37.3895 58.7472 37.3492 58.7604 37.3101C58.7769 37.261 58.8 37.2128 58.8444 37.1245C58.8663 37.0809 58.8829 37.0484 58.899 37.0191C58.9146 36.9909 58.9257 36.9723 58.9342 36.9605C58.9358 36.9583 58.9369 36.9562 58.9381 36.9546L58.9967 36.9253L58.9908 36.939ZM61.5748 36.9595C61.6163 37.0104 61.6552 37.0636 61.6891 37.1226H61.6715C61.6422 37.0661 61.6096 37.012 61.5748 36.9595Z" fill="#897CFF" stroke="#897CFF" stroke-width="1.15831"/>
<path d="M67.4514 36.3531V41.147H67.428V36.3531H67.4514Z" fill="#897CFF" stroke="#897CFF" stroke-width="1.15831"/>
<path d="M80.2769 36.3531V41.147H80.1694V38.2056L79.2388 37.9761L80.0356 36.3531H80.2769ZM76.1069 36.3531L76.894 37.9576L75.8892 38.2056V41.147H75.8657V36.3531H76.1069Z" fill="#897CFF" stroke="#897CFF" stroke-width="1.15831"/>
<path d="M86.0999 36.3531V41.147H86.0764V36.3531H86.0999Z" fill="#897CFF" stroke="#897CFF" stroke-width="1.15831"/>
<path d="M97.9967 36.3528V41.1468H97.9733V36.3528H97.9967ZM94.6217 36.3528V41.1468H94.5983V36.3528H94.6217Z" fill="#897CFF" stroke="#897CFF" stroke-width="1.15831"/>
<path d="M103.903 36.3531V41.147H103.88V36.3531H103.903ZM107.086 36.3531H107.109V41.147H107.086V36.3531Z" fill="#897CFF" stroke="#897CFF" stroke-width="1.15831"/>
<path d="M116.308 41.147H116.3L116.256 41.0044L116.308 41.147ZM112.662 41.147H112.653L112.708 40.9986L112.662 41.147Z" fill="#897CFF" stroke="#897CFF" stroke-width="1.15831"/>
<path d="M122.636 39.3375L121.828 41.1471H121.708L122.551 39.4713L122.636 39.3023V39.3375ZM124.722 36.2691H124.83V41.0631H124.807V38.7994H124.722V36.2691Z" fill="#897CFF" stroke="#897CFF" stroke-width="1.15831"/>
<path d="M137.505 38.8687L139.073 41.147H139.047L137.332 38.6245L137.334 38.6216L137.505 38.8687ZM136.052 36.3531V41.147H136.029V36.3531H136.052Z" fill="#897CFF" stroke="#897CFF" stroke-width="1.15831"/>
<path d="M148.119 36.4368V41.1468H148.011V36.4368H148.119ZM144.871 40.9495C144.849 40.9783 144.836 40.9895 144.833 40.9915C144.798 41.0148 144.756 41.036 144.707 41.056C144.711 41.0528 144.715 41.0504 144.718 41.0472C144.71 41.0551 144.709 41.0541 144.739 41.0315C144.759 41.0157 144.806 40.9817 144.848 40.9466C144.868 40.9299 144.89 40.9098 144.913 40.888C144.898 40.9122 144.884 40.9328 144.871 40.9495Z" fill="#897CFF" stroke="#897CFF" stroke-width="1.15831"/>
<path d="M157.4 36.3531V41.147H157.376V36.3531H157.4ZM154.025 36.3531V41.147H154.001V36.3531H154.025Z" fill="#897CFF" stroke="#897CFF" stroke-width="1.15831"/>
<path d="M163.307 36.3531V41.147H163.283V36.3531H163.307ZM166.489 36.3531H166.513V41.147H166.489V36.3531Z" fill="#897CFF" stroke="#897CFF" stroke-width="1.15831"/>
<path d="M175.879 36.3531V41.147H175.855V36.3531H175.879ZM172.504 36.3531V41.147H172.48V36.3531H172.504Z" fill="#897CFF" stroke="#897CFF" stroke-width="1.15831"/>
<path d="M183.238 38.8687L184.807 41.147H184.78L183.065 38.6245L183.067 38.6216L183.238 38.8687ZM181.786 36.3531V41.147H181.763V36.3531H181.786Z" fill="#897CFF" stroke="#897CFF" stroke-width="1.15831"/>
<path d="M193.769 41.147H193.76L193.716 41.0064L193.769 41.147ZM190.122 41.147H190.113L190.168 40.9986L190.122 41.147Z" fill="#897CFF" stroke="#897CFF" stroke-width="1.15831"/>
<path d="M62.5455 11.7895C63.6171 11.7895 64.5008 12.0933 65.1451 12.5912C65.7621 13.0681 66.1012 13.7368 66.1012 14.5639C66.1012 15.0648 65.9942 15.4586 65.7965 15.7807C65.598 16.1041 65.2832 16.3955 64.8043 16.6518L63.7389 17.2221L64.8502 17.6957C65.3531 17.9099 65.6986 18.1985 65.9215 18.5385C66.1447 18.879 66.2701 19.309 66.2701 19.8451C66.2701 20.7361 65.9419 21.4065 65.3287 21.9662C64.4863 22.4135 63.5857 22.7035 62.4615 22.7035C61.4885 22.7035 60.611 22.4083 59.9645 21.9155C59.4699 21.4749 59.0916 20.9003 58.8375 20.1733H60.0338C60.2221 20.6156 60.4797 20.996 60.8239 21.2846C61.2777 21.6651 61.8359 21.85 62.4615 21.85C63.1845 21.85 63.7089 21.6376 64.193 21.3491L64.2535 21.3129L64.3043 21.2621C64.5073 21.0605 64.6828 20.8356 64.8043 20.5639C64.927 20.2896 64.981 19.9976 64.9811 19.6782C64.9811 19.0513 64.7677 18.4314 64.2418 18.0395C63.8041 17.7134 63.2604 17.5063 62.5455 17.5063H61.6061V16.7358H62.6305C63.2542 16.7357 63.8351 16.5303 64.2194 16.1489C64.5942 15.7765 64.8131 15.203 64.8131 14.6479C64.8131 14.0927 64.5942 13.5193 64.2194 13.1469L64.191 13.1176L64.1578 13.0932L63.9918 12.9789C63.5928 12.7242 63.1077 12.559 62.5455 12.559C61.8274 12.5591 61.2504 12.7712 60.7877 13.2309C60.4883 13.5284 60.2351 13.8918 60.0787 14.3198H58.8766C59.0932 13.5986 59.482 13.0281 60.0377 12.5864L60.0494 12.5766L60.0602 12.5668C60.6754 12.0235 61.5288 11.7895 62.5455 11.7895Z" fill="#897CFF" stroke="#897CFF" stroke-width="1.15831"/>
<path d="M76.8171 11.8732V21.7658H78.1667V25.2189H77.1316V22.5363H69.3074V25.2189H68.1873V21.6818H69.0193L69.1902 21.4191C70.2097 19.8536 70.7185 17.3704 70.7185 14.3127V11.8732H76.8171ZM71.9226 15.0666C71.9226 17.6322 71.5868 19.5303 70.8943 20.8303L70.4402 21.6818H75.697V12.7268H71.9226V15.0666Z" fill="#897CFF" stroke="#897CFF" stroke-width="1.15831"/>
<path d="M84.7373 11.6219C85.8635 11.6219 86.7972 11.989 87.5166 12.7752L87.5254 12.785L87.5352 12.7947C88.2221 13.4773 88.6298 14.6351 88.6299 16.408V17.6658C88.6299 18.3575 88.6271 18.7944 88.5566 19.1443L88.5459 19.201V19.2586C88.5459 19.5563 88.4271 19.8531 88.2383 20.4158C88.0835 20.8771 87.8761 21.2551 87.583 21.4881L87.5576 21.5076L87.5352 21.5311C86.7916 22.2697 85.8385 22.7039 84.7373 22.7039C83.6166 22.7039 82.6686 22.3398 81.8545 21.5311C81.5781 21.2564 81.2974 20.8368 81.1592 20.3562C80.9973 19.7933 80.9169 19.393 80.833 18.9764C80.8053 18.8385 80.8015 18.6865 80.8115 18.4676C80.8209 18.2638 80.8438 17.9763 80.8438 17.6658V16.66C80.8438 15.4982 80.9298 14.6432 81.0752 14.1375C81.2096 13.6701 81.4829 13.2452 81.876 12.7742C82.6123 12.0522 83.5572 11.6219 84.7373 11.6219ZM84.7373 12.6434C83.9037 12.6434 83.2251 12.9619 82.7676 13.5301C82.4185 13.9043 82.2298 14.4396 82.1406 14.9715C82.0464 15.5336 82.0488 16.2624 82.0488 17.1629V19.0076C82.0489 19.3475 82.1571 19.7638 82.2344 20.0711C82.347 20.5186 82.5749 20.8604 82.8105 21.0945C83.3185 21.5992 83.9648 21.9334 84.7373 21.9334C85.5098 21.9333 86.1561 21.5992 86.6641 21.0945C87.0352 20.7257 87.236 20.1757 87.3301 19.7088L87.333 19.6922L87.3359 19.6766C87.4277 19.0383 87.4258 18.1481 87.4258 16.9949C87.4258 16.0224 87.4289 15.276 87.3301 14.785C87.2304 14.2897 87.0243 13.8546 86.6914 13.5115C86.2341 12.9551 85.5616 12.6434 84.7373 12.6434Z" fill="#897CFF" stroke="#897CFF" stroke-width="1.15831"/>
<path d="M96.2129 11.7895C97.269 11.7895 98.0411 12.0827 98.6738 12.7114L98.6855 12.7231L98.6982 12.7348C99.306 13.2716 99.5996 14.0191 99.5996 14.9828C99.5996 15.9466 99.3061 16.6951 98.6982 17.2319C98.058 17.7972 97.2716 18.0922 96.2129 18.0922H93.3555V22.6196H92.1514V11.7895H96.2129ZM93.3555 17.1547H96.1289C96.7711 17.1547 97.3125 16.9402 97.7402 16.6215L97.7734 16.5961L97.8027 16.5678C98.0057 16.3662 98.1812 16.1412 98.3027 15.8696C98.4255 15.5952 98.4795 15.3024 98.4795 14.9828C98.4795 14.3701 98.275 13.7654 97.7744 13.3725C97.281 12.9006 96.6828 12.811 96.1289 12.811H93.3555V17.1547Z" fill="#897CFF" stroke="#897CFF" stroke-width="1.15831"/>
<path d="M106.17 11.6219C107.296 11.6219 108.23 11.989 108.949 12.7752L108.958 12.785L108.968 12.7947C109.655 13.4773 110.062 14.6351 110.062 16.408V17.6658C110.062 18.3575 110.06 18.7944 109.989 19.1443L109.979 19.201V19.2586C109.979 19.5563 109.86 19.8531 109.671 20.4158C109.516 20.8771 109.309 21.2551 109.016 21.4881L108.99 21.5076L108.968 21.5311C108.224 22.2697 107.271 22.7039 106.17 22.7039C104.971 22.7039 104.105 22.3437 103.287 21.5311C103.011 21.2564 102.73 20.8368 102.592 20.3562C102.43 19.7933 102.349 19.393 102.266 18.9764C102.238 18.8385 102.234 18.6865 102.244 18.4676C102.253 18.2638 102.276 17.9763 102.276 17.6658V16.66C102.276 15.4982 102.362 14.6432 102.508 14.1375C102.642 13.6701 102.916 13.2452 103.309 12.7742C104.045 12.0522 104.99 11.6219 106.17 11.6219ZM106.17 12.6434C105.336 12.6434 104.658 12.9619 104.2 13.5301C103.851 13.9043 103.662 14.4396 103.573 14.9715C103.479 15.5336 103.481 16.2624 103.481 17.1629V19.0076C103.482 19.3475 103.59 19.7638 103.667 20.0711C103.78 20.5186 104.008 20.8604 104.243 21.0945C104.751 21.5992 105.397 21.9334 106.17 21.9334C106.942 21.9333 107.589 21.5992 108.097 21.0945C108.468 20.7257 108.669 20.1757 108.763 19.7088L108.766 19.6922L108.769 19.6766C108.86 19.0383 108.858 18.1481 108.858 16.9949C108.858 16.0224 108.862 15.276 108.763 14.785C108.663 14.2897 108.457 13.8546 108.124 13.5115C107.667 12.9551 106.994 12.6434 106.17 12.6434Z" fill="#897CFF" stroke="#897CFF" stroke-width="1.15831"/>
<path d="M117.814 11.7895C118.792 11.7895 119.579 12.0872 120.134 12.5698C120.66 13.0274 120.948 13.6938 120.948 14.5639V14.5864L120.95 14.6088C120.984 15.048 120.898 15.4116 120.719 15.7201C120.538 16.0328 120.241 16.3229 119.802 16.5776L118.769 17.1762L119.878 17.6176C120.179 17.7372 120.359 17.9093 120.612 18.1606C120.984 18.5305 121.2 19.0392 121.201 19.8451C121.201 20.7755 120.926 21.3784 120.371 21.935C119.814 22.4137 119.113 22.7035 118.067 22.7035H113.583V11.7895H117.814ZM114.787 21.6821H117.814C118.481 21.6821 118.938 21.4486 119.341 21.1479L119.374 21.1235L119.404 21.0951C119.767 20.7341 119.996 20.2502 119.996 19.5942C119.996 19.039 119.778 18.4656 119.404 18.0932C119.019 17.7114 118.438 17.5063 117.814 17.5063H114.787V21.6821ZM114.787 16.6518H117.645C118.203 16.6518 118.733 16.5624 119.15 16.1489C119.5 15.8011 119.743 15.3218 119.744 14.7319C119.744 14.1417 119.5 13.6627 119.15 13.3149C118.727 12.8947 118.103 12.811 117.645 12.811H114.787V16.6518Z" fill="#897CFF" stroke="#897CFF" stroke-width="1.15831"/>
<path d="M126.011 11.7895V16.3168H128.953C129.915 16.3169 130.699 16.6059 131.342 17.1684C131.902 17.7318 132.255 18.5016 132.255 19.4262C132.255 20.39 131.961 21.1384 131.353 21.6752C130.709 22.2441 129.921 22.5355 128.953 22.5356H124.807V11.7895H126.011ZM135.884 11.7895V22.6196H134.679V11.7895H135.884ZM125.927 21.766H128.747L128.794 21.7582C129.372 21.6626 129.885 21.4654 130.311 21.1479L130.345 21.1235L130.373 21.0951C130.576 20.8934 130.752 20.6677 130.874 20.3959C130.996 20.1217 131.051 19.8296 131.051 19.5102C131.051 18.8966 130.846 18.2908 130.344 17.8979C129.85 17.4273 129.252 17.3383 128.699 17.3383H125.927V21.766Z" fill="#897CFF" stroke="#897CFF" stroke-width="1.15831"/>
<path d="M146.599 11.7895V12.727H141.029V16.6518H145.755V17.5893H141.029V21.6821H146.599V22.6196H139.825V11.7895H146.599Z" fill="#897CFF" stroke="#897CFF" stroke-width="1.15831"/>
<path d="M161.366 11.8732V21.7658H162.715V25.2189H161.68V22.5363H153.856V25.2189H152.736V21.6818H153.568L153.739 21.4191C154.758 19.8536 155.267 17.3704 155.267 14.3127V11.8732H161.366ZM156.387 15.0666C156.387 17.6323 156.051 19.5303 155.358 20.8303L154.905 21.6818H160.246V12.7268H156.387V15.0666Z" fill="#897CFF" stroke="#897CFF" stroke-width="1.15831"/>
<path d="M172.588 11.7895V12.727H167.019V16.6518H171.745V17.5893H167.019V21.6821H172.588V22.6196H165.815V11.7895H172.588Z" fill="#897CFF" stroke="#897CFF" stroke-width="1.15831"/>
<path d="M182.629 11.7895V12.727H179.507V22.6196H178.303V12.727H175.181V11.7895H182.629Z" fill="#897CFF" stroke="#897CFF" stroke-width="1.15831"/>
<path d="M186.847 11.7895V20.9897L187.922 19.2241L192.393 11.8735H193.598V22.6196H192.393V13.5033L191.32 15.269L186.847 22.6196H185.643V11.7895H186.847Z" fill="#897CFF" stroke="#897CFF" stroke-width="1.15831"/>
<path d="M57.5681 29.4867H195.613" stroke="#897CFF" stroke-width="2"/>
<defs>
<linearGradient id="paint0_linear_1537_951" x1="9.71526" y1="7.04438" x2="46.0057" y2="43.8128" gradientUnits="userSpaceOnUse">
<stop stop-color="#E192FE"/>
<stop offset="0.9999" stop-color="#897CFF"/>
</linearGradient>
</defs>
</svg>
