<svg width="36" height="37" viewBox="0 0 36 37" fill="none" xmlns="http://www.w3.org/2000/svg">
<path fill-rule="evenodd" clip-rule="evenodd" d="M18.1911 32.5788C19.6731 31.8121 29.2494 26.5439 29.2494 18.4258C29.2494 11.6758 23.9994 7.17578 17.9994 7.17578C12.2004 7.17578 6.74939 11.6758 6.74939 18.4258C6.74939 26.5439 16.3257 31.8121 17.8077 32.5788C17.9327 32.6435 18.0661 32.6435 18.1911 32.5788ZM17.9994 24.4258C21.3131 24.4258 23.9994 21.7395 23.9994 18.4258C23.9994 15.1121 21.3131 12.4258 17.9994 12.4258C14.6857 12.4258 11.9994 15.1121 11.9994 18.4258C11.9994 21.7395 14.6857 24.4258 17.9994 24.4258Z" fill="#897CFF"/>
<path d="M18.1911 32.5788L18.4104 33.0028H18.4104L18.1911 32.5788ZM17.8077 32.5788L17.5884 33.0028L17.5884 33.0028L17.8077 32.5788ZM29.2494 18.4258H28.7721C28.7721 22.291 26.4897 25.52 23.9489 27.9115C21.4157 30.2957 18.6951 31.7807 17.9717 32.1549L18.1911 32.5788L18.4104 33.0028C19.1691 32.6103 21.9777 31.0778 24.6031 28.6067C27.2209 26.1428 29.7267 22.6786 29.7267 18.4258H29.2494ZM17.9994 7.17578V7.6531C23.7569 7.6531 28.7721 11.9601 28.7721 18.4258H29.2494H29.7267C29.7267 11.3915 24.2418 6.69846 17.9994 6.69846V7.17578ZM6.74939 18.4258H7.22671C7.22671 11.9654 12.4373 7.6531 17.9994 7.6531V7.17578V6.69846C11.9635 6.69846 6.27207 11.3862 6.27207 18.4258H6.74939ZM17.8077 32.5788L18.027 32.1549C17.3037 31.7807 14.5831 30.2957 12.0499 27.9115C9.50903 25.52 7.22671 22.291 7.22671 18.4258H6.74939H6.27207C6.27207 22.6786 8.77789 26.1428 11.3956 28.6067C14.0211 31.0778 16.8297 32.6103 17.5884 33.0028L17.8077 32.5788ZM18.1911 32.5788L17.9717 32.1549C17.9714 32.1551 17.974 32.1537 17.9793 32.1524C17.9847 32.151 17.9916 32.15 17.9994 32.15C18.0072 32.15 18.0141 32.151 18.0195 32.1524C18.0248 32.1537 18.0274 32.1551 18.027 32.1549L17.8077 32.5788L17.5884 33.0028C17.8509 33.1386 18.1479 33.1386 18.4104 33.0028L18.1911 32.5788ZM23.9994 18.4258H23.5221C23.5221 21.4759 21.0495 23.9485 17.9994 23.9485V24.4258V24.9031C21.5767 24.9031 24.4767 22.0031 24.4767 18.4258H23.9994ZM17.9994 12.4258V12.9031C21.0495 12.9031 23.5221 15.3757 23.5221 18.4258H23.9994H24.4767C24.4767 14.8485 21.5767 11.9485 17.9994 11.9485V12.4258ZM11.9994 18.4258H12.4767C12.4767 15.3757 14.9493 12.9031 17.9994 12.9031V12.4258V11.9485C14.4221 11.9485 11.5221 14.8485 11.5221 18.4258H11.9994ZM17.9994 24.4258V23.9485C14.9493 23.9485 12.4767 21.4759 12.4767 18.4258H11.9994H11.5221C11.5221 22.0031 14.4221 24.9031 17.9994 24.9031V24.4258Z" fill="#897CFF"/>
</svg>
