<svg width="153" height="45" viewBox="0 0 153 45" fill="none" xmlns="http://www.w3.org/2000/svg">
<path d="M72.3747 6.12854C71.3631 4.56524 69.9837 3.36977 68.0526 2.54214C66.2134 1.71452 64.0064 1.34668 61.5235 1.34668H51.5V30.1298H57.2014V21.9455H61.5235C64.0064 21.9455 66.2134 21.4857 68.0526 20.75C69.8918 19.9224 71.3631 18.7269 72.3747 17.1636C73.3862 15.6003 73.846 13.7611 73.846 11.6461C73.846 9.53102 73.2942 7.69184 72.3747 6.12854ZM68.0526 11.6461C68.0526 13.3933 67.5008 14.6807 66.3054 15.6923C65.2019 16.6118 63.4546 17.0716 61.2476 17.0716H57.1095V6.2205H61.2476C63.4546 6.2205 65.2019 6.68029 66.3054 7.59988C67.5008 8.51947 68.0526 9.89885 68.0526 11.6461Z" fill="#C4C3D3"/>
<path d="M82.2063 25.256V17.8993H94.069V13.1174H82.2063V6.12854H95.8162V1.34668H76.5049V30.1298H96.368V25.256H82.2063Z" fill="#C4C3D3"/>
<path d="M118.441 23.6927C116.786 24.7962 114.947 25.4399 112.832 25.4399C110.901 25.4399 109.246 24.9801 107.682 24.1525C106.211 23.3248 105.015 22.1294 104.188 20.658C103.36 19.1867 102.9 17.5314 102.9 15.6003C102.9 13.7611 103.36 12.0139 104.188 10.5426C105.015 9.07122 106.211 7.87575 107.682 7.04812C109.154 6.22049 110.901 5.7607 112.832 5.7607C114.763 5.7607 116.602 6.31245 118.074 7.23204L121.384 3.27781C120.648 2.72606 119.821 2.35822 118.993 1.99039C117.062 1.16276 114.855 0.794922 112.556 0.794922C109.705 0.794922 107.038 1.43863 104.648 2.72606C102.349 4.01348 100.417 5.7607 99.13 7.96771C97.7506 10.1747 97.1069 12.7496 97.1069 15.6003C97.1069 18.451 97.7506 20.9339 99.13 23.2329C100.417 25.4399 102.349 27.2791 104.648 28.4745C106.947 29.762 109.613 30.4057 112.556 30.4057C114.855 30.4057 117.062 29.9459 118.993 29.2102C119.913 28.8424 120.832 28.2906 121.568 27.7389L118.441 23.6927Z" fill="#C4C3D3"/>
<path d="M150.265 8.05951C148.885 5.8525 147.046 4.01332 144.747 2.81785C142.448 1.53043 139.781 0.886719 136.839 0.886719C133.896 0.886719 131.229 1.53043 128.93 2.81785C126.631 4.10528 124.7 5.8525 123.413 8.15147C122.033 10.3585 121.39 12.9333 121.39 15.6921C121.39 18.4509 122.033 21.0257 123.413 23.2327C124.792 25.5317 126.631 27.2789 128.93 28.5663C131.229 29.8538 133.896 30.4975 136.839 30.4975C139.781 30.4975 142.448 29.8538 144.747 28.5663C147.138 27.2789 148.977 25.5317 150.265 23.3247C151.644 21.1177 152.288 18.5428 152.288 15.6921C152.288 12.9333 151.644 10.3585 150.265 8.05951ZM146.586 15.6921C146.586 17.5313 146.127 19.1865 145.299 20.7498C144.471 22.2212 143.276 23.4166 141.805 24.2443C140.333 25.0719 138.678 25.5317 136.839 25.5317C135 25.5317 133.344 25.0719 131.873 24.2443C130.402 23.4166 129.206 22.2212 128.379 20.7498C127.551 19.2785 127.091 17.6232 127.091 15.6921C127.091 13.8529 127.551 12.1977 128.379 10.6344C129.206 9.16302 130.402 7.96755 131.873 7.13992C133.344 6.31229 135 5.8525 136.839 5.8525C138.678 5.8525 140.333 6.31229 141.805 7.13992C143.276 7.96755 144.471 9.16302 145.299 10.6344C146.127 12.1977 146.586 13.8529 146.586 15.6921Z" fill="#C4C3D3"/>
<path d="M56.2819 39.1413H53.3392V44.199H51.5V37.6699H56.2819V39.1413Z" fill="#C4C3D3"/>
<path d="M67.6811 42.9116H64.9223L64.3706 44.199H62.4395L65.3821 37.6699H67.2213L70.164 44.199H68.2329L67.6811 42.9116ZM67.1294 41.5322L66.3017 39.4171L65.4741 41.5322H67.1294Z" fill="#C4C3D3"/>
<path d="M81.57 37.9458C82.0297 38.1297 82.3056 38.4056 82.5815 38.7734C82.8574 39.1413 82.9493 39.6011 82.9493 40.0609C82.9493 40.5206 82.8574 40.9804 82.5815 41.3483C82.3056 41.7161 82.0297 41.992 81.57 42.1759C81.1102 42.3598 80.6504 42.4518 80.0067 42.4518H78.9031V44.199H77.064V37.6699H80.0986C80.5584 37.6699 81.1102 37.7619 81.57 37.9458ZM80.7423 40.7965C80.9262 40.6126 81.0182 40.4287 81.0182 40.0609C81.0182 39.785 80.9262 39.5091 80.7423 39.3252C80.5584 39.1413 80.2825 39.0493 79.9147 39.0493H78.9031V40.9804H79.9147C80.2825 40.9804 80.5584 40.9804 80.7423 40.7965Z" fill="#C4C3D3"/>
<path d="M94.624 42.9116H91.8652L91.3135 44.199H89.3823L92.325 37.6699H94.1642L97.1069 44.199H95.1757L94.624 42.9116ZM94.0722 41.5322L93.2446 39.4171L92.417 41.5322H94.0722Z" fill="#C4C3D3"/>
<path d="M110.9 37.6699V44.199H109.06V41.6242H106.577V44.199H104.738V37.6699H106.577V40.0609H109.06V37.6699H110.9Z" fill="#C4C3D3"/>
<path d="M124.419 39.1413H122.396V44.199H120.557V39.1413H118.534V37.6699H124.419V39.1413Z" fill="#C4C3D3"/>
<path d="M131.686 37.6699H133.433V41.5322L136.192 37.6699H137.939V44.199H136.1V40.3367L133.433 44.199H131.686V37.6699Z" fill="#C4C3D3"/>
<path d="M150.168 37.6699V44.199H148.329V42.5437H147.317L146.214 44.199H144.282L145.57 42.2679C145.11 42.0839 144.834 41.8081 144.558 41.4402C144.374 41.0724 144.19 40.6126 144.19 40.1528C144.19 39.6011 144.282 39.2332 144.558 38.8654C144.834 38.4976 145.11 38.2217 145.57 38.0378C146.03 37.8538 146.489 37.7619 147.133 37.7619H150.168V37.6699ZM146.122 40.0609C146.122 40.4287 146.214 40.6126 146.397 40.7965C146.581 40.9804 146.857 41.0724 147.225 41.0724H148.329V39.0493H147.225C146.489 39.1413 146.122 39.4171 146.122 40.0609Z" fill="#C4C3D3"/>
<path d="M42.8528 30.2219L42.5769 27.5551C42.0252 22.4974 40.3699 18.4512 37.887 15.3246C35.5881 12.4739 32.6454 10.3588 28.967 8.88747V1.25488L26.3002 1.53076C21.2425 2.08251 17.1963 3.73777 14.0697 6.22066C11.219 8.51963 9.10393 11.4623 7.63258 15.1407H0L0.275877 17.8075C0.82763 22.8652 2.48289 26.9114 4.96578 30.038C7.26475 32.8887 10.2074 35.0038 13.8858 36.4751V44.1077L16.5526 43.8318C21.6103 43.2801 25.6565 41.6248 28.7831 39.1419C31.6338 36.843 33.7489 33.9003 35.2202 30.2219H42.8528ZM25.9324 35.4636C24.0013 37.0269 21.6103 38.1304 18.6676 38.7741V23.1411H13.8858V31.5093C11.7707 30.4058 10.0235 29.0265 8.64413 27.2792C7.08083 25.3481 5.97733 22.9572 5.33361 20.0145H21.0586V15.3246H12.6903C13.7938 13.2095 15.1732 11.4623 16.9204 10.0829C18.8516 8.51963 21.2425 7.41613 24.1852 6.77241V22.6813H28.8751V14.1291C30.9901 15.2326 32.7374 16.612 34.1167 18.3592C35.68 20.2904 36.7835 22.6813 37.4273 25.624H21.8862V30.3139H30.0705C29.059 32.337 27.6796 34.0842 25.9324 35.4636Z" fill="#C4C3D3"/>
</svg>
