<svg width="72" height="73" viewBox="0 0 72 73" fill="none" xmlns="http://www.w3.org/2000/svg">
<path d="M46.499 10C47.0513 10 47.499 10.4477 47.499 11V16H55.1816C55.7458 16 56.2291 15.9989 56.625 16.0312C57.0326 16.0646 57.4351 16.1382 57.8213 16.335C58.3997 16.6297 58.8703 17.1003 59.165 17.6787C59.3618 18.0649 59.4354 18.4674 59.4688 18.875C59.5011 19.2709 59.5 19.7543 59.5 20.3184V55.6816C59.5 56.2457 59.5011 56.7291 59.4688 57.125C59.4354 57.5326 59.3618 57.9351 59.165 58.3213C58.8703 58.8997 58.3997 59.3703 57.8213 59.665C57.4351 59.8618 57.0326 59.9354 56.625 59.9688C56.229 60.0011 55.7458 60 55.1816 60H16.8184C16.2542 60 15.7709 60.0011 15.375 59.9688C14.9674 59.9354 14.5649 59.8618 14.1787 59.665C13.6003 59.3703 13.1297 58.8997 12.835 58.3213C12.6382 57.9351 12.5646 57.5326 12.5312 57.125C12.4989 56.7291 12.5 56.2457 12.5 55.6816V20.3184C12.5 19.7543 12.4989 19.2709 12.5312 18.875C12.5646 18.4674 12.6382 18.0649 12.835 17.6787C13.1297 17.1003 13.6003 16.6297 14.1787 16.335C14.5649 16.1382 14.9674 16.0646 15.375 16.0312C15.7709 15.9989 16.2542 16 16.8184 16H24.499V11C24.499 10.4478 24.9469 10.0001 25.499 10C26.0513 10 26.499 10.4477 26.499 11V16H45.499V11C45.499 10.4478 45.9469 10.0001 46.499 10ZM14.5 55.6816C14.5 56.2786 14.5013 56.6663 14.5254 56.9619C14.5485 57.2453 14.588 57.3556 14.6172 57.4131C14.7202 57.6152 14.8848 57.7798 15.0869 57.8828C15.1444 57.912 15.2546 57.9514 15.5381 57.9746C15.8337 57.9987 16.2214 58 16.8184 58H55.1816C55.7786 58 56.1663 57.9987 56.4619 57.9746C56.7454 57.9514 56.8556 57.912 56.9131 57.8828C57.1152 57.7798 57.2798 57.6152 57.3828 57.4131C57.412 57.3556 57.4515 57.2453 57.4746 56.9619C57.4987 56.6663 57.5 56.2786 57.5 55.6816V30H14.5V55.6816ZM36 35.5C36.5523 35.5 37 35.9477 37 36.5V43H43.499C44.0513 43 44.499 43.4478 44.499 44C44.499 44.5523 44.0513 45 43.499 45H37V51.5C37 52.0522 36.5523 52.5 36 52.5C35.4478 52.5 35 52.0522 35 51.5V45H28.499C27.9469 44.9999 27.499 44.5522 27.499 44C27.4991 43.4478 27.9469 43.0001 28.499 43H35V36.5C35 35.9477 35.4477 35.5 36 35.5ZM16.8184 18C16.2214 18 15.8337 18.0013 15.5381 18.0254C15.2546 18.0485 15.1444 18.088 15.0869 18.1172C14.8848 18.2202 14.7202 18.3848 14.6172 18.5869C14.588 18.6444 14.5486 18.7547 14.5254 19.0381C14.5013 19.3337 14.5 19.7214 14.5 20.3184V28H57.5V20.3184C57.5 19.7214 57.4987 19.3337 57.4746 19.0381C57.4514 18.7547 57.412 18.6444 57.3828 18.5869C57.2798 18.3848 57.1152 18.2201 56.9131 18.1172C56.8556 18.088 56.7453 18.0485 56.4619 18.0254C56.1663 18.0013 55.7786 18 55.1816 18H47.499V23C47.499 23.5522 47.0513 24 46.499 24C45.9469 23.9999 45.4991 23.5522 45.499 23V18H26.499V23C26.499 23.5522 26.0513 24 25.499 24C24.9469 23.9999 24.4991 23.5522 24.499 23V18H16.8184Z" fill="#897CFF"/>
</svg>
