<!-- sprite.svg -->
<svg xmlns="http://www.w3.org/2000/svg" style="display:none;">

  <symbol id="icon-address" viewBox="0 0 30 29" fill="none">
    <path d="M23.9626 14.6527C23.9626 20.6203 17.4357 24.6455 15.5486 25.6846C15.2298 25.8601 14.8568 25.8601 14.538 25.6846C12.6509 24.6455 6.12402 20.6203 6.12402 14.6527C6.12402 9.30112 10.4457 5.7334 15.0433 5.7334C19.8003 5.7334 23.9626 9.30112 23.9626 14.6527Z" stroke="#897CFF" stroke-width="2.46972"/>
    <circle cx="15.0433" cy="14.6525" r="3.5221" stroke="#897CFF" stroke-width="2.46972"/>
  </symbol>

  <symbol id="icon-booking" viewBox="0 0 36 35" fill="none">
    <rect x="1.3195" y="0.861001" width="33.5827" height="33.5827" rx="4.33885" stroke="#BCCAF4" stroke-width="0.964189"/>
    <path d="M28.9067 14.0537V12.9022C28.9067 11.2898 28.9067 10.4836 28.593 9.86781C28.317 9.32611 27.8765 8.88569 27.3348 8.60968C26.719 8.2959 25.9128 8.2959 24.3005 8.2959H11.9212C10.3089 8.2959 9.50268 8.2959 8.88685 8.60968C8.34515 8.88569 7.90473 9.32611 7.62872 9.86781C7.31494 10.4836 7.31494 11.2898 7.31494 12.9022V14.0537M28.9067 14.0537V23.842C28.9067 25.4543 28.9067 26.2605 28.593 26.8763C28.317 27.418 27.8765 27.8585 27.3348 28.1345C26.719 28.4483 25.9128 28.4483 24.3005 28.4483H11.9212C10.3089 28.4483 9.50268 28.4483 8.88685 28.1345C8.34515 27.8585 7.90473 27.418 7.62872 26.8763C7.31494 26.2605 7.31494 25.4543 7.31494 23.842V14.0537M28.9067 14.0537H7.31494" stroke="#897CFF" stroke-width="1.92838"/>
    <path d="M13.0728 5.41699L13.0728 11.1748M23.1489 5.41699L23.1489 11.1748" stroke="#897CFF" stroke-width="1.92838" stroke-linecap="round"/>
    <path d="M18.1108 24.8496L18.1108 17.6523" stroke="#897CFF" stroke-width="1.92838" stroke-linecap="round"/>
    <path d="M21.7095 21.251L14.5122 21.251" stroke="#897CFF" stroke-width="1.92838" stroke-linecap="round"/>
  </symbol>

  <symbol id="icon-medcard" viewBox="0 0 36 35" fill="none">
    <rect x="1.32731" y="0.861001" width="33.5827" height="33.5827" rx="4.33885" stroke="#BCCAF4" stroke-width="0.964189"/>
    <circle cx="18.1187" cy="11.8945" r="4.79363" stroke="#897CFF" stroke-width="1.92838" stroke-linecap="round"/>
    <path d="M7.82531 24.7747C8.74613 21.3998 12.2381 19.8115 15.7364 19.8115H20.501C23.9992 19.8115 27.4912 21.3998 28.412 24.7747C28.6008 25.4667 28.7516 26.2156 28.8371 27.011C28.922 27.8015 28.2701 28.4482 27.4751 28.4482H8.76221C7.96722 28.4482 7.3153 27.8015 7.40023 27.011C7.4857 26.2156 7.63649 25.4667 7.82531 24.7747Z" stroke="#897CFF" stroke-width="1.92838" stroke-linecap="round"/>
  </symbol>

  <symbol id="icon-dropdown-arrow" viewBox="0 0 7 10" fill="none">
    <path d="M7.96557 11.4763L4.67977 6.78231C4.21969 6.12506 4.68989 5.22196 5.49217 5.22196L11.5995 5.22196C12.4018 5.22196 12.872 6.12506 12.4119 6.78231L9.12615 11.4763C8.84416 11.8792 8.24756 11.8792 7.96557 11.4763Z" fill="#897CFF"/>
  </symbol>

  <symbol id="icon-button-arrow" viewBox="0 0 45 45" fill="none">
    <circle cx="22.399" cy="22.7616" r="21.8817" fill="white"/>
    <path d="M29.7828 26.8467V15.3781M29.7828 15.3781H18.3143M29.7828 15.3781L15.0165 30.1445" stroke="#535353" stroke-width="2.66" stroke-linecap="round" stroke-linejoin="round"/>
  </symbol>

 <symbol id="icon-health" viewBox="0 0 61 61" fill="none">
    <path d="M23.2639 22.7959H41.9305C44.8761 22.7959 47.2639 25.1837 47.2639 28.1292V38.7959C47.2639 41.7414 44.8761 44.1292 41.9305 44.1292H23.2639C20.3184 44.1292 17.9305 41.7414 17.9305 38.7959V28.1292C17.9305 25.1837 20.3184 22.7959 23.2639 22.7959Z" stroke="#897CFF" stroke-width="2.66667" stroke-linecap="round" stroke-linejoin="round"/>
    <path d="M17.9305 28.1289H13.4626C10.413 28.1289 8.25967 31.1165 9.22403 34.0096V34.0096C9.66874 35.3437 10.7156 36.3906 12.0497 36.8353L17.9305 38.7956" stroke="#897CFF" stroke-width="2.66667" stroke-linecap="round" stroke-linejoin="round"/>
    <path d="M47.2639 28.1289H51.7317C54.7813 28.1289 56.9347 31.1165 55.9703 34.0096V34.0096C55.5256 35.3437 54.4787 36.3906 53.1446 36.8353L47.2639 38.7956" stroke="#897CFF" stroke-width="2.66667" stroke-linecap="round" stroke-linejoin="round"/>
    <path d="M32.5972 28.1289V38.7956" stroke="#897CFF" stroke-width="2.66667" stroke-linecap="round" stroke-linejoin="round"/>
    <path d="M37.9305 33.4619L27.2639 33.4619" stroke="#897CFF" stroke-width="2.66667" stroke-linecap="round" stroke-linejoin="round"/>
  </symbol>

  <symbol id="icon-prevent" viewBox="0 0 61 61" fill="none">
    <circle cx="47.1104" cy="26.3789" r="5" stroke="#897CFF" stroke-width="2.5"/>
    <circle cx="47.1104" cy="26.3789" r="1.25" fill="#897CFF"/>
    <circle cx="22.1104" cy="33.8789" r="3.75" fill="#897CFF"/>
    <path d="M22.1104 33.8789C31.0941 33.8789 34.0248 21.7728 34.5276 13.8742C34.6154 12.4963 33.4911 11.3789 32.1104 11.3789H29.6104" stroke="#897CFF" stroke-width="2.5" stroke-linecap="round"/>
    <path d="M22.1104 33.8789C13.1266 33.8789 10.1959 21.7728 9.69306 13.8742C9.60533 12.4963 10.7296 11.3789 12.1104 11.3789H14.6104" stroke="#897CFF" stroke-width="2.5" stroke-linecap="round"/>
    <path d="M47.1104 31.3789V36.3789C47.1104 43.2825 41.5139 48.8789 34.6104 48.8789V48.8789C27.7068 48.8789 22.1104 43.2825 22.1104 36.3789V33.8789" stroke="#897CFF" stroke-width="2.5" stroke-linecap="round"/>
  </symbol>

  <symbol id="icon-pain" viewBox="0 0 61 61" fill="none">
    <path d="M22.5222 40.1289L40.0222 22.6289C43.474 19.1771 43.474 13.5807 40.0222 10.1289C36.5704 6.67713 30.974 6.67713 27.5222 10.1289L10.0222 27.6289C6.57044 31.0807 6.57044 36.6771 10.0222 40.1289C13.474 43.5807 19.0704 43.5807 22.5222 40.1289Z" stroke="#897CFF" stroke-width="2.5" stroke-linecap="round" stroke-linejoin="round"/>
    <path d="M31.2722 31.3789V31.3789C25.6552 28.9716 21.1795 24.4959 18.7722 18.8789V18.8789" stroke="#897CFF" stroke-width="2.5" stroke-linecap="round" stroke-linejoin="round"/>
    <circle cx="41.2722" cy="41.3789" r="10" stroke="#897CFF" stroke-width="2.5" stroke-linecap="round" stroke-linejoin="round"/>
    <path d="M47.5222 35.1289L35.0222 47.6289" stroke="#897CFF" stroke-width="2.5" stroke-linecap="round" stroke-linejoin="round"/>
  </symbol>

  <symbol id="icon-future" viewBox="0 0 53 42" fill="none">
    <path d="M51.4769 38.8191L45.0784 37.9361L46.5576 23.8363L51.3025 24.4907C51.6474 24.5385 51.9673 24.2933 52.015 23.9485C52.0628 23.6036 51.8177 23.2837 51.4728 23.2359L46.0796 22.4922C45.9092 22.4714 45.7389 22.513 45.6017 22.6189C45.4688 22.7249 45.3774 22.8786 45.3628 23.049L45.288 23.7615C39.039 20.2943 33.8744 20.1613 29.8756 23.3523L29.8735 16.8581L41.8126 9.64115C43.2107 8.79565 43.6636 6.96541 42.8181 5.561C41.9726 4.16288 40.1423 3.70997 38.7379 4.55553L26.7031 11.8432C24.5966 13.1146 22.1826 13.1146 20.076 11.8432L8.04123 4.55766C6.6431 3.71215 4.81286 4.15878 3.96108 5.56313C3.11765 6.96126 3.56844 8.7915 4.96656 9.64121L16.9014 16.8624V28.0622C16.7746 28.2741 16.6666 28.4985 16.5877 28.7332L6.53076 22.991C4.8189 22.0126 2.62723 22.6129 1.65286 24.3268C0.578834 26.209 1.07328 28.0289 2.96585 29.1922L20.3253 39.8602C21.8564 40.8013 23.5059 41.275 25.17 41.275C26.4892 41.275 27.8187 40.9779 29.1046 40.3817L37.3959 36.5571C37.8259 36.3597 38.2206 36.3078 38.6881 36.3929C39.1929 36.4844 39.7102 36.7066 40.3043 36.9663C41.2039 37.3548 42.2925 37.8285 43.7883 38.0196L43.7467 38.4122C43.7093 38.7529 43.9545 39.0604 44.2889 39.1082L51.2984 40.0763C51.3296 40.0825 51.3566 40.0825 51.3836 40.0825C51.6973 40.0825 51.9695 39.854 52.011 39.5341C52.0671 39.1851 51.8217 38.8669 51.4769 38.8191ZM5.6273 8.55689C4.82333 8.07284 4.56986 7.0258 5.05393 6.22184C5.538 5.41787 6.58502 5.1644 7.38898 5.64847L19.4238 12.9298C21.9084 14.4338 24.875 14.4338 27.3597 12.9298L39.3945 5.64847C40.1985 5.16442 41.2455 5.41995 41.7296 6.22184C42.2136 7.0258 41.9581 8.07287 41.1562 8.55689L28.922 15.961C28.7308 16.0774 28.6187 16.281 28.6187 16.5032V24.5222C28.3154 24.8421 28.0183 25.1807 27.7295 25.5443L19.7893 26.2506C19.1993 26.3046 18.6508 26.4895 18.173 26.7824V16.5032C18.173 16.2789 18.0567 16.0773 17.8697 15.961L5.6273 8.55689ZM40.8132 35.8025C40.1692 35.5262 39.5625 35.2603 38.9102 35.144C38.1977 35.0172 37.5266 35.1066 36.8681 35.4099L28.5769 39.2345C26.0507 40.3999 23.3604 40.24 20.9919 38.7816L3.63246 28.112C2.31325 27.3039 2.02037 26.2403 2.75579 24.9522C3.38941 23.847 4.79791 23.4585 5.90523 24.0901L16.3695 30.0646C16.3695 30.1436 16.3757 30.2288 16.3799 30.3139C16.5544 32.2605 18.1935 33.7293 20.1089 33.7293C20.2211 33.7293 20.3333 33.7231 20.4434 33.7127L34.2231 32.489C34.5742 32.4579 34.8297 32.1483 34.7965 31.8035C34.7653 31.4586 34.4558 31.1969 34.1109 31.2301L20.3312 32.4537C18.9705 32.5763 17.7635 31.5646 17.6409 30.2038C17.5183 28.8431 18.53 27.6361 19.8908 27.5135L28.1028 26.7843C28.2773 26.7677 28.4435 26.6784 28.5494 26.5392C32.48 21.4224 37.9043 20.9656 45.142 25.1452L43.9246 36.7604C42.6199 36.59 41.6684 36.1745 40.8125 35.8026L40.8132 35.8025ZM23.3894 11.1847C26.2023 11.1847 28.4895 8.89737 28.4895 6.08452C28.4895 3.27162 26.2022 0.984375 23.3894 0.984375C20.5765 0.984375 18.2892 3.27167 18.2892 6.08452C18.2892 8.89742 20.5827 11.1847 23.3894 11.1847ZM23.3894 2.25577C25.5001 2.25577 27.2181 3.97385 27.2181 6.08452C27.2181 8.19519 25.5 9.91327 23.3894 9.91327C21.2787 9.91327 19.5606 8.19519 19.5606 6.08452C19.5606 3.97172 21.2787 2.25577 23.3894 2.25577Z" fill="#897CFF" stroke="#897CFF" stroke-width="1.12877"/>
  </symbol>


  <symbol id="icon-map-pin" viewBox="0 0 24 24" fill="none">
    <path d="M19.5526 12.0247C19.5526 16.8573 14.267 20.117 12.7388 20.9584C12.4807 21.1005 12.1786 21.1005 11.9204 20.9584C10.3922 20.117 5.10669 16.8573 5.10669 12.0247C5.10669 7.69093 8.60645 4.80176 12.3296 4.80176C16.1819 4.80176 19.5526 7.69093 19.5526 12.0247Z" stroke="#897CFF" stroke-width="2"/>
    <circle cx="12.3296" cy="12.0241" r="2.85223" stroke="#897CFF" stroke-width="2"/>
  </symbol>

  <symbol id="icon-clock" viewBox="0 0 24 24" fill="none">
    <circle cx="12.3296" cy="12.2406" r="8.70446" stroke="#897CFF" stroke-width="2"/>
    <path d="M16.6633 12.2398H12.5704C12.4374 12.2398 12.3296 12.132 12.3296 11.9991V8.86914" stroke="#897CFF" stroke-width="2" stroke-linecap="round"/>
  </symbol>

  <symbol id="icon-analysis" viewBox="0 0 25 25" fill="none">
    <path d="M15.7727 5.7002V12.3974C15.7727 12.5948 15.8311 12.7879 15.9407 12.9521L20.7362 20.1455C21.1793 20.81 20.7029 21.7002 19.9042 21.7002H5.64122C4.84253 21.7002 4.36614 20.81 4.80917 20.1455L9.60476 12.9521C9.71427 12.7879 9.77271 12.5948 9.77271 12.3974V5.7002" stroke="#897CFF" stroke-width="2" stroke-linejoin="round"/>
    <path d="M7.77271 5.7002H17.7727" stroke="#897CFF" stroke-width="2" stroke-linecap="round" stroke-linejoin="round"/>
  </symbol>

  <symbol id="icon-telegram" viewBox="0 0 24 24" fill="none">
    <path d="M4.61453 11.2239L18.6698 6.53885C18.7591 6.50907 18.8441 6.59406 18.8143 6.68341L14.1293 20.7386C14.0935 20.8459 13.9403 20.8417 13.9106 20.7326L11.937 13.4963C11.9264 13.4573 11.8959 13.4268 11.8569 13.4161L4.6206 11.4426C4.51151 11.4129 4.50726 11.2597 4.61453 11.2239Z" stroke="#897CFF" stroke-width="2" stroke-linecap="round"/>
  </symbol>

  <symbol id="icon-mail" viewBox="0 0 25 25" fill="none">
    <rect x="4.65332" y="6.43457" width="16" height="12" rx="2" stroke="#897CFF" stroke-width="2"/>
    <path d="M4.65332 9.43457L11.7589 12.9874C12.3219 13.2689 12.9847 13.2689 13.5477 12.9874L20.6533 9.43457" stroke="#897CFF" stroke-width="2"/>
  </symbol>

  <symbol id="icon-social-vk" viewBox="0 0 43 42" fill="none">
    <path d="M21.7177 3.4824C31.2433 3.4824 38.993 11.2321 38.993 20.7577C38.993 30.2833 31.2433 38.033 21.7177 38.033C12.1921 38.033 4.44236 30.2833 4.44236 20.7577C4.44236 11.2321 12.1921 3.4824 21.7177 3.4824ZM21.7177 0.0273438C10.2693 0.0273438 0.987305 9.30936 0.987305 20.7577C0.987305 32.206 10.2693 41.488 21.7177 41.488C33.166 41.488 42.448 32.206 42.448 20.7577C42.448 9.30936 33.166 0.0273438 21.7177 0.0273438ZM11.4026 31.1229L12.8606 25.8004C11.9623 24.2421 11.489 22.4749 11.489 20.6644C11.4907 14.9998 16.098 10.3925 21.7608 10.3925C24.5093 10.3942 27.0885 11.4636 29.0268 13.4053C30.9669 15.3471 32.0345 17.928 32.0327 20.673C32.031 26.3376 27.422 30.9449 21.7608 30.9449C20.042 30.9449 18.3472 30.5131 16.8478 29.6942L11.4026 31.1229ZM17.1 27.8354C18.5476 28.694 19.9297 29.2105 21.7574 29.2105C26.4632 29.2105 30.2966 25.3806 30.2983 20.673C30.3 15.9552 26.4839 12.1304 21.7643 12.1287C17.0551 12.1287 13.2251 15.9586 13.2234 20.6661C13.2234 22.5872 13.7866 24.0279 14.7315 25.5326L13.8695 28.6836L17.1 27.8354ZM26.9365 23.1158C26.8726 23.0087 26.7016 22.9447 26.4442 22.8152C26.1868 22.6873 24.9257 22.0654 24.6907 21.9808C24.4558 21.8944 24.2848 21.8529 24.1137 22.1086C23.9427 22.366 23.4504 22.943 23.3018 23.1158C23.1515 23.2868 23.0029 23.3093 22.7455 23.1797C22.4881 23.0519 21.6624 22.7806 20.6811 21.9065C19.9176 21.2259 19.4028 20.3846 19.2525 20.1289C19.1022 19.8715 19.2369 19.7333 19.3648 19.6054L19.75 19.1563L20.0074 18.7278C20.0938 18.5568 20.0506 18.4065 19.9867 18.2787L19.1955 16.3732C18.9864 15.8722 18.7757 15.9413 18.6185 15.9327L18.1244 15.9206C17.9534 15.9206 17.6752 15.9845 17.4403 16.2419C17.2054 16.4993 16.542 17.1195 16.542 18.3841C16.542 19.6469 17.461 20.8683 17.5906 21.0393C17.7184 21.2103 19.401 23.8033 21.9751 24.9141C22.5866 25.1784 23.0651 25.3374 23.4383 25.4548C24.0533 25.6501 24.613 25.6224 25.0552 25.5568C25.5476 25.4825 26.5737 24.9366 26.788 24.3371C27.0004 23.736 27.0004 23.2229 26.9365 23.1158Z" fill="#897CFF"/>
  </symbol>

  <symbol id="icon-social-telegram" viewBox="0 0 42 42" fill="none">
    <path fill-rule="evenodd" clip-rule="evenodd" d="M21.1786 0.0273438C9.73026 0.0273438 0.448242 9.30936 0.448242 20.7577C0.448242 32.206 9.73026 41.488 21.1786 41.488C32.6269 41.488 41.9089 32.206 41.9089 20.7577C41.9089 9.30936 32.6269 0.0273438 21.1786 0.0273438ZM21.1786 3.4824C30.7042 3.4824 38.4539 11.2321 38.4539 20.7577C38.4539 30.2833 30.7042 38.033 21.1786 38.033C11.653 38.033 3.9033 30.2833 3.9033 20.7577C3.9033 11.2321 11.653 3.4824 21.1786 3.4824ZM25.8291 29.2036C26.1072 29.4023 26.4648 29.4506 26.7844 29.3297C27.104 29.2088 27.3407 28.9358 27.4098 28.6041C28.1613 25.0765 29.9821 16.1469 30.6645 12.9389C30.7163 12.697 30.6316 12.4466 30.4416 12.2842C30.2516 12.1235 29.9873 12.0769 29.7523 12.1632C26.1314 13.5038 14.9768 17.6879 10.4178 19.3757C10.1276 19.4828 9.93929 19.7609 9.94965 20.0667C9.96002 20.3725 10.1656 20.6368 10.461 20.7249C12.5064 21.3364 15.191 22.1881 15.191 22.1881C15.191 22.1881 16.4434 25.9766 17.0982 27.9028C17.1794 28.1429 17.3694 28.3346 17.6182 28.3986C17.8686 28.4642 18.133 28.3968 18.3195 28.2206C19.3699 27.229 20.9937 25.6967 20.9937 25.6967C20.9937 25.6967 24.0791 27.958 25.8291 29.2036ZM16.3191 21.7096L17.7702 26.4931L18.0915 23.463C18.0915 23.463 23.6939 18.41 26.8881 15.5285C26.9831 15.4455 26.9952 15.3039 26.9174 15.2037C26.8397 15.1052 26.6998 15.081 26.5927 15.1484C22.8906 17.5117 16.3191 21.7096 16.3191 21.7096Z" fill="#897CFF"/>
  </symbol>

  <symbol id="icon-social-facebook" viewBox="0 0 43 42" fill="none">
    <path fill-rule="evenodd" clip-rule="evenodd" d="M21.6395 0.0273438C10.1912 0.0273438 0.90918 9.30936 0.90918 20.7577C0.90918 32.206 10.1912 41.488 21.6395 41.488C33.0879 41.488 42.3699 32.206 42.3699 20.7577C42.3699 9.30936 33.0879 0.0273438 21.6395 0.0273438ZM21.6395 3.4824C31.1651 3.4824 38.9148 11.2321 38.9148 20.7577C38.9148 30.2833 31.1651 38.033 21.6395 38.033C12.1139 38.033 4.36424 30.2833 4.36424 20.7577C4.36424 11.2321 12.1139 3.4824 21.6395 3.4824ZM29.6639 13.6852C29.1215 13.1859 26.9258 11.5932 22.0369 11.5707C22.0369 11.5707 16.2704 11.2235 13.4597 13.8027C11.8963 15.3661 11.3452 17.6551 11.2864 20.4951C11.2294 23.3352 11.1534 28.6542 16.2825 30.0967L16.2876 30.0984L16.2842 32.2993C16.2842 32.2993 16.2514 33.1907 16.8387 33.3738C17.5487 33.5932 17.9651 32.916 18.6423 32.1853C19.0154 31.7845 19.5285 31.1954 19.9155 30.7463C23.4223 31.04 26.1207 30.3662 26.4265 30.2677C27.1348 30.0363 31.1427 29.5232 31.794 24.2041C32.466 18.7192 31.4674 15.2503 29.6639 13.6852ZM30.2582 23.8085C29.7071 28.25 26.4593 28.5299 25.8599 28.7233C25.6042 28.8045 23.234 29.3936 20.2558 29.2001C20.2558 29.2001 18.0359 31.8778 17.3432 32.574C17.2343 32.6828 17.1065 32.7277 17.0218 32.707C16.9026 32.6777 16.8698 32.536 16.8716 32.3287L16.8906 28.6715H16.8888C12.551 27.4657 12.8049 22.9378 12.8533 20.5659C12.9034 18.1958 13.3491 16.2523 14.6724 14.9463C17.0495 12.7921 21.947 13.1151 21.947 13.1151C26.0827 13.1324 28.0642 14.3779 28.5237 14.796C30.0491 16.102 30.8265 19.2271 30.2582 23.8085ZM22.4515 24.0746C22.4515 24.0746 22.8402 24.1091 23.0492 23.85L23.4586 23.3369C23.6538 23.0812 24.1289 22.9188 24.5953 23.178C25.2103 23.5269 26.0067 24.0728 26.5526 24.5807C26.8532 24.8364 26.9223 25.2095 26.7185 25.6034L26.7167 25.6103C26.506 25.9835 26.2244 26.3307 25.8668 26.6572L25.8599 26.6624C25.4591 26.9975 24.9979 27.191 24.5055 27.0304L24.4951 27.0165C23.6106 26.7678 21.4875 25.6846 20.1331 24.6049C17.9184 22.8566 16.3447 19.9751 15.9093 18.4307L15.8955 18.4221C15.7348 17.928 15.93 17.4668 16.2635 17.0677L16.2704 17.0591C16.5951 16.7032 16.9441 16.4216 17.3155 16.2108L17.3242 16.2091C17.718 16.0035 18.0912 16.0726 18.3451 16.375C18.6785 16.7187 19.3074 17.5497 19.7479 18.3322C20.007 18.797 19.8446 19.272 19.5907 19.469L19.0759 19.8767C18.8167 20.0857 18.8513 20.4744 18.8513 20.4744C18.8513 20.4744 19.6114 23.349 22.4515 24.0746ZM26.924 21.6923H26.9206C26.7686 21.6923 26.6459 21.5696 26.6442 21.4176C26.6321 19.7505 26.1311 18.4221 25.1568 17.4702C24.179 16.5183 22.9455 16.0312 21.4875 16.0208C21.3355 16.0191 21.2128 15.8947 21.2146 15.7427C21.2146 15.5907 21.3389 15.468 21.491 15.468H21.4927C23.0976 15.4801 24.4606 16.0208 25.542 17.0746C26.6269 18.1336 27.1832 19.5933 27.197 21.4124C27.1987 21.5662 27.0761 21.6906 26.924 21.6923ZM25.4677 21.1239H25.4626C25.3088 21.1205 25.1879 20.9926 25.1913 20.8406C25.2138 19.8957 24.9426 19.1304 24.3673 18.5015C23.792 17.8727 23.0043 17.5307 21.9574 17.4547C21.8054 17.4426 21.6914 17.3113 21.7017 17.1593C21.7121 17.0055 21.8451 16.8915 21.9971 16.9036C23.1753 16.99 24.1099 17.4011 24.775 18.1284C25.4418 18.8574 25.7683 19.773 25.7441 20.8527C25.7407 21.003 25.618 21.1239 25.4677 21.1239ZM24.0494 20.6471C23.9026 20.6471 23.7817 20.5331 23.773 20.3846C23.7264 19.4465 23.2841 18.987 22.3824 18.9386C22.2303 18.93 22.1129 18.8004 22.1215 18.6484C22.1302 18.4946 22.2597 18.3789 22.4117 18.3858C23.6037 18.4514 24.2654 19.1321 24.3258 20.3569C24.3328 20.5107 24.2153 20.6402 24.0633 20.6471H24.0494Z" fill="#897CFF"/>
  </symbol>

  <symbol id="icon-footer-arrow" viewBox="0 0 35 36" fill="none">
    <circle cx="17.5138" cy="18.0416" r="17.1275" fill="white"/>
    <path d="M23.2933 21.239V12.2622M23.2933 12.2622H14.3165M23.2933 12.2622L11.7352 23.8203" stroke="#535353" stroke-width="2" stroke-linecap="round" stroke-linejoin="round"/>
  </symbol>

</svg>
