<svg width="72" height="73" viewBox="0 0 72 73" fill="none" xmlns="http://www.w3.org/2000/svg">
<path d="M40.1807 4.16797C40.5019 4.16861 40.8107 4.29557 41.0381 4.52246C41.2654 4.74941 41.3933 5.05767 41.3945 5.37891C41.3951 5.53879 41.3644 5.69779 41.3037 5.8457C41.243 5.99347 41.1536 6.12792 41.041 6.24121C40.9283 6.35455 40.794 6.44433 40.6465 6.50586C40.499 6.56734 40.3405 6.59929 40.1807 6.59961H37.2158V11.5889C43.2184 11.8753 48.6705 14.2776 52.8438 18.0664L56.3789 14.5371L54.29 12.4453C54.1768 12.3325 54.0868 12.1984 54.0254 12.0508C53.9639 11.903 53.9327 11.7441 53.9326 11.584C53.9326 11.4239 53.964 11.265 54.0254 11.1172C54.0868 10.9694 54.1766 10.8346 54.29 10.7217C54.5158 10.4945 54.8223 10.3659 55.1426 10.3633H55.1436C55.3037 10.3633 55.4625 10.3946 55.6104 10.4561C55.7582 10.5176 55.8929 10.6081 56.0059 10.7217L58.9639 13.6797V13.6807C58.9755 13.6924 58.9869 13.7046 58.998 13.7168L61.9131 16.6289C62.0263 16.7419 62.1164 16.8767 62.1777 17.0244C62.2389 17.172 62.2705 17.3304 62.2705 17.4902C62.2705 17.6501 62.2389 17.8084 62.1777 17.9561C62.1164 18.1038 62.0263 18.2386 61.9131 18.3516C61.8003 18.4649 61.6661 18.5548 61.5186 18.6162C61.3706 18.6777 61.211 18.71 61.0508 18.71C60.8907 18.7099 60.7318 18.6776 60.584 18.6162C60.4362 18.5547 60.3024 18.4641 60.1895 18.3506V18.3516L58.0986 16.2588L54.5684 19.79C58.3565 23.9629 60.759 29.4161 61.0459 35.418H66.0352V32.4521C66.0358 32.2925 66.0673 32.1345 66.1289 31.9873C66.1906 31.84 66.2812 31.7062 66.3945 31.5938C66.5079 31.4813 66.6423 31.3916 66.79 31.3311C66.9377 31.2706 67.0963 31.2406 67.2559 31.2412C67.5766 31.2425 67.8845 31.3698 68.1113 31.5967C68.3381 31.8236 68.4655 32.1313 68.4668 32.4521V40.8076C68.4674 40.9672 68.4365 41.1257 68.376 41.2734C68.3155 41.4211 68.2266 41.5556 68.1143 41.6689C68.0018 41.7823 67.868 41.8729 67.7207 41.9346C67.5735 41.9962 67.4155 42.0286 67.2559 42.0293C67.0955 42.0299 66.9364 41.9985 66.7881 41.9375C66.6397 41.8764 66.5041 41.7863 66.3906 41.6729C66.2774 41.5595 66.1881 41.4245 66.127 41.2764C66.0658 41.128 66.0345 40.9681 66.0352 40.8076V37.8516H61.0459C60.757 43.8523 58.3522 49.3031 54.5635 53.4746L58.0996 57.0098L60.1895 54.916L60.2793 54.8359C60.497 54.6604 60.7697 54.5643 61.0518 54.5664C61.3335 54.5645 61.6058 54.6606 61.8232 54.8359L61.9131 54.916C62.0267 55.029 62.1172 55.1636 62.1787 55.3115C62.2402 55.4594 62.2715 55.6182 62.2715 55.7783C62.2715 55.9385 62.2402 56.0972 62.1787 56.2451C62.1172 56.3931 62.0267 56.5276 61.9131 56.6406L58.999 59.5527L58.9639 59.5898L56.0059 62.5479V62.5488C55.7781 62.7753 55.4696 62.9022 55.1484 62.9023C54.8273 62.9023 54.5188 62.7751 54.291 62.5488C54.1775 62.4359 54.0869 62.3011 54.0254 62.1533C53.9639 62.0055 53.9327 61.8466 53.9326 61.6865C53.9326 61.5263 53.9639 61.3667 54.0254 61.2188C54.0868 61.0711 54.1768 60.937 54.29 60.8242L56.3789 58.7314L52.8398 55.1982C48.6671 58.985 43.2165 61.3845 37.2158 61.6709V66.6699H40.1807C40.5019 66.6706 40.8107 66.7984 41.0381 67.0254C41.2652 67.2522 41.3932 67.5598 41.3945 67.8809C41.3951 68.0407 41.3644 68.1997 41.3037 68.3477C41.243 68.4955 41.1537 68.6298 41.041 68.7432C40.9283 68.8566 40.7941 68.9472 40.6465 69.0088C40.4991 69.0702 40.3404 69.1022 40.1807 69.1025H31.8271C31.6671 69.1031 31.5084 69.0716 31.3604 69.0107C31.212 68.9496 31.0764 68.8596 30.9629 68.7461C30.8496 68.6328 30.7603 68.4977 30.6992 68.3496C30.6381 68.2012 30.6068 68.0413 30.6074 67.8809C30.6081 67.7213 30.6395 67.5632 30.7012 67.416C30.7629 67.2687 30.8534 67.1349 30.9668 67.0225C31.0801 66.9101 31.2146 66.8212 31.3623 66.7607C31.5098 66.7003 31.6677 66.6694 31.8271 66.6699H34.7842V61.6709C28.7846 61.3824 23.3344 58.9818 19.1631 55.1943L15.624 58.7295L17.7178 60.8242C17.8312 60.9371 17.9219 61.071 17.9834 61.2188C18.0449 61.3667 18.0762 61.5263 18.0762 61.6865C18.0761 61.8466 18.0449 62.0055 17.9834 62.1533C17.9219 62.3012 17.8313 62.4359 17.7178 62.5488C17.6049 62.6618 17.4707 62.7513 17.3232 62.8125C17.1756 62.8738 17.0173 62.9052 16.8574 62.9053C16.6975 62.9053 16.5383 62.8738 16.3906 62.8125C16.2431 62.7512 16.1089 62.661 15.9961 62.5479L10.0889 56.6406C9.97529 56.5276 9.88476 56.393 9.82324 56.2451C9.76181 56.0972 9.73048 55.9384 9.73047 55.7783C9.73048 55.6182 9.76179 55.4594 9.82324 55.3115C9.88476 55.1636 9.97526 55.029 10.0889 54.916L10.1768 54.8359C10.2691 54.76 10.3726 54.6984 10.4834 54.6523C10.631 54.5911 10.7894 54.5596 10.9492 54.5596C11.1092 54.5596 11.2683 54.591 11.416 54.6523C11.5635 54.7136 11.6977 54.803 11.8105 54.916L13.9062 57.0117L17.4414 53.4717C13.6553 49.301 11.2519 43.8508 10.9629 37.8525H5.9668V40.8076C5.96741 40.9675 5.93665 41.1265 5.87598 41.2744C5.8153 41.4223 5.72596 41.5566 5.61328 41.6699C5.50063 41.7832 5.36717 41.874 5.21973 41.9355C5.0723 41.997 4.91364 42.0289 4.75391 42.0293C4.59359 42.0299 4.4344 41.9985 4.28613 41.9375C4.13776 41.8764 4.00215 41.7863 3.88867 41.6729C3.7753 41.5594 3.68513 41.4246 3.62402 41.2764C3.5629 41.128 3.53259 40.9681 3.5332 40.8076V32.4521C3.53383 32.2926 3.56534 32.1345 3.62695 31.9873C3.68864 31.84 3.77921 31.7062 3.89258 31.5938C4.00594 31.4813 4.14032 31.3916 4.28809 31.3311C4.43578 31.2706 4.59432 31.2406 4.75391 31.2412C5.07496 31.242 5.38307 31.3689 5.61035 31.5957C5.83771 31.8227 5.96553 32.1309 5.9668 32.4521V35.418H10.9629C11.2497 29.4176 13.6511 23.9645 17.4375 19.792L13.9062 16.2549L11.8105 18.3516C11.6977 18.4646 11.5635 18.554 11.416 18.6152C11.2683 18.6765 11.1092 18.708 10.9492 18.708C10.7894 18.708 10.631 18.6765 10.4834 18.6152C10.3359 18.554 10.2017 18.4646 10.0889 18.3516C9.97564 18.2386 9.88553 18.1038 9.82422 17.9561C9.76301 17.8084 9.73146 17.6501 9.73145 17.4902C9.73145 17.3304 9.763 17.1721 9.82422 17.0244C9.88553 16.8767 9.97561 16.7419 10.0889 16.6289L15.9961 10.7217L16.085 10.6406C16.1773 10.5646 16.2808 10.5022 16.3916 10.4561C16.5395 10.3946 16.6983 10.3633 16.8584 10.3633L16.9775 10.3691C17.0965 10.3811 17.2135 10.4108 17.3242 10.457C17.4716 10.5186 17.6061 10.6084 17.7188 10.7217H17.7178C17.8313 10.8347 17.9219 10.9693 17.9834 11.1172C18.0448 11.265 18.0762 11.4239 18.0762 11.584C18.0761 11.7441 18.0449 11.903 17.9834 12.0508C17.9219 12.1987 17.8313 12.3333 17.7178 12.4463L15.624 14.5391L19.1592 18.0703C23.331 14.2807 28.7827 11.8774 34.7842 11.5889V6.59961H31.8271C31.667 6.60013 31.5084 6.56878 31.3604 6.50781C31.212 6.4467 31.0764 6.35759 30.9629 6.24414C30.8494 6.13067 30.7603 5.99505 30.6992 5.84668C30.6534 5.73544 30.6237 5.61835 30.6123 5.49902L30.6074 5.37891C30.6081 5.21932 30.6396 5.06128 30.7012 4.91406C30.7629 4.76675 30.8534 4.633 30.9668 4.52051C31.0801 4.40806 31.2146 4.31932 31.3623 4.25879C31.5098 4.19836 31.6677 4.16745 31.8271 4.16797H40.1807ZM36.0039 13.9902C29.788 13.9903 24.1647 16.4878 20.0762 20.5342C20.0503 20.5663 20.0231 20.5976 19.9941 20.627L19.9912 20.6299C19.9624 20.6566 19.9326 20.6822 19.9014 20.7061C15.8589 24.7942 13.3662 30.4169 13.3662 36.6299C13.3664 42.8752 15.886 48.525 19.9658 52.6182H19.9648L19.9893 52.6377L19.9951 52.6426L19.9941 52.6436C20.0057 52.6554 20.0172 52.6674 20.0283 52.6797L20.417 53.0566C24.4745 56.9085 29.9588 59.2704 36.0039 59.2705C42.2216 59.2705 47.8497 56.773 51.9385 52.7246C51.9598 52.6973 51.9823 52.6709 52.0059 52.6455L52.0088 52.6416C52.0367 52.6143 52.0663 52.5889 52.0967 52.5645C56.1453 48.4755 58.6444 42.8481 58.6445 36.6299C58.6445 30.4298 56.1595 24.8195 52.1318 20.7334V20.7324C52.0887 20.6997 52.0462 20.6652 52.0078 20.627L52.0068 20.626C51.9679 20.5861 51.9325 20.5429 51.8994 20.498C47.8138 16.4722 42.2019 13.9903 36.0039 13.9902ZM28.9678 33.6387C33.7452 33.6388 37.6365 37.5371 37.6367 42.3145C37.6367 47.0921 33.7452 50.9842 28.9678 50.9844C24.1903 50.9844 20.292 47.0922 20.292 42.3145C20.2922 37.5369 24.1903 33.6387 28.9678 33.6387ZM28.9678 36.0713C25.5072 36.0713 22.7238 38.8538 22.7236 42.3145C22.7237 45.7751 25.507 48.5518 28.9678 48.5518C32.4285 48.5516 35.2128 45.775 35.2129 42.3145C35.2127 38.8539 32.4283 36.0714 28.9678 36.0713ZM47.3838 32.0322C50.5262 32.0325 53.0946 34.6097 53.0947 37.752C53.0947 40.8944 50.526 43.4606 47.3838 43.4609C44.2415 43.4609 41.6631 40.8948 41.6631 37.752C41.6632 34.6094 44.2413 32.0322 47.3838 32.0322ZM47.3838 34.4648C45.5581 34.4648 44.0958 35.9262 44.0957 37.752C44.0957 39.5773 45.5577 41.0293 47.3838 41.0293C49.2092 41.029 50.6601 39.5775 50.6602 37.752C50.6601 35.926 49.2088 34.4651 47.3838 34.4648ZM34.2578 18.6514C37.4004 18.6514 39.9686 21.2288 39.9688 24.3711C39.9687 27.5137 37.4003 30.08 34.2578 30.0801C31.1155 30.0799 28.5469 27.5137 28.5469 24.3711C28.547 21.2289 31.1153 18.6516 34.2578 18.6514ZM34.2578 21.084C32.4327 21.0842 30.9796 22.5452 30.9795 24.3711C30.9795 26.1967 32.4322 27.6483 34.2578 27.6484C36.0838 27.6484 37.5439 26.1965 37.5439 24.3711C37.5438 22.5454 36.0833 21.084 34.2578 21.084Z" fill="#897CFF"/>
</svg>
